<svg width="200" height="225" viewBox="0 0 200 225" fill="none" xmlns="http://www.w3.org/2000/svg">
<path d="M199.663 66.1874C199.662 62.414 198.855 59.0796 197.223 56.2179C195.62 53.4038 193.219 51.0452 189.998 49.1804C163.416 33.853 136.809 18.5726 110.235 3.22959C103.071 -0.906347 96.125 -0.755566 89.0141 3.43975C78.4336 9.67959 25.4609 40.0288 9.67578 49.1718C3.175 52.9351 0.0117187 58.6944 0.0101562 66.1804C0 97.0046 0.0101562 127.828 0 158.653C0.0015625 162.344 0.774219 165.613 2.33437 168.432C3.93828 171.331 6.37266 173.755 9.66719 175.662C25.4531 184.805 78.4328 215.151 89.0109 221.393C96.125 225.591 103.071 225.741 110.238 221.603C136.812 206.259 163.421 190.98 190.007 175.652C193.302 173.746 195.736 171.321 197.34 168.424C198.898 165.605 199.672 162.336 199.673 158.644C199.673 158.644 199.673 97.0124 199.663 66.1874Z" fill="#569B51"/>
<path d="M199.663 66.1874C199.662 62.414 198.855 59.0796 197.223 56.2179C195.62 53.4038 193.219 51.0452 189.998 49.1804C163.416 33.853 136.809 18.5726 110.235 3.22959C103.071 -0.906347 96.125 -0.755566 89.0141 3.43975C78.4336 9.67959 25.4609 40.0288 9.67578 49.1718C3.175 52.9351 0.0117187 58.6944 0.0101562 66.1804C0 97.0046 0.0101562 127.828 0 158.653C0.0015625 162.344 0.774219 165.613 2.33437 168.432C3.93828 171.331 6.37266 173.755 9.66719 175.662C25.4531 184.805 78.4328 215.151 89.0109 221.393C96.125 225.591 103.071 225.741 110.238 221.603C136.812 206.259 163.421 190.98 190.007 175.652C193.302 173.746 195.736 171.321 197.34 168.424C198.898 165.605 199.672 162.336 199.673 158.644C199.673 158.644 199.673 97.0124 199.663 66.1874Z" fill="#569B51"/>
<path d="M194.319 116.141H186.723V123.738H179.127V116.141H171.532V108.547H179.127V100.952H186.723V108.547H194.319V116.141Z" fill="white"/>
<path d="M166.604 116.141H159.009V123.738H151.414V116.141H143.819V108.547H151.414V100.952H159.009V108.547H166.604V116.141Z" fill="white"/>
<path d="M128.609 128.606C122.946 138.648 112.186 145.435 99.8367 145.435C87.5632 145.435 76.864 138.733 71.1726 128.797C68.4078 123.969 66.8179 118.38 66.8179 112.416C66.8179 94.1811 81.6015 79.3982 99.8367 79.3982C112.031 79.3982 122.674 86.0162 128.394 95.8506L157.254 79.2318C145.783 59.4303 124.366 46.1084 99.8367 46.1084C63.2148 46.1084 33.5281 75.7959 33.5281 112.416C33.5281 124.43 36.7242 135.697 42.3101 145.415C53.7523 165.321 75.2296 178.725 99.8367 178.725C124.489 178.725 146 165.267 157.426 145.302L128.609 128.606Z" fill="white"/>
</svg>
