<svg width="200" height="225" viewBox="0 0 200 225" fill="none" xmlns="http://www.w3.org/2000/svg">
<path d="M199.663 65.9784C199.662 62.205 198.855 58.8706 197.223 56.0089C195.62 53.1948 193.219 50.8362 189.998 48.9714C163.416 33.644 136.809 18.3636 110.235 3.02061C103.071 -1.11533 96.125 -0.96455 89.0141 3.23076C78.4336 9.47061 25.4609 39.8198 9.67578 48.9628C3.175 52.7261 0.0117188 58.4855 0.0101563 65.9714C0 96.7956 0.0101563 127.619 0 158.444C0 162.135 0.774219 165.404 2.33437 168.223C3.93828 171.122 6.37266 173.546 9.66719 175.453C25.4531 184.596 78.4328 214.942 89.0109 221.184C96.125 225.382 103.071 225.532 110.238 221.394C136.812 206.05 163.421 190.771 190.007 175.443C193.302 173.537 195.736 171.112 197.34 168.215C198.898 165.396 199.673 162.127 199.673 158.435C199.673 158.435 199.673 96.8034 199.663 65.9784Z" fill="#569B51"/>
<path d="M199.663 65.9784C199.662 62.205 198.855 58.8706 197.223 56.0089C195.62 53.1948 193.219 50.8362 189.998 48.9714C163.416 33.644 136.809 18.3636 110.235 3.02061C103.071 -1.11533 96.125 -0.96455 89.0141 3.23076C78.4336 9.47061 25.4609 39.8198 9.67578 48.9628C3.175 52.7261 0.0117188 58.4855 0.0101563 65.9714C0 96.7956 0.0101563 127.619 0 158.444C0 162.135 0.774219 165.404 2.33437 168.223C3.93828 171.122 6.37266 173.546 9.66719 175.453C25.4531 184.596 78.4328 214.942 89.0109 221.184C96.125 225.382 103.071 225.532 110.238 221.394C136.812 206.05 163.421 190.771 190.007 175.443C193.302 173.537 195.736 171.112 197.34 168.215C198.898 165.396 199.673 162.127 199.673 158.435C199.673 158.435 199.673 96.8034 199.663 65.9784Z" fill="#569B51"/>
<path d="M100.142 111.907L2.33435 168.223C3.93826 171.122 6.37263 173.546 9.66716 175.453C25.4531 184.596 78.4328 214.942 89.0109 221.184C96.125 225.381 103.071 225.531 110.237 221.394C136.812 206.05 163.421 190.771 190.007 175.443C193.302 173.537 195.736 171.112 197.34 168.215L100.142 111.907Z" fill="#569B51"/>
<path d="M100.142 111.907L2.33435 168.223C3.93826 171.122 6.37263 173.546 9.66716 175.453C25.4531 184.596 78.4328 214.942 89.0109 221.184C96.125 225.381 103.071 225.531 110.237 221.394C136.812 206.05 163.421 190.771 190.007 175.443C193.302 173.537 195.736 171.112 197.34 168.215L100.142 111.907Z" fill="#569B51"/>
<path d="M199.663 65.9783C199.662 62.2049 198.855 58.8705 197.223 56.0088L100.142 111.907L197.34 168.215C198.898 165.396 199.672 162.127 199.673 158.435C199.673 158.435 199.673 96.8033 199.663 65.9783Z" fill="#569B51"/>
<path d="M199.663 65.9783C199.662 62.2049 198.855 58.8705 197.223 56.0088L100.142 111.907L197.34 168.215C198.898 165.396 199.672 162.127 199.673 158.435C199.673 158.435 199.673 96.8033 199.663 65.9783Z" fill="#569B51"/>
<path d="M157.728 90.8545V101.381H168.255V90.8545H173.518V101.381H184.044V106.644H173.518V117.17H184.044V122.433H173.518V132.96H168.255V122.433H157.728V132.96H152.465V122.433H141.939V117.17H152.465V106.644H141.939V101.381H152.465V90.8545H157.728ZM168.255 106.644H157.728V117.17H168.255V106.644Z" fill="white"/>
<path d="M100.357 37.9888C127.813 37.9888 151.784 52.8999 164.624 75.0638L164.499 74.8505L132.195 93.4507C125.83 82.6744 114.163 75.4022 100.778 75.2524L100.357 75.2501C79.9463 75.2501 63.399 91.7965 63.399 112.207C63.399 118.882 65.1785 125.138 68.2732 130.543C74.6436 141.664 86.6192 149.165 100.357 149.165C114.179 149.165 126.223 141.569 132.561 130.328L132.407 130.598L164.662 149.284C151.964 171.26 128.321 186.125 101.184 186.422L100.357 186.426C72.8142 186.426 48.7747 171.423 35.9674 149.142C29.7151 138.265 26.1377 125.654 26.1377 112.207C26.1377 71.218 59.366 37.9888 100.357 37.9888Z" fill="white"/>
</svg>
