<svg width="200" height="225" viewBox="0 0 200 225" fill="none" xmlns="http://www.w3.org/2000/svg">
<g clip-path="url(#clip0_80:99)">
<path d="M199.99 66.9313C199.988 63.1477 199.18 59.8047 197.545 56.936C195.94 54.1141 193.534 51.75 190.309 49.8797C163.684 34.5125 137.032 19.1922 110.416 3.80938C103.24 -0.336716 96.282 -0.185934 89.1594 4.02032C78.5617 10.2766 25.5023 40.7047 9.69141 49.8711C3.18047 53.6445 0.0117188 59.4188 0.0101563 66.9242C0 97.8289 0.0101563 128.732 0 159.638C0.0015625 163.338 0.775781 166.616 2.33828 169.442C3.94453 172.348 6.38281 174.778 9.68281 176.691C25.4945 185.857 78.5609 216.283 89.1562 222.541C96.282 226.749 103.24 226.899 110.418 222.752C137.035 207.368 163.688 192.048 190.318 176.681C193.618 174.77 196.056 172.338 197.662 169.434C199.223 166.608 199.998 163.33 200 159.629C200 159.629 200 97.8367 199.99 66.9313Z" fill="#569B51"/>
<path d="M199.99 66.9313C199.988 63.1477 199.18 59.8047 197.545 56.936C195.94 54.1141 193.534 51.75 190.309 49.8797C163.684 34.5125 137.032 19.1922 110.416 3.80938C103.24 -0.336716 96.282 -0.185934 89.1594 4.02032C78.5617 10.2766 25.5023 40.7047 9.69141 49.8711C3.18047 53.6445 0.0117188 59.4188 0.0101563 66.9242C0 97.8289 0.0101563 128.732 0 159.638C0.0015625 163.338 0.775781 166.616 2.33828 169.442C3.94453 172.348 6.38281 174.778 9.68281 176.691C25.4945 185.857 78.5609 216.283 89.1562 222.541C96.282 226.749 103.24 226.899 110.418 222.752C137.035 207.368 163.688 192.048 190.318 176.681C193.618 174.77 196.056 172.338 197.662 169.434C199.223 166.608 199.998 163.33 200 159.629C200 159.629 200 97.8367 199.99 66.9313Z" fill="#569B51"/>
<path d="M110.235 4.01084C103.071 -0.125097 96.125 0.0256843 89.0141 4.221C78.4336 10.4608 25.4609 40.8101 9.67578 49.953C3.175 53.7163 0.0117187 59.4757 0.0101562 66.9616C0 97.7859 0.0101562 128.609 0 159.434C0.0015625 163.125 0.774219 166.394 2.33437 169.213C3.93828 172.112 6.37266 174.536 9.66719 176.443C13.2836 178.537 18.8539 181.746 25.4164 185.521L171.582 39.3554C151.13 27.5788 130.673 15.8116 110.235 4.01084Z" fill="#569B51"/>
<path d="M110.235 4.01084C103.071 -0.125097 96.125 0.0256843 89.0141 4.221C78.4336 10.4608 25.4609 40.8101 9.67578 49.953C3.175 53.7163 0.0117187 59.4757 0.0101562 66.9616C0 97.7859 0.0101562 128.609 0 159.434C0.0015625 163.125 0.774219 166.394 2.33437 169.213C3.93828 172.112 6.37266 174.536 9.66719 176.443C13.2836 178.537 18.8539 181.746 25.4164 185.521L171.582 39.3554C151.13 27.5788 130.673 15.8116 110.235 4.01084Z" fill="#569B51"/>
<path d="M120.669 99.1938L151.793 99.4133C151.793 86.4453 138.666 54.6875 101.033 54.6875C77.0555 54.6875 44.8211 69.9313 44.8211 113.758C44.8211 157.584 76.4203 171.875 101.033 171.875C140.89 171.875 150.416 144.295 150.416 128.709L120.723 127.012C120.723 127.012 121.517 145.039 100.874 145.039C81.8195 145.039 78.6399 121.697 78.6399 113.758C78.6399 101.69 82.9313 82.3172 100.874 82.3172C118.818 82.3172 120.669 99.1938 120.669 99.1938Z" fill="white"/>
</g>
<defs>
<clipPath id="clip0_80:99">
<rect width="200" height="225" fill="white"/>
</clipPath>
</defs>
</svg>
