<svg width="256" height="256" viewBox="0 0 256 256" fill="none" xmlns="http://www.w3.org/2000/svg">
<g clip-path="url(#clip0_202:162)">
<path d="M127.999 0C57.423 0 0 57.423 0 128.001C0 198.585 57.423 256.005 127.999 256.005C198.577 256.005 256 198.585 256 128.001C256 57.423 198.577 0 127.999 0Z" fill="white"/>
<path d="M123.318 130.303C122.168 132.795 120.899 135.595 119.585 138.575C114.94 149.099 109.796 161.905 107.917 170.109C107.242 173.031 106.824 176.652 106.832 180.667C106.832 182.255 106.917 183.924 107.052 185.624C113.619 188.037 120.712 189.364 128.119 189.377C134.862 189.364 141.34 188.25 147.403 186.234C145.978 184.931 144.618 183.542 143.38 181.977C135.16 171.495 130.574 156.133 123.318 130.303Z" fill="#569B51"/>
<path d="M92.97 78.2251C77.271 89.2891 66.998 107.537 66.959 128.217C66.998 148.588 76.962 166.6 92.266 177.71C96.02 162.073 105.43 147.755 119.541 119.055C118.703 116.753 117.748 114.233 116.679 111.586C112.77 101.78 107.128 90.3921 102.093 85.2351C99.526 82.5411 96.411 80.2131 92.97 78.2251Z" fill="#569B51"/>
<path d="M181.394 198.367C173.294 197.352 166.609 196.127 160.761 194.064C150.925 198.948 139.848 201.707 128.119 201.707C87.5349 201.707 54.6359 168.813 54.6309 128.217C54.6309 106.19 64.3349 86.4441 79.6869 72.9771C75.5809 71.9851 71.2989 71.4061 66.9249 71.4141C45.3629 71.6171 22.6019 83.5501 13.1259 115.777C12.2399 120.468 12.4509 124.015 12.4509 128.219C12.4509 192.104 64.2419 243.895 128.122 243.895C167.244 243.895 201.804 224.456 222.733 194.726C211.413 197.547 200.527 198.896 191.205 198.925C187.711 198.925 184.431 198.738 181.394 198.367Z" fill="#569B51"/>
<path d="M159.658 175.953C160.372 176.307 161.991 176.885 164.244 177.524C179.401 166.397 189.251 148.474 189.29 128.217H189.284C189.227 94.4462 161.898 67.1212 128.119 67.0542C121.405 67.0672 114.955 68.1752 108.916 70.1762C121.335 84.3322 127.307 104.562 133.084 126.691C133.087 126.701 133.092 126.709 133.094 126.717C133.105 126.735 134.942 132.862 138.096 140.991C141.228 149.109 145.69 159.159 150.556 166.483C153.751 171.391 157.265 174.918 159.658 175.953Z" fill="#569B51"/>
<path d="M128.122 12.541C89.378 12.541 55.106 31.614 34.114 60.859C45.039 54.017 56.194 51.549 65.929 51.637C79.375 51.676 89.946 55.845 95.018 58.697C96.243 59.403 97.406 60.163 98.545 60.944C107.595 56.958 117.595 54.729 128.119 54.729C168.708 54.734 201.612 87.628 201.618 128.217H201.612C201.612 148.681 193.242 167.184 179.749 180.508C183.061 180.879 186.593 181.11 190.2 181.092C203.011 181.098 216.858 178.271 227.239 169.54C234.008 163.838 239.679 155.489 242.824 142.971C243.439 138.136 243.793 133.221 243.793 128.219C243.793 64.337 192.007 12.541 128.122 12.541Z" fill="#569B51"/>
</g>
<defs>
<clipPath id="clip0_202:162">
<rect width="256" height="256" fill="white"/>
</clipPath>
</defs>
</svg>
