<svg width="200" height="283" viewBox="0 0 200 283" fill="none" xmlns="http://www.w3.org/2000/svg">
<path d="M99.878 281.319L18.4857 258.724L0.347778 55.2856H199.652L181.495 258.692L99.878 281.319Z" fill="#569B51"/>
<path d="M99.878 281.319L18.4857 258.724L0.347778 55.2856H199.652L181.495 258.692L99.878 281.319Z" fill="#569B51"/>
<path d="M165.951 245.74L181.467 71.9199H100V264.024L165.951 245.74Z" fill="#569B51"/>
<path d="M165.951 245.74L181.467 71.9199H100V264.024L165.951 245.74Z" fill="#569B51"/>
<path d="M41.9285 147.372L44.1648 172.323H100V147.372H41.9285Z" fill="white"/>
<path d="M37.4351 96.8711L39.7033 121.822H100V96.8711H37.4351Z" fill="white"/>
<path d="M99.9999 212.172L99.8906 212.201L72.1027 204.698L70.3263 184.798H45.2796L48.7752 223.975L99.8851 238.163L99.9999 238.131V212.172Z" fill="white"/>
<path d="M47.2527 0H77.4725V12.6374H59.8901V25.2747H77.4725V37.9121H47.2527V0Z" fill="#569B51"/>
<path d="M47.2527 0H77.4725V12.6374H59.8901V25.2747H77.4725V37.9121H47.2527V0Z" fill="#569B51"/>
<path d="M83.5164 0H113.736V10.989H96.1538V13.1868H113.736V38.4615H83.5164V26.9231H101.099V24.7253H83.5164V0Z" fill="#569B51"/>
<path d="M83.5164 0H113.736V10.989H96.1538V13.1868H113.736V38.4615H83.5164V26.9231H101.099V24.7253H83.5164V0Z" fill="#569B51"/>
<path d="M119.78 0H150V10.989H132.418V13.1868H150V38.4615H119.78V26.9231H137.363V24.7253H119.78V0Z" fill="#569B51"/>
<path d="M119.78 0H150V10.989H132.418V13.1868H150V38.4615H119.78V26.9231H137.363V24.7253H119.78V0Z" fill="#569B51"/>
<path d="M157.912 147.372L162.416 96.8711H99.9137V121.822H135.072L132.802 147.372H99.9137V172.323H130.638L127.742 204.682L99.9137 212.193V238.151L151.064 223.975L151.44 219.76L157.303 154.072L157.912 147.372Z" fill="white"/>
</svg>
