<svg width="256" height="256" viewBox="0 0 256 256" fill="none" xmlns="http://www.w3.org/2000/svg">
<g clip-path="url(#clip0_202:175)">
<path d="M70.5338 69.6959L53.9878 53.1499L54.0578 172.75L54.2558 178.34C54.3378 180.97 54.8258 183.938 55.6398 187.014L186.744 233.244L219.516 218.724L219.528 218.684L70.5338 69.6959Z" fill="#6AB972"/>
<path d="M55.6398 187.014L55.6478 187.022C55.6398 186.968 55.6118 186.908 55.6118 186.852C55.6118 186.908 55.6198 186.96 55.6398 187.014ZM219.516 218.724L186.744 233.244L55.6478 187.022C58.1518 196.63 63.6958 207.43 69.6618 213.336L112.446 255.876L207.576 256L219.528 218.684L219.516 218.724Z" fill="#4F934A"/>
<path d="M3.03392 130.116C-1.20208 134.638 0.901916 143.966 7.72192 150.838L37.1399 180.5L55.6399 187.014C54.8259 183.938 54.3379 180.97 54.2559 178.34L54.0579 172.75L53.9879 53.1499L3.03392 130.116Z" fill="#569B51"/>
<path d="M187.82 54.686C184.744 53.9 181.794 53.414 179.12 53.33L173.212 53.126L53.9878 53.142L219.544 218.684H219.558L234.098 185.88L187.82 54.686Z" fill="#569B51"/>
<path d="M187.67 54.6543C187.734 54.6683 187.784 54.6863 187.826 54.6923L187.82 54.6863C187.784 54.6683 187.734 54.6683 187.67 54.6543ZM214.118 68.7323C208.11 62.6743 197.452 57.1683 187.826 54.6923L234.098 185.88L219.558 218.684H219.544L255.076 207.336L255.152 109.92L214.118 68.7323Z" fill="#4F934A"/>
<path d="M181.338 36.2981L151.684 6.86206C144.826 0.0680599 135.494 -2.04594 130.984 2.17806L53.9878 53.1421L173.212 53.1261L179.12 53.3301C181.794 53.4141 184.744 53.9001 187.82 54.6861L181.338 36.2981Z" fill="#6AB972"/>
</g>
<defs>
<clipPath id="clip0_202:175">
<rect width="256" height="256" fill="white"/>
</clipPath>
</defs>
</svg>
