<svg width="200" height="191" viewBox="0 0 200 191" fill="none" xmlns="http://www.w3.org/2000/svg">
<path d="M167.398 100.005C167.398 99.6692 167.306 99.4294 167.116 99.2727C166.907 99.104 166.544 99.0141 166.04 99.0141H165.315V101.008H166.19C166.998 101.008 167.398 100.672 167.398 100.005ZM168.529 104.161H167.532L166.896 102.759C166.573 102.056 166.228 101.704 165.851 101.704H165.315V104.161H164.493V98.3142H166.139C166.871 98.3142 167.42 98.4727 167.797 98.8032C168.117 99.0875 168.276 99.4519 168.276 99.9056C168.276 100.308 168.146 100.647 167.883 100.928C167.628 101.212 167.26 101.404 166.791 101.503V101.528C167.116 101.605 167.442 101.963 167.759 102.608L168.529 104.165V104.161ZM170.35 101.295C170.35 100.145 169.957 99.1739 169.174 98.4037C168.388 97.6339 167.43 97.2473 166.299 97.2473C165.132 97.2473 164.161 97.6339 163.391 98.4104C162.621 99.1899 162.238 100.155 162.238 101.295C162.238 102.462 162.637 103.436 163.429 104.213C164.212 104.989 165.171 105.372 166.299 105.372C167.42 105.372 168.378 104.986 169.168 104.199C169.957 103.426 170.35 102.455 170.35 101.295ZM170.903 101.27C170.903 102.561 170.459 103.644 169.567 104.516C168.676 105.395 167.583 105.833 166.276 105.833C164.96 105.833 163.867 105.401 162.998 104.554C162.129 103.695 161.698 102.615 161.698 101.305C161.698 100.024 162.139 98.9473 163.02 98.0625C163.902 97.1806 165.001 96.7397 166.315 96.7397C167.602 96.7397 168.682 97.1615 169.558 98.0016C170.455 98.8643 170.903 99.9506 170.903 101.27Z" fill="#569B51"/>
<path d="M167.398 100.005C167.398 99.6692 167.306 99.4294 167.116 99.2727C166.907 99.104 166.544 99.0141 166.04 99.0141H165.315V101.008H166.19C166.998 101.008 167.398 100.672 167.398 100.005ZM168.529 104.161H167.532L166.896 102.759C166.573 102.056 166.228 101.704 165.851 101.704H165.315V104.161H164.493V98.3142H166.139C166.871 98.3142 167.42 98.4727 167.797 98.8032C168.117 99.0875 168.276 99.4519 168.276 99.9056C168.276 100.308 168.146 100.647 167.883 100.928C167.628 101.212 167.26 101.404 166.791 101.503V101.528C167.116 101.605 167.442 101.963 167.759 102.608L168.529 104.165V104.161ZM170.35 101.295C170.35 100.145 169.957 99.1739 169.174 98.4037C168.388 97.6339 167.43 97.2473 166.299 97.2473C165.132 97.2473 164.161 97.6339 163.391 98.4104C162.621 99.1899 162.238 100.155 162.238 101.295C162.238 102.462 162.637 103.436 163.429 104.213C164.212 104.989 165.171 105.372 166.299 105.372C167.42 105.372 168.378 104.986 169.168 104.199C169.957 103.426 170.35 102.455 170.35 101.295ZM170.903 101.27C170.903 102.561 170.459 103.644 169.567 104.516C168.676 105.395 167.583 105.833 166.276 105.833C164.96 105.833 163.867 105.401 162.998 104.554C162.129 103.695 161.698 102.615 161.698 101.305C161.698 100.024 162.139 98.9473 163.02 98.0625C163.902 97.1806 165.001 96.7397 166.315 96.7397C167.602 96.7397 168.682 97.1615 169.558 98.0016C170.455 98.8643 170.903 99.9506 170.903 101.27Z" fill="#569B51"/>
<path d="M45.9369 117.574H43.103V101.356C43.103 100.075 43.1874 98.5157 43.3382 96.6754H43.2743C43.009 97.752 42.7661 98.5316 42.5522 99.0142L34.3154 117.574H32.9352L24.6823 99.1484C24.4497 98.6338 24.2064 97.8062 23.9602 96.6754H23.8989C23.9858 97.6434 24.0344 99.2122 24.0344 101.388V117.574H21.3025V93.4229H25.0407L32.4501 110.264C33.0091 111.532 33.3702 112.497 33.5458 113.155H33.6634C34.1457 111.836 34.5291 110.845 34.82 110.193L42.3889 93.4229H45.9354V117.574H45.9369Z" fill="#569B51"/>
<path d="M45.9369 117.574H43.103V101.356C43.103 100.075 43.1874 98.5157 43.3382 96.6754H43.2743C43.009 97.752 42.7661 98.5316 42.5522 99.0142L34.3154 117.574H32.9352L24.6823 99.1484C24.4497 98.6338 24.2064 97.8062 23.9602 96.6754H23.8989C23.9858 97.6434 24.0344 99.2122 24.0344 101.388V117.574H21.3025V93.4229H25.0407L32.4501 110.264C33.0091 111.532 33.3702 112.497 33.5458 113.155H33.6634C34.1457 111.836 34.5291 110.845 34.82 110.193L42.3889 93.4229H45.9354V117.574H45.9369Z" fill="#569B51"/>
<path d="M54.6543 117.573H51.9004V100.327H54.6543V117.573ZM55.1305 94.1442C55.1305 94.6523 54.9515 95.0772 54.5967 95.4256C54.2486 95.7737 53.8174 95.9496 53.3124 95.9496C52.8203 95.9496 52.3922 95.7808 52.041 95.4447C51.6895 95.1061 51.5167 94.6746 51.5167 94.1442C51.5167 93.6458 51.6905 93.221 52.041 92.8759C52.3922 92.5309 52.8203 92.3647 53.3124 92.3647C53.8172 92.3647 54.2486 92.5309 54.5967 92.8759C54.9515 93.221 55.1305 93.6458 55.1305 94.1442Z" fill="#569B51"/>
<path d="M54.6543 117.573H51.9004V100.327H54.6543V117.573ZM55.1305 94.1442C55.1305 94.6523 54.9515 95.0772 54.5967 95.4256C54.2486 95.7737 53.8174 95.9496 53.3124 95.9496C52.8203 95.9496 52.3922 95.7808 52.041 95.4447C51.6895 95.1061 51.5167 94.6746 51.5167 94.1442C51.5167 93.6458 51.6905 93.221 52.041 92.8759C52.3922 92.5309 52.8203 92.3647 53.3124 92.3647C53.8172 92.3647 54.2486 92.5309 54.5967 92.8759C54.9515 93.221 55.1305 93.6458 55.1305 94.1442Z" fill="#569B51"/>
<path d="M71.8654 116.775C70.5427 117.587 68.9644 117.989 67.1399 117.989C64.6672 117.989 62.6766 117.168 61.1557 115.529C59.6796 113.938 58.9353 111.884 58.9353 109.366C58.9353 106.541 59.7435 104.254 61.373 102.516C62.993 100.775 65.172 99.9055 67.9133 99.9055C69.4117 99.9055 70.7408 100.199 71.9038 100.781V103.615C70.6163 102.711 69.2552 102.263 67.795 102.263C66.0377 102.263 64.6097 102.877 63.5009 104.101C62.3473 105.353 61.7628 107.027 61.7628 109.117C61.7628 111.123 62.2964 112.711 63.3572 113.884C64.4211 115.05 65.8366 115.635 67.6225 115.635C69.1305 115.635 70.5427 115.139 71.8654 114.152V116.775Z" fill="#569B51"/>
<path d="M71.8654 116.775C70.5427 117.587 68.9644 117.989 67.1399 117.989C64.6672 117.989 62.6766 117.168 61.1557 115.529C59.6796 113.938 58.9353 111.884 58.9353 109.366C58.9353 106.541 59.7435 104.254 61.373 102.516C62.993 100.775 65.172 99.9055 67.9133 99.9055C69.4117 99.9055 70.7408 100.199 71.9038 100.781V103.615C70.6163 102.711 69.2552 102.263 67.795 102.263C66.0377 102.263 64.6097 102.877 63.5009 104.101C62.3473 105.353 61.7628 107.027 61.7628 109.117C61.7628 111.123 62.2964 112.711 63.3572 113.884C64.4211 115.05 65.8366 115.635 67.6225 115.635C69.1305 115.635 70.5427 115.139 71.8654 114.152V116.775Z" fill="#569B51"/>
<path d="M85.0387 103.125C84.553 102.751 83.8535 102.569 82.93 102.569C81.8087 102.569 80.866 103.07 80.1025 104.083C79.2365 105.214 78.8053 106.78 78.8053 108.78V117.572H76.0448V100.326H78.8053V103.882H78.8718C79.2777 102.623 79.9039 101.655 80.741 100.968C81.5237 100.342 82.4088 100.025 83.3832 100.025C84.118 100.025 84.6645 100.105 85.0382 100.261V103.123L85.0387 103.125Z" fill="#569B51"/>
<path d="M85.0387 103.125C84.553 102.751 83.8535 102.569 82.93 102.569C81.8087 102.569 80.866 103.07 80.1025 104.083C79.2365 105.214 78.8053 106.78 78.8053 108.78V117.572H76.0448V100.326H78.8053V103.882H78.8718C79.2777 102.623 79.9039 101.655 80.741 100.968C81.5237 100.342 82.4088 100.025 83.3832 100.025C84.118 100.025 84.6645 100.105 85.0382 100.261V103.123L85.0387 103.125Z" fill="#569B51"/>
<path d="M100.424 108.981C100.424 106.773 99.9257 105.087 98.9289 103.93C97.9609 102.818 96.6093 102.262 94.8681 102.262C93.1522 102.262 91.7753 102.824 90.7463 103.949C89.6569 105.15 89.1138 106.847 89.1138 109.048C89.1138 111.112 89.6314 112.732 90.6762 113.889C91.7145 115.052 93.1139 115.633 94.8681 115.633C96.6829 115.633 98.0726 115.042 99.0247 113.866C99.9577 112.716 100.424 111.09 100.424 108.981ZM103.255 108.884C103.255 111.632 102.479 113.84 100.932 115.495C99.3795 117.156 97.29 117.987 94.6636 117.987C92.0757 117.987 90.0147 117.156 88.5036 115.495C87.0242 113.894 86.2799 111.779 86.2799 109.149C86.2799 106.149 87.12 103.836 88.807 102.194C90.3662 100.67 92.4524 99.9028 95.0662 99.9028C97.6381 99.9028 99.6479 100.705 101.095 102.293C102.53 103.89 103.255 106.088 103.255 108.884Z" fill="#569B51"/>
<path d="M100.424 108.981C100.424 106.773 99.9257 105.087 98.9289 103.93C97.9609 102.818 96.6093 102.262 94.8681 102.262C93.1522 102.262 91.7753 102.824 90.7463 103.949C89.6569 105.15 89.1138 106.847 89.1138 109.048C89.1138 111.112 89.6314 112.732 90.6762 113.889C91.7145 115.052 93.1139 115.633 94.8681 115.633C96.6829 115.633 98.0726 115.042 99.0247 113.866C99.9577 112.716 100.424 111.09 100.424 108.981ZM103.255 108.884C103.255 111.632 102.479 113.84 100.932 115.495C99.3795 117.156 97.29 117.987 94.6636 117.987C92.0757 117.987 90.0147 117.156 88.5036 115.495C87.0242 113.894 86.2799 111.779 86.2799 109.149C86.2799 106.149 87.12 103.836 88.807 102.194C90.3662 100.67 92.4524 99.9028 95.0662 99.9028C97.6381 99.9028 99.6479 100.705 101.095 102.293C102.53 103.89 103.255 106.088 103.255 108.884Z" fill="#569B51"/>
<path d="M116.945 112.959C116.945 114.371 116.418 115.541 115.361 116.474C114.207 117.483 112.623 117.988 110.629 117.988C108.996 117.988 107.565 117.646 106.351 116.95V113.982C107.702 115.081 109.194 115.634 110.833 115.634C113.019 115.634 114.115 114.828 114.115 113.224C114.115 112.55 113.874 111.991 113.389 111.56C112.904 111.119 111.961 110.592 110.559 109.975C109.114 109.342 108.086 108.694 107.479 108.02C106.75 107.221 106.383 106.183 106.383 104.905C106.383 103.473 106.955 102.281 108.086 101.333C109.22 100.38 110.677 99.9043 112.466 99.9043C113.837 99.9043 115.064 100.173 116.153 100.713V103.492C115.016 102.671 113.715 102.262 112.239 102.262C111.325 102.262 110.591 102.49 110.044 102.933C109.491 103.387 109.213 103.965 109.213 104.671C109.213 105.435 109.446 106.029 109.907 106.454C110.316 106.847 111.185 107.326 112.495 107.885C113.968 108.502 115.032 109.141 115.68 109.796C116.52 110.624 116.945 111.678 116.945 112.959Z" fill="#569B51"/>
<path d="M116.945 112.959C116.945 114.371 116.418 115.541 115.361 116.474C114.207 117.483 112.623 117.988 110.629 117.988C108.996 117.988 107.565 117.646 106.351 116.95V113.982C107.702 115.081 109.194 115.634 110.833 115.634C113.019 115.634 114.115 114.828 114.115 113.224C114.115 112.55 113.874 111.991 113.389 111.56C112.904 111.119 111.961 110.592 110.559 109.975C109.114 109.342 108.086 108.694 107.479 108.02C106.75 107.221 106.383 106.183 106.383 104.905C106.383 103.473 106.955 102.281 108.086 101.333C109.22 100.38 110.677 99.9043 112.466 99.9043C113.837 99.9043 115.064 100.173 116.153 100.713V103.492C115.016 102.671 113.715 102.262 112.239 102.262C111.325 102.262 110.591 102.49 110.044 102.933C109.491 103.387 109.213 103.965 109.213 104.671C109.213 105.435 109.446 106.029 109.907 106.454C110.316 106.847 111.185 107.326 112.495 107.885C113.968 108.502 115.032 109.141 115.68 109.796C116.52 110.624 116.945 111.678 116.945 112.959Z" fill="#569B51"/>
<path d="M133.816 108.981C133.816 106.773 133.318 105.087 132.318 103.93C131.353 102.818 129.998 102.262 128.26 102.262C126.544 102.262 125.167 102.824 124.132 103.949C123.046 105.15 122.506 106.847 122.506 109.048C122.506 111.112 123.023 112.732 124.058 113.889C125.11 115.052 126.509 115.633 128.26 115.633C130.078 115.633 131.464 115.042 132.417 113.866C133.35 112.716 133.816 111.09 133.816 108.981ZM136.653 108.884C136.653 111.632 135.871 113.84 134.321 115.495C132.774 117.156 130.685 117.987 128.059 117.987C125.468 117.987 123.407 117.156 121.895 115.495C120.416 113.894 119.672 111.779 119.672 109.149C119.672 106.149 120.518 103.836 122.196 102.194C123.755 100.67 125.845 99.9028 128.461 99.9028C131.033 99.9028 133.04 100.705 134.484 102.293C135.922 103.89 136.653 106.088 136.653 108.884Z" fill="#569B51"/>
<path d="M133.816 108.981C133.816 106.773 133.318 105.087 132.318 103.93C131.353 102.818 129.998 102.262 128.26 102.262C126.544 102.262 125.167 102.824 124.132 103.949C123.046 105.15 122.506 106.847 122.506 109.048C122.506 111.112 123.023 112.732 124.058 113.889C125.11 115.052 126.509 115.633 128.26 115.633C130.078 115.633 131.464 115.042 132.417 113.866C133.35 112.716 133.816 111.09 133.816 108.981ZM136.653 108.884C136.653 111.632 135.871 113.84 134.321 115.495C132.774 117.156 130.685 117.987 128.059 117.987C125.468 117.987 123.407 117.156 121.895 115.495C120.416 113.894 119.672 111.779 119.672 109.149C119.672 106.149 120.518 103.836 122.196 102.194C123.755 100.67 125.845 99.9028 128.461 99.9028C131.033 99.9028 133.04 100.705 134.484 102.293C135.922 103.89 136.653 106.088 136.653 108.884Z" fill="#569B51"/>
<path d="M148.818 94.4663C148.274 94.166 147.671 94.0126 146.984 94.0126C145.051 94.0126 144.092 95.2298 144.092 97.6678V100.326H148.134V102.665H144.092V117.573H141.328V102.665H138.395V100.326H141.328V97.5305C141.328 95.6324 141.91 94.1435 143.092 93.07C144.105 92.137 145.344 91.6738 146.817 91.6738C147.671 91.6738 148.335 91.7761 148.818 91.9742V94.4663Z" fill="#569B51"/>
<path d="M148.818 94.4663C148.274 94.166 147.671 94.0126 146.984 94.0126C145.051 94.0126 144.092 95.2298 144.092 97.6678V100.326H148.134V102.665H144.092V117.573H141.328V102.665H138.395V100.326H141.328V97.5305C141.328 95.6324 141.91 94.1435 143.092 93.07C144.105 92.137 145.344 91.6738 146.817 91.6738C147.671 91.6738 148.335 91.7761 148.818 91.9742V94.4663Z" fill="#569B51"/>
<path d="M159.713 117.399C159.061 117.773 158.192 117.958 157.119 117.958C154.109 117.958 152.604 116.262 152.604 112.869V102.667H149.646V100.325H152.604V96.1173C153.486 95.8392 154.403 95.5358 155.371 95.2227V100.325H159.713V102.667H155.371V112.399C155.371 113.556 155.56 114.383 155.956 114.862C156.355 115.358 157.007 115.601 157.927 115.601C158.614 115.601 159.208 115.417 159.713 115.045V117.399Z" fill="#569B51"/>
<path d="M159.713 117.399C159.061 117.773 158.192 117.958 157.119 117.958C154.109 117.958 152.604 116.262 152.604 112.869V102.667H149.646V100.325H152.604V96.1173C153.486 95.8392 154.403 95.5358 155.371 95.2227V100.325H159.713V102.667H155.371V112.399C155.371 113.556 155.56 114.383 155.956 114.862C156.355 115.358 157.007 115.601 157.927 115.601C158.614 115.601 159.208 115.417 159.713 115.045V117.399Z" fill="#569B51"/>
<path d="M10.48 184.885C10.48 186.236 9.99769 187.406 9.02308 188.393C8.05179 189.377 6.8727 189.873 5.48938 189.873C4.13775 189.873 2.98754 189.377 2.04514 188.393C1.10248 187.406 0.632935 186.236 0.632935 184.885C0.632935 183.495 1.10248 182.323 2.04514 181.351C2.98754 180.377 4.13775 179.894 5.48938 179.894C6.8727 179.894 8.05179 180.383 9.02308 181.37C9.99769 182.358 10.48 183.53 10.48 184.885Z" fill="#569B51"/>
<path d="M10.48 184.885C10.48 186.236 9.99769 187.406 9.02308 188.393C8.05179 189.377 6.8727 189.873 5.48938 189.873C4.13775 189.873 2.98754 189.377 2.04514 188.393C1.10248 187.406 0.632935 186.236 0.632935 184.885C0.632935 183.495 1.10248 182.323 2.04514 181.351C2.98754 180.377 4.13775 179.894 5.48938 179.894C6.8727 179.894 8.05179 180.383 9.02308 181.37C9.99769 182.358 10.48 183.53 10.48 184.885Z" fill="#569B51"/>
<path d="M72.29 188.857H63.2864L30.6046 138.385C29.8408 137.171 29.1827 135.851 28.6237 134.41H28.355C28.5876 135.762 28.7067 138.663 28.7067 143.107V188.857H21.2845V125.534H30.9177L62.6219 175.211C63.884 177.182 64.7464 178.594 65.1843 179.444H65.3606C65.0667 177.623 64.9136 174.517 64.9136 170.134V125.534H72.2908V188.857H72.29Z" fill="#569B51"/>
<path d="M72.29 188.857H63.2864L30.6046 138.385C29.8408 137.171 29.1827 135.851 28.6237 134.41H28.355C28.5876 135.762 28.7067 138.663 28.7067 143.107V188.857H21.2845V125.534H30.9177L62.6219 175.211C63.884 177.182 64.7464 178.594 65.1843 179.444H65.3606C65.0667 177.623 64.9136 174.517 64.9136 170.134V125.534H72.2908V188.857H72.29Z" fill="#569B51"/>
<path d="M119.872 188.857H86.3113V125.534H118.415V132.244H93.7271V153.309H116.603V160.022H93.7271V182.144H119.872V188.857Z" fill="#569B51"/>
<path d="M119.872 188.857H86.3113V125.534H118.415V132.244H93.7271V153.309H116.603V160.022H93.7271V182.144H119.872V188.857Z" fill="#569B51"/>
<path d="M170.777 132.245H152.537V188.858H145.118V132.245H126.843V125.532H170.777V132.245Z" fill="#569B51"/>
<path d="M170.777 132.245H152.537V188.858H145.118V132.245H126.843V125.532H170.777V132.245Z" fill="#569B51"/>
<path d="M69.7732 16.1629C76.9332 38.0583 79.6458 77.1177 100.583 77.1177C102.177 77.1177 103.787 76.9617 105.404 76.6543C86.3714 72.2165 84.1157 33.582 72.5017 13.5747C71.5911 14.4023 70.6869 15.265 69.7732 16.1629Z" fill="url(#paint0_linear_80:119)"/>
<path d="M72.5017 13.5749C84.1156 33.5821 86.3713 72.2166 105.404 76.6544C106.899 76.3797 108.398 75.9643 109.9 75.4403C92.8157 67.0693 88.0934 29.5533 74.9044 11.4917C74.1056 12.1565 73.3037 12.853 72.5017 13.5749Z" fill="url(#paint1_linear_80:119)"/>
<path d="M89.2354 1.67627C87.6443 1.67627 86.0307 1.83216 84.4109 2.13969C80.1743 2.93842 75.8707 4.76266 71.5319 7.52317C72.7171 8.69254 73.8448 10.0311 74.9056 11.4914C79.318 7.82988 83.7016 5.1238 88.0693 3.49741C89.7082 2.89038 91.341 2.43361 92.98 2.13329C91.7978 1.83266 90.5517 1.67627 89.2354 1.67627Z" fill="#569B51"/>
<path d="M89.2354 1.67627C87.6443 1.67627 86.0307 1.83216 84.4109 2.13969C80.1743 2.93842 75.8707 4.76266 71.5319 7.52317C72.7171 8.69254 73.8448 10.0311 74.9056 11.4914C79.318 7.82988 83.7016 5.1238 88.0693 3.49741C89.7082 2.89038 91.341 2.43361 92.98 2.13329C91.7978 1.83266 90.5517 1.67627 89.2354 1.67627Z" fill="#569B51"/>
<path d="M123.235 67.7241C124.983 66.3344 126.734 64.7975 128.488 63.1203C121.213 41.3268 118.609 1.7085 97.525 1.7085C96.017 1.7085 94.4962 1.84907 92.9785 2.1302C112.184 6.90691 114.644 48.6915 123.235 67.7241Z" fill="url(#paint2_linear_80:119)"/>
<path d="M92.9792 2.13151C91.797 1.8312 90.551 1.6748 89.2346 1.6748L97.5258 1.70518C96.0177 1.70518 94.4968 1.84575 92.9792 2.13025" fill="#569B51"/>
<path d="M92.9792 2.13151C91.797 1.8312 90.551 1.6748 89.2346 1.6748L97.5258 1.70518C96.0177 1.70518 94.4968 1.84575 92.9792 2.13025" fill="#569B51"/>
<path d="M122.867 72.3539C122.043 71.568 121.26 70.7053 120.49 69.7852C116.944 72.2964 113.41 74.2007 109.899 75.4403C111.148 76.0507 112.458 76.5045 113.848 76.7856C114.924 77.0054 116.04 77.1179 117.212 77.1179C121.152 77.1179 124.267 76.6514 126.919 75.3798C125.459 74.5905 124.12 73.5681 122.867 72.3539Z" fill="#569B51"/>
<path d="M122.867 72.3539C122.043 71.568 121.26 70.7053 120.49 69.7852C116.944 72.2964 113.41 74.2007 109.899 75.4403C111.148 76.0507 112.458 76.5045 113.848 76.7856C114.924 77.0054 116.04 77.1179 117.212 77.1179C121.152 77.1179 124.267 76.6514 126.919 75.3798C125.459 74.5905 124.12 73.5681 122.867 72.3539Z" fill="#569B51"/>
<path d="M88.0679 3.50071C105.27 12.4979 106.765 53.2409 120.491 69.7848C121.411 69.1363 122.322 68.4493 123.232 67.7238C114.641 48.6912 112.184 6.90324 92.9819 2.12988C91.3428 2.43659 89.7069 2.89058 88.0679 3.50071Z" fill="url(#paint3_linear_80:119)"/>
<path d="M74.9043 11.4916C88.0933 29.5532 92.8156 67.0693 109.899 75.4402C113.411 74.2005 116.944 72.2963 120.491 69.785C106.765 53.2412 105.27 12.4981 88.0678 3.50098C83.7002 5.12401 79.3166 7.83009 74.9043 11.4916Z" fill="url(#paint4_linear_80:119)"/>
<path d="M61.3347 15.6357C59.2675 20.3102 57.1556 26.4541 54.6028 34.4736C59.6797 27.3198 64.7406 21.1567 69.7728 16.1631C69.0795 14.0319 68.3351 12.067 67.5331 10.3159C65.4755 11.8912 63.4019 13.6645 61.3347 15.6357Z" fill="url(#paint5_linear_80:119)"/>
<path d="M69.3662 8.96777C68.7591 9.40227 68.1489 9.84651 67.5355 10.3161C68.3374 12.067 69.0786 14.032 69.772 16.163C70.6856 15.2683 71.5929 14.4026 72.5003 13.575C71.526 11.9007 70.4908 10.3544 69.3662 8.96777Z" fill="#569B51"/>
<path d="M69.3662 8.96777C68.7591 9.40227 68.1489 9.84651 67.5355 10.3161C68.3374 12.067 69.0786 14.032 69.772 16.163C70.6856 15.2683 71.5929 14.4026 72.5003 13.575C71.526 11.9007 70.4908 10.3544 69.3662 8.96777Z" fill="#569B51"/>
<path d="M71.5318 7.52295C70.8097 7.97997 70.091 8.46225 69.3656 8.96706C70.4902 10.3537 71.5254 11.9001 72.5031 13.5776C73.3052 12.8523 74.107 12.1526 74.9058 11.4912C73.845 10.0312 72.7173 8.69232 71.5318 7.52295Z" fill="#569B51"/>
<path d="M71.5318 7.52295C70.8097 7.97997 70.091 8.46225 69.3656 8.96706C70.4902 10.3537 71.5254 11.9001 72.5031 13.5776C73.3052 12.8523 74.107 12.1526 74.9058 11.4912C73.845 10.0312 72.7173 8.69232 71.5318 7.52295Z" fill="#569B51"/>
<path d="M188.865 0.00879747C179.136 37.5279 158.815 67.6634 141.779 75.2612H141.747C141.437 75.4018 141.131 75.5296 140.827 75.654C140.785 75.6794 140.747 75.6825 140.715 75.6977C140.626 75.7338 140.543 75.7616 140.453 75.7974C140.411 75.8227 140.373 75.831 140.335 75.8461C140.191 75.8974 140.051 75.9408 139.91 75.997C139.849 76.0223 139.792 76.0381 139.734 76.0584C139.67 76.0837 139.597 76.1071 139.523 76.1274C139.459 76.1527 139.392 76.1711 139.319 76.1989C139.258 76.2242 139.194 76.235 139.137 76.2603C139.012 76.2964 138.897 76.3268 138.773 76.3702C138.721 76.3702 138.674 76.398 138.619 76.4113C138.543 76.4366 138.456 76.455 138.373 76.4778C138.316 76.5031 138.268 76.5113 138.207 76.524C138.121 76.5493 138.025 76.5727 137.939 76.593C137.824 76.6184 137.721 76.6418 137.613 76.6646C138.383 76.9491 139.185 77.0927 140.051 77.0927C156.205 77.0927 172.493 48.1427 199.443 0H188.861L188.865 0.00879747Z" fill="url(#paint6_linear_80:119)"/>
<path d="M51.0946 3.19876C51.1048 3.19876 51.1174 3.17345 51.1238 3.17345C51.1364 3.17345 51.156 3.17345 51.1624 3.14813H51.1826C51.2721 3.11775 51.3552 3.08168 51.4446 3.04845C51.4674 3.04845 51.4794 3.04845 51.4958 3.02313C51.5186 3.02313 51.5408 2.99781 51.5631 2.99465C51.659 2.96427 51.7548 2.92819 51.8443 2.89497H51.8595C52.0736 2.83111 52.2716 2.75187 52.4793 2.67775C52.5084 2.67775 52.5369 2.65243 52.5718 2.65243C52.6582 2.62459 52.7477 2.59357 52.837 2.57319C52.8788 2.54788 52.9201 2.54788 52.9584 2.53459C53.0509 2.50674 53.1407 2.47573 53.2268 2.45535C53.2654 2.45535 53.3004 2.43003 53.329 2.4275C53.6262 2.34573 53.9201 2.26902 54.2172 2.19743C54.259 2.19743 54.2939 2.17212 54.3386 2.16959C54.4248 2.14427 54.5048 2.13098 54.5974 2.11832C54.636 2.093 54.6805 2.093 54.7253 2.07971C54.8114 2.0544 54.8945 2.05186 54.9872 2.03098H55.048C55.2269 1.9949 55.4091 1.96452 55.588 1.9313H55.6966C55.7827 1.90598 55.8595 1.90345 55.9458 1.88762C55.9933 1.88762 56.0417 1.86231 56.0864 1.86231C56.1662 1.86231 56.2462 1.83699 56.3259 1.82623C56.3677 1.82623 56.409 1.82623 56.4571 1.80092C56.6454 1.7756 56.8404 1.76547 57.0385 1.74965C56.4794 1.69585 55.9043 1.66016 55.3196 1.66016C37.1271 1.66016 12.0621 35.4155 0.770874 79.1299H2.94669C6.56027 72.6857 9.80642 66.5895 12.7746 60.8671C20.6823 29.9042 36.7884 8.78813 51.0958 3.19376" fill="url(#paint7_linear_80:119)"/>
<path d="M61.335 15.6357C63.4022 13.6645 65.4757 11.8912 67.5333 10.3162C67.0638 9.28738 66.5781 8.33523 66.0572 7.46289C64.3927 9.48213 62.8719 12.1468 61.335 15.6357Z" fill="#569B51"/>
<path d="M61.335 15.6357C63.4022 13.6645 65.4757 11.8912 67.5333 10.3162C67.0638 9.28738 66.5781 8.33523 66.0572 7.46289C64.3927 9.48213 62.8719 12.1468 61.335 15.6357Z" fill="#569B51"/>
<path d="M62.8294 3.45453C64.018 4.45136 65.0818 5.82212 66.0564 7.4644C66.3631 7.08738 66.6732 6.73902 66.9958 6.41314C65.6444 5.15117 64.1841 4.11598 62.5994 3.33643C62.6633 3.37187 62.7271 3.40035 62.7936 3.42845C62.7936 3.42845 62.8189 3.45377 62.8297 3.45377" fill="#569B51"/>
<path d="M62.8294 3.45453C64.018 4.45136 65.0818 5.82212 66.0564 7.4644C66.3631 7.08738 66.6732 6.73902 66.9958 6.41314C65.6444 5.15117 64.1841 4.11598 62.5994 3.33643C62.6633 3.37187 62.7271 3.40035 62.7936 3.42845C62.7936 3.42845 62.8189 3.45377 62.8297 3.45377" fill="#569B51"/>
<path d="M12.7738 60.8709C29.3624 28.9045 37.2222 8.67353 51.095 3.19727C36.7908 8.79518 20.6815 29.911 12.7738 60.8709Z" fill="url(#paint8_linear_80:119)"/>
<path d="M66.9946 6.4126C66.6721 6.74184 66.3654 7.0869 66.0553 7.46393C66.5762 8.33602 67.0616 9.28507 67.5347 10.317C68.1481 9.84741 68.7583 9.40317 69.3654 8.96867C68.6147 8.04209 67.8223 7.18272 66.9946 6.4126Z" fill="#569B51"/>
<path d="M66.9946 6.4126C66.6721 6.74184 66.3654 7.0869 66.0553 7.46393C66.5762 8.33602 67.0616 9.28507 67.5347 10.317C68.1481 9.84741 68.7583 9.40317 69.3654 8.96867C68.6147 8.04209 67.8223 7.18272 66.9946 6.4126Z" fill="#569B51"/>
<path d="M20.3045 78.9899C20.2022 79.0152 20.1 79.0152 20.0042 79.026H19.9466C19.8602 79.026 19.7708 79.0513 19.691 79.0513H19.6494C19.4418 79.0766 19.2372 79.0766 19.0391 79.0925H18.9752C35.7651 78.6227 43.4395 70.2164 47.248 58.0242C50.1427 48.7811 52.5198 40.9947 54.603 34.4609C47.5707 44.3592 40.5065 56.1583 33.404 69.3762C29.9789 75.7471 24.771 78.4084 20.3044 78.9774" fill="url(#paint9_linear_80:119)"/>
<path d="M20.3044 78.9838C24.7711 78.4148 29.979 75.7565 33.4041 69.3826C40.5066 56.1679 47.574 44.3655 54.5999 34.4673C57.1559 26.4445 59.2646 20.3039 61.335 15.6294C47.3312 28.9591 33.2731 51.1231 20.3044 78.9774" fill="url(#paint10_linear_80:119)"/>
<path d="M12.773 60.8716C9.80492 66.594 6.55878 72.6901 2.94507 79.1344H9.27455C10.1116 72.7346 11.3002 66.6321 12.773 60.8746" fill="#569B51"/>
<path d="M12.773 60.8716C9.80492 66.594 6.55878 72.6901 2.94507 79.1344H9.27455C10.1116 72.7346 11.3002 66.6321 12.773 60.8746" fill="#569B51"/>
<path d="M56.4562 1.81705C56.405 1.81705 56.3667 1.84236 56.322 1.84236C56.2453 1.86768 56.1653 1.86768 56.0856 1.87591C56.0381 1.87591 55.9931 1.87591 55.945 1.90122C55.8586 1.92654 55.7789 1.92907 55.6958 1.94489C55.6572 1.94489 55.6191 1.94489 55.5872 1.97021C55.4049 2.00059 55.2261 2.03414 55.0472 2.06477H54.9864C54.8939 2.09008 54.8106 2.10338 54.7245 2.11603C54.6795 2.14135 54.635 2.14135 54.5933 2.15148C54.5072 2.17679 54.4208 2.18755 54.3377 2.20274C54.2928 2.22806 54.258 2.22806 54.2163 2.23059C53.9192 2.30217 53.6252 2.37888 53.3281 2.46065C53.2964 2.46065 53.2642 2.48597 53.2259 2.49103C53.1364 2.51635 53.05 2.5423 52.9575 2.57027C52.9189 2.59559 52.8744 2.59559 52.836 2.60572C52.7466 2.63103 52.6571 2.65698 52.5708 2.68496C52.536 2.68496 52.507 2.71027 52.475 2.71027C52.2705 2.78692 52.0693 2.86363 51.8584 2.92755C51.769 2.9554 51.6731 2.99141 51.5772 3.02464C51.5386 3.04996 51.5036 3.05565 51.4591 3.07338C51.3696 3.10122 51.2802 3.1373 51.1971 3.17053C51.1655 3.19584 51.1333 3.19838 51.111 3.21167C37.2382 8.68793 29.3784 28.9189 12.7898 60.8853C11.3169 66.6427 10.1252 72.7452 9.29126 79.1448H10.1795C12.6812 79.1448 13.3873 79.1195 16.266 79.1195H16.413H16.8411H16.9881H17.0297H17.1767H17.2598H17.3173H17.4323H17.7902H18.148H18.4483H18.5281H19.0553C19.2534 79.0941 19.4578 79.0941 19.6655 79.0783H19.7039C19.7903 79.0783 19.8764 79.053 19.9595 79.053H20.02C20.1126 79.053 20.2181 79.0277 20.3204 79.0169C33.289 51.1627 47.3471 28.9986 61.3509 15.6689C62.8909 12.18 64.4086 9.51534 66.07 7.49939C65.0987 5.85717 64.0348 4.48331 62.8462 3.48622C62.8462 3.48622 62.8139 3.48622 62.8114 3.46091C62.7442 3.43306 62.6806 3.39952 62.6134 3.36635C62.5461 3.33027 62.4886 3.30243 62.4186 3.26667C62.3578 3.24135 62.2875 3.20781 62.2269 3.17464C62.1438 3.14933 62.0766 3.11325 62.0033 3.08002C61.9425 3.0547 61.8882 3.02876 61.8274 3.00338C61.7026 2.95464 61.5782 2.90369 61.46 2.85002C61.4055 2.8247 61.3546 2.81141 61.3033 2.79116C61.2171 2.76015 61.1179 2.71958 61.0285 2.68122C60.9836 2.65591 60.9326 2.65084 60.8815 2.63249C60.7507 2.58882 60.6228 2.54306 60.5013 2.50211H60.4696C60.3226 2.45338 60.1789 2.41781 60.0287 2.37686C59.9939 2.35154 59.9648 2.35154 59.9298 2.34648C59.7986 2.3104 59.6836 2.27489 59.5591 2.24167C59.5275 2.24167 59.4984 2.21635 59.473 2.21635C59.1727 2.13711 58.8627 2.07325 58.5496 2.01445C58.5174 2.01445 58.4858 1.98914 58.4538 1.98914C58.3196 1.96382 58.1886 1.9404 58.0545 1.92521C58.0222 1.89989 58.0032 1.89989 57.9747 1.89989C57.815 1.87458 57.6584 1.85622 57.5018 1.8385H57.4188C57.291 1.81319 57.1729 1.81065 57.0545 1.79736C56.8531 1.82268 56.6615 1.83344 56.473 1.85116" fill="url(#paint11_linear_80:119)"/>
<path d="M150.863 20.7797C147.671 31.0038 145.086 39.4387 142.837 46.3783C151.595 34.3267 160.221 19.1661 168.436 1.67041C158.854 4.67984 153.742 11.5686 150.863 20.7797Z" fill="url(#paint12_linear_80:119)"/>
<path d="M143.115 74.6222C142.668 74.8497 142.22 75.0662 141.78 75.2612C158.815 67.6634 179.136 37.5279 188.865 0.00878906H186.893C164.541 39.937 157.352 66.6666 143.115 74.6222Z" fill="url(#paint13_linear_80:119)"/>
<path d="M131.991 71.2677C135.697 66.7435 138.716 59.0532 142.838 46.3784C138.084 52.9091 133.298 58.5229 128.508 63.1012C128.508 63.1265 128.508 63.1265 128.483 63.1423C129.528 66.2735 130.675 69.037 131.982 71.2672" fill="#569B51"/>
<path d="M131.991 71.2677C135.697 66.7435 138.716 59.0532 142.838 46.3784C138.084 52.9091 133.298 58.5229 128.508 63.1012C128.508 63.1265 128.508 63.1265 128.483 63.1423C129.528 66.2735 130.675 69.037 131.982 71.2672" fill="#569B51"/>
<path d="M131.991 71.2676C130.729 72.8076 129.393 73.9803 127.908 74.8493C127.582 75.0385 127.253 75.2167 126.917 75.3797C128.486 76.2263 130.198 76.7919 132.115 77.0186C132.396 77.0465 132.674 77.0724 132.965 77.0928H133.016C133.147 77.0928 133.285 77.0928 133.425 77.1181H133.482H133.9H134.351H134.492H134.811C134.862 77.1181 134.916 77.1181 134.967 77.0928C135.067 77.0928 135.172 77.0928 135.274 77.0674H135.31H135.425C135.53 77.0674 135.645 77.0421 135.757 77.0314H135.782C135.816 77.0314 135.851 77.0061 135.885 77.0061C136.002 76.9807 136.125 76.97 136.24 76.9523H136.344C136.475 76.9269 136.609 76.9111 136.744 76.8858H136.769H136.807C137.076 76.8345 137.338 76.7836 137.603 76.7171C135.405 75.9119 133.564 74.0141 131.98 71.3111" fill="#569B51"/>
<path d="M131.991 71.2676C130.729 72.8076 129.393 73.9803 127.908 74.8493C127.582 75.0385 127.253 75.2167 126.917 75.3797C128.486 76.2263 130.198 76.7919 132.115 77.0186C132.396 77.0465 132.674 77.0724 132.965 77.0928H133.016C133.147 77.0928 133.285 77.0928 133.425 77.1181H133.482H133.9H134.351H134.492H134.811C134.862 77.1181 134.916 77.1181 134.967 77.0928C135.067 77.0928 135.172 77.0928 135.274 77.0674H135.31H135.425C135.53 77.0674 135.645 77.0421 135.757 77.0314H135.782C135.816 77.0314 135.851 77.0061 135.885 77.0061C136.002 76.9807 136.125 76.97 136.24 76.9523H136.344C136.475 76.9269 136.609 76.9111 136.744 76.8858H136.769H136.807C137.076 76.8345 137.338 76.7836 137.603 76.7171C135.405 75.9119 133.564 74.0141 131.98 71.3111" fill="#569B51"/>
<path d="M100.583 77.118C102.178 77.118 103.788 76.9621 105.405 76.6515C106.9 76.38 108.398 75.9644 109.9 75.4404C111.149 76.0508 112.459 76.5045 113.846 76.7857C114.922 77.0055 116.041 77.118 117.213 77.118H100.583Z" fill="#569B51"/>
<path d="M100.583 77.118C102.178 77.118 103.788 76.9621 105.405 76.6515C106.9 76.38 108.398 75.9644 109.9 75.4404C111.149 76.0508 112.459 76.5045 113.846 76.7857C114.922 77.0055 116.041 77.118 117.213 77.118H100.583Z" fill="#569B51"/>
<path d="M117.214 77.118C121.15 77.118 124.268 76.6515 126.917 75.3799C128.486 76.2265 130.198 76.7921 132.115 77.0191C132.396 77.0469 132.675 77.0729 132.965 77.0932H133.016C133.147 77.0932 133.285 77.0932 133.425 77.1185H133.484H133.903H117.202L117.214 77.118Z" fill="#569B51"/>
<path d="M117.214 77.118C121.15 77.118 124.268 76.6515 126.917 75.3799C128.486 76.2265 130.198 76.7921 132.115 77.0191C132.396 77.0469 132.675 77.0729 132.965 77.0932H133.016C133.147 77.0932 133.285 77.0932 133.425 77.1185H133.484H133.903H117.202L117.214 77.118Z" fill="#569B51"/>
<path d="M133.913 77.1179H134.367H134.507H134.824C134.877 77.1179 134.928 77.1179 134.979 77.0926C135.079 77.0926 135.184 77.0926 135.29 77.0673H135.323H135.441C135.545 77.0673 135.66 77.042 135.77 77.0319H135.798C135.831 77.0319 135.864 77.0065 135.897 77.0065C136.015 76.9812 136.138 76.9711 136.252 76.9527C136.291 76.9527 136.321 76.9527 136.362 76.9274C136.492 76.9021 136.627 76.8888 136.761 76.8636H136.787H136.825C137.094 76.8123 137.356 76.7613 137.621 76.6948C138.391 76.9791 139.193 77.123 140.058 77.123L133.918 77.1483L133.913 77.1179Z" fill="#569B51"/>
<path d="M133.913 77.1179H134.367H134.507H134.824C134.877 77.1179 134.928 77.1179 134.979 77.0926C135.079 77.0926 135.184 77.0926 135.29 77.0673H135.323H135.441C135.545 77.0673 135.66 77.042 135.77 77.0319H135.798C135.831 77.0319 135.864 77.0065 135.897 77.0065C136.015 76.9812 136.138 76.9711 136.252 76.9527C136.291 76.9527 136.321 76.9527 136.362 76.9274C136.492 76.9021 136.627 76.8888 136.761 76.8636H136.787H136.825C137.094 76.8123 137.356 76.7613 137.621 76.6948C138.391 76.9791 139.193 77.123 140.058 77.123L133.918 77.1483L133.913 77.1179Z" fill="#569B51"/>
<path d="M128.493 63.143V63.1177C126.739 64.795 124.988 66.3319 123.24 67.7216C122.327 68.447 121.416 69.1338 120.496 69.7826C121.266 70.7027 122.049 71.5653 122.873 72.3514C124.126 73.5652 125.464 74.5879 126.924 75.3769C127.257 75.2133 127.589 75.0349 127.912 74.8465C129.4 73.9775 130.736 72.805 131.998 71.265C130.691 69.0349 129.544 66.271 128.5 63.14" fill="#569B51"/>
<path d="M128.493 63.143V63.1177C126.739 64.795 124.988 66.3319 123.24 67.7216C122.327 68.447 121.416 69.1338 120.496 69.7826C121.266 70.7027 122.049 71.5653 122.873 72.3514C124.126 73.5652 125.464 74.5879 126.924 75.3769C127.257 75.2133 127.589 75.0349 127.912 74.8465C129.4 73.9775 130.736 72.805 131.998 71.265C130.691 69.0349 129.544 66.271 128.5 63.14" fill="#569B51"/>
<path d="M180.65 0.00878906H172.362H171.538H170.758H170.728C170.191 0.0341055 169.671 0.05246 169.156 0.0854979C168.913 0.606447 168.664 1.12733 168.424 1.65132C160.21 19.147 151.583 34.3076 142.826 46.3592C138.707 59.0338 135.685 66.7244 131.979 71.2485C133.563 73.9515 135.407 75.8524 137.599 76.6576C137.663 76.6323 137.714 76.6323 137.771 76.619H137.807C137.845 76.619 137.886 76.5937 137.928 76.5937C138.018 76.5684 138.113 76.5525 138.203 76.5247C138.26 76.4994 138.308 76.4968 138.366 76.4785C138.449 76.4532 138.535 76.4348 138.612 76.4146C138.663 76.3892 138.714 76.381 138.765 76.3709C138.893 76.3297 139.008 76.2993 139.129 76.2609C139.187 76.2356 139.248 76.2147 139.312 76.1996C139.382 76.1742 139.452 76.1559 139.516 76.1254C139.59 76.1001 139.663 76.0868 139.727 76.059C139.785 76.0337 139.845 76.0178 139.9 75.9951C140.043 75.9438 140.184 75.9005 140.328 75.8442C140.366 75.8442 140.404 75.8088 140.446 75.8006C140.532 75.7645 140.622 75.7366 140.708 75.6983C140.74 75.673 140.778 75.6704 140.82 75.6572C141.12 75.5319 141.43 75.4041 141.74 75.2643H141.772C142.213 75.0701 142.66 74.852 143.105 74.6253C157.345 66.6697 164.534 39.9401 186.886 0.0118903H180.643L180.65 0.00878906Z" fill="url(#paint14_linear_80:119)"/>
<path d="M57.0383 1.76323C57.0738 1.76323 57.1055 1.76323 57.1405 1.78854C57.2267 1.78854 57.3131 1.78854 57.3993 1.81639H57.4857C57.6422 1.84171 57.7988 1.855 57.9586 1.87778C57.9877 1.87778 58.013 1.87778 58.0383 1.9031C58.1692 1.92842 58.3035 1.9493 58.4377 1.96956C58.4668 1.96956 58.505 1.99487 58.5369 1.99487C58.8436 2.05627 59.1567 2.12013 59.4571 2.19937C59.4855 2.19937 59.5147 2.22468 59.5402 2.22468C59.668 2.25506 59.7829 2.29367 59.9107 2.32943C59.9493 2.32943 59.9777 2.35475 60.013 2.36044C60.1633 2.39905 60.3038 2.43715 60.4507 2.4857C60.4571 2.4857 60.4659 2.4857 60.483 2.51101C60.6074 2.54899 60.7353 2.59791 60.8664 2.64133C60.9176 2.66665 60.9653 2.6774 61.0133 2.69006C61.1028 2.72867 61.202 2.76671 61.2881 2.80253C61.3394 2.80253 61.3903 2.83797 61.4445 2.85633C61.5626 2.91013 61.6874 2.95854 61.8088 3.00968C61.8727 3.035 61.9269 3.06348 61.9877 3.08633C62.058 3.1224 62.1314 3.15538 62.2081 3.18095C62.2719 3.21133 62.3422 3.24481 62.4028 3.27291C62.47 3.30899 62.5337 3.33683 62.5978 3.37259C64.1826 4.15221 65.6427 5.19069 66.9942 6.44956C67.4926 5.92557 68.0134 5.45576 68.5534 5.03405C65.5979 2.9381 62.2496 1.74316 58.3868 1.74316C57.9395 1.74316 57.4922 1.76848 57.0385 1.80202" fill="#569B51"/>
<path d="M57.0383 1.76323C57.0738 1.76323 57.1055 1.76323 57.1405 1.78854C57.2267 1.78854 57.3131 1.78854 57.3993 1.81639H57.4857C57.6422 1.84171 57.7988 1.855 57.9586 1.87778C57.9877 1.87778 58.013 1.87778 58.0383 1.9031C58.1692 1.92842 58.3035 1.9493 58.4377 1.96956C58.4668 1.96956 58.505 1.99487 58.5369 1.99487C58.8436 2.05627 59.1567 2.12013 59.4571 2.19937C59.4855 2.19937 59.5147 2.22468 59.5402 2.22468C59.668 2.25506 59.7829 2.29367 59.9107 2.32943C59.9493 2.32943 59.9777 2.35475 60.013 2.36044C60.1633 2.39905 60.3038 2.43715 60.4507 2.4857C60.4571 2.4857 60.4659 2.4857 60.483 2.51101C60.6074 2.54899 60.7353 2.59791 60.8664 2.64133C60.9176 2.66665 60.9653 2.6774 61.0133 2.69006C61.1028 2.72867 61.202 2.76671 61.2881 2.80253C61.3394 2.80253 61.3903 2.83797 61.4445 2.85633C61.5626 2.91013 61.6874 2.95854 61.8088 3.00968C61.8727 3.035 61.9269 3.06348 61.9877 3.08633C62.058 3.1224 62.1314 3.15538 62.2081 3.18095C62.2719 3.21133 62.3422 3.24481 62.4028 3.27291C62.47 3.30899 62.5337 3.33683 62.5978 3.37259C64.1826 4.15221 65.6427 5.19069 66.9942 6.44956C67.4926 5.92557 68.0134 5.45576 68.5534 5.03405C65.5979 2.9381 62.2496 1.74316 58.3868 1.74316C57.9395 1.74316 57.4922 1.76848 57.0385 1.80202" fill="#569B51"/>
<path d="M66.9948 6.41258C67.8223 7.18245 68.6146 8.04207 69.3654 8.96865C70.0907 8.46384 70.8096 7.97815 71.5317 7.52448C70.5859 6.57872 69.5891 5.72884 68.5507 4.99707C68.0108 5.41574 67.4932 5.88859 66.9948 6.41258Z" fill="#569B51"/>
<path d="M57.0377 1.76272C57.4913 1.72438 57.9386 1.70841 58.3859 1.70841C62.2487 1.70841 65.5971 2.90335 68.5525 4.99609C71.6709 2.53592 75.441 1.67646 80.6777 1.67646H55.3187C55.9034 1.67646 56.4753 1.7116 57.0377 1.76272Z" fill="url(#paint15_linear_80:119)"/>
<path d="M80.6776 1.67654C75.441 1.67654 71.6708 2.536 68.5525 4.99617C69.5877 5.72783 70.5845 6.57771 71.5303 7.52344C75.8723 4.76293 80.1728 2.93538 84.4126 2.13662C86.0293 1.83309 87.6428 1.67654 89.2339 1.67654H80.6776Z" fill="url(#paint16_linear_80:119)"/>
<path d="M142.837 46.3846C145.089 39.4386 147.668 31.0071 150.866 20.7796C153.748 11.5652 158.851 4.67671 168.432 1.67032C168.685 1.15576 168.924 0.625378 169.171 0.104492C153.55 1.04076 146.249 8.98665 142.575 20.7541C136.15 41.2981 132.258 54.615 128.51 63.101C133.297 58.5257 138.083 52.9089 142.837 46.3846Z" fill="url(#paint17_linear_80:119)"/>
<path d="M165.754 71.6455H163.984V77.1474H163.262V71.6455H161.485V70.9907H165.754V71.6455Z" fill="#569B51"/>
<path d="M165.754 71.6455H163.984V77.1474H163.262V71.6455H161.485V70.9907H165.754V71.6455Z" fill="#569B51"/>
<path d="M173.002 77.1464H172.283V73.012C172.283 72.6861 172.308 72.2869 172.342 71.8171C172.268 72.0983 172.206 72.2933 172.15 72.4178L170.054 77.1464H169.703L167.6 72.453C167.539 72.3227 167.478 72.1111 167.411 71.8171H167.386C167.411 72.0651 167.419 72.4658 167.419 73.0218V77.1464H166.729V70.9897H167.681L169.569 75.2869C169.713 75.6097 169.802 75.8589 169.848 76.0251H169.875C170.001 75.6864 170.103 75.4339 170.173 75.2677L172.099 70.9897H173.007V77.1464H173.002Z" fill="#569B51"/>
<path d="M173.002 77.1464H172.283V73.012C172.283 72.6861 172.308 72.2869 172.342 71.8171C172.268 72.0983 172.206 72.2933 172.15 72.4178L170.054 77.1464H169.703L167.6 72.453C167.539 72.3227 167.478 72.1111 167.411 71.8171H167.386C167.411 72.0651 167.419 72.4658 167.419 73.0218V77.1464H166.729V70.9897H167.681L169.569 75.2869C169.713 75.6097 169.802 75.8589 169.848 76.0251H169.875C170.001 75.6864 170.103 75.4339 170.173 75.2677L172.099 70.9897H173.007V77.1464H173.002Z" fill="#569B51"/>
<defs>
<linearGradient id="paint0_linear_80:119" x1="87.5877" y1="1.17363" x2="87.5877" y2="95.9423" gradientUnits="userSpaceOnUse">
<stop stop-color="#569B51"/>
<stop offset="0.350006" stop-color="#569B51"/>
<stop offset="0.846161" stop-color="#569B51"/>
<stop offset="1" stop-color="#569B51"/>
</linearGradient>
<linearGradient id="paint1_linear_80:119" x1="91.2009" y1="-1.22558" x2="91.2009" y2="95.9583" gradientUnits="userSpaceOnUse">
<stop stop-color="#569B51"/>
<stop offset="0.360001" stop-color="#569B51"/>
<stop offset="0.846161" stop-color="#569B51"/>
<stop offset="1" stop-color="#569B51"/>
</linearGradient>
<linearGradient id="paint2_linear_80:119" x1="110.733" y1="74.9342" x2="110.733" y2="-2.39369" gradientUnits="userSpaceOnUse">
<stop stop-color="#569B51"/>
<stop offset="0.5" stop-color="#569B51"/>
<stop offset="1" stop-color="#569B51" stop-opacity="0.419608"/>
</linearGradient>
<linearGradient id="paint3_linear_80:119" x1="105.65" y1="-11.073" x2="105.65" y2="89.8291" gradientUnits="userSpaceOnUse">
<stop stop-color="#569B51"/>
<stop offset="0.399994" stop-color="#569B51"/>
<stop offset="0.846161" stop-color="#569B51"/>
<stop offset="1" stop-color="#569B51"/>
</linearGradient>
<linearGradient id="paint4_linear_80:119" x1="97.697" y1="-10.5424" x2="97.697" y2="96.7536" gradientUnits="userSpaceOnUse">
<stop stop-color="#569B51"/>
<stop offset="0.389999" stop-color="#569B51"/>
<stop offset="0.780228" stop-color="#569B51"/>
<stop offset="1" stop-color="#569B51"/>
</linearGradient>
<linearGradient id="paint5_linear_80:119" x1="54.6028" y1="22.3949" x2="69.7728" y2="22.3949" gradientUnits="userSpaceOnUse">
<stop stop-color="#569B51" stop-opacity="0.698039"/>
<stop offset="1" stop-color="#569B51"/>
</linearGradient>
<linearGradient id="paint6_linear_80:119" x1="168.534" y1="72.9963" x2="168.534" y2="-2.33173" gradientUnits="userSpaceOnUse">
<stop stop-color="#569B51"/>
<stop offset="0.6" stop-color="#569B51" stop-opacity="0.54902"/>
<stop offset="1" stop-color="#569B51" stop-opacity="0.235294"/>
</linearGradient>
<linearGradient id="paint7_linear_80:119" x1="0.770446" y1="40.3948" x2="57.0381" y2="40.3948" gradientUnits="userSpaceOnUse">
<stop stop-color="#569B51" stop-opacity="0.247059"/>
<stop offset="1" stop-color="#569B51"/>
</linearGradient>
<linearGradient id="paint8_linear_80:119" x1="31.9338" y1="74.8935" x2="31.9338" y2="-2.23638" gradientUnits="userSpaceOnUse">
<stop stop-color="#569B51"/>
<stop offset="1" stop-color="#569B51"/>
</linearGradient>
<linearGradient id="paint9_linear_80:119" x1="36.7886" y1="75.1649" x2="36.7886" y2="0.190441" gradientUnits="userSpaceOnUse">
<stop stop-color="#569B51"/>
<stop offset="1" stop-color="#569B51" stop-opacity="0.54902"/>
</linearGradient>
<linearGradient id="paint10_linear_80:119" x1="40.8198" y1="78.9904" x2="40.8198" y2="15.6359" gradientUnits="userSpaceOnUse">
<stop stop-color="#569B51"/>
<stop offset="0.5" stop-color="#569B51"/>
<stop offset="0.917587" stop-color="#569B51"/>
<stop offset="1" stop-color="#569B51"/>
</linearGradient>
<linearGradient id="paint11_linear_80:119" x1="43.2473" y1="74.9431" x2="21.7718" y2="9.31253" gradientUnits="userSpaceOnUse">
<stop stop-color="#569B51"/>
<stop offset="1" stop-color="#569B51"/>
</linearGradient>
<linearGradient id="paint12_linear_80:119" x1="155.635" y1="36.0947" x2="155.635" y2="0.195524" gradientUnits="userSpaceOnUse">
<stop stop-color="#569B51"/>
<stop offset="0.873627" stop-color="#569B51"/>
<stop offset="1" stop-color="#569B51"/>
</linearGradient>
<linearGradient id="paint13_linear_80:119" x1="172.509" y1="-3.12279" x2="139.051" y2="71.1637" gradientUnits="userSpaceOnUse">
<stop stop-color="#569B51" stop-opacity="0.329412"/>
<stop offset="0.961533" stop-color="#569B51"/>
<stop offset="1" stop-color="#569B51"/>
</linearGradient>
<linearGradient id="paint14_linear_80:119" x1="159.442" y1="-0.21792" x2="159.442" y2="78.1001" gradientUnits="userSpaceOnUse">
<stop stop-color="#569B51"/>
<stop offset="0.5" stop-color="#569B51"/>
<stop offset="1" stop-color="#569B51"/>
</linearGradient>
<linearGradient id="paint15_linear_80:119" x1="59.547" y1="-1.82791" x2="59.8864" y2="6.38589" gradientUnits="userSpaceOnUse">
<stop stop-color="#569B51"/>
<stop offset="0.703293" stop-color="#569B51"/>
<stop offset="1" stop-color="#569B51"/>
</linearGradient>
<linearGradient id="paint16_linear_80:119" x1="69.9775" y1="7.15506" x2="71.5115" y2="-1.54562" gradientUnits="userSpaceOnUse">
<stop stop-color="#569B51"/>
<stop offset="1" stop-color="#569B51"/>
</linearGradient>
<linearGradient id="paint17_linear_80:119" x1="148.839" y1="4.11285" x2="148.839" y2="80.7157" gradientUnits="userSpaceOnUse">
<stop stop-color="#569B51"/>
<stop offset="1" stop-color="#222222" stop-opacity="0"/>
</linearGradient>
</defs>
</svg>
