<svg width="200" height="258" viewBox="0 0 200 258" fill="none" xmlns="http://www.w3.org/2000/svg">
<path d="M59.7665 158.868C52.1498 152.876 44.0218 147.133 38.4688 139.042C26.7809 124.774 17.7845 108.257 11.6339 90.8975C7.91449 79.6085 6.642 67.506 1.84495 56.6552C-3.16657 48.7717 2.70811 40.1598 11.3423 37.6553C15.1833 36.9151 21.942 33.2885 13.7839 35.8832C6.46806 41.2479 5.76315 31.009 13.2634 30.3604C18.3822 29.6816 20.2667 25.4927 18.5143 21.7223C13.0176 18.1363 31.8382 14.2024 22.3671 8.85345C12.5075 -1.78819 36.1645 -3.83621 30.3264 8.25055C28.931 17.5438 46.8623 6.54386 42.6983 17.277C46.929 22.4324 58.5358 18.4528 58.2442 25.681C64.4053 26.1048 66.52 31.285 72.2979 31.6839C78.2955 34.391 89.1569 36.5214 91.1944 43.275C85.2491 47.9805 71.4858 33.554 70.8214 46.5811C72.6196 65.8294 72.1606 85.6571 79.2005 103.986C82.5302 115.083 90.6072 123.818 97.8969 132.462C104.875 140.926 114.327 146.889 123.962 151.905C132.411 155.89 141.52 158.531 150.731 160.192C154.465 157.335 161.06 146.715 166.884 151.19C167.165 156.228 155.324 161.714 166.328 161.157C172.795 159.206 177.276 166.153 182.598 159.884C187.503 165.694 202.982 156.175 199.493 168.049C194.773 171.094 187.891 169.254 183.166 173.444C175.375 169.55 169.173 176.923 160.545 175.993C150.967 177.709 141.218 178.399 131.508 178.413C115.573 177.157 99.3028 176.626 84.1453 171.078C75.604 168.596 67.272 163.732 59.7665 158.868ZM73.2225 164.702C81.5598 168.304 89.714 172.105 98.853 173.254C113.351 175.267 128.324 178.373 142.874 175.543C136.289 172.57 129.479 176.698 122.919 173.418C115.053 175.109 106.608 172.983 98.6071 171.936C89.5139 167.886 79.6962 165.101 71.1797 159.839C60.5329 155.952 76.6817 164.825 79.5575 165.546C86.2091 169.32 72.2417 163.609 70.2695 162.041C64.6969 158.914 63.9868 159.568 69.7189 162.741C70.8724 163.415 72.0128 164.126 73.2225 164.702ZM57.3549 153.489C65.4371 156.483 57.3196 147.808 53.6211 148.309C51.9811 145.463 47.3528 143.665 50.6171 142.137C44.7476 144.176 44.4664 134.387 41.7083 135.788C35.4962 133.826 39.2914 126.878 31.8892 122.608C31.2144 118.112 24.538 114.214 22.4129 107.435C21.4725 103.961 14.8668 93.9944 18.9236 103.271C22.3762 112.2 28.451 119.854 33.5083 127.491C37.4317 134.765 42.0705 142.373 49.2177 146.91C51.6293 149.223 53.9533 152.763 57.3549 153.489ZM34.0811 127.931C34.361 126.709 35.5576 130.571 34.0811 127.931V127.931ZM67.0366 157.075C68.8244 156.274 64.4615 156.064 67.0366 157.075V157.075ZM71.4191 158.675C70.9652 156.467 69.4168 159.911 71.4191 158.675V158.675ZM76.9118 160.963C79.5222 158.475 72.8812 159.394 76.9118 160.963V160.963ZM86.3215 166.209C87.9105 163.864 81.2381 165.326 86.3215 166.209V166.209ZM68.2528 153.612C72.3084 150.986 63.0059 153.576 68.2528 153.612V153.612ZM72.3698 155.665C72.2521 154.28 70.9038 156.288 72.3698 155.665V155.665ZM92.9521 168.513C96.2622 170.603 112.279 173.091 102.251 169.371C100.569 169.724 83.6549 164.585 92.9521 168.513ZM60.2778 143.062C59.9561 141.673 55.1382 141.524 60.2778 143.062V143.062ZM69.8562 148.652C72.3541 146.91 64.6812 147.307 69.8562 148.652V148.652ZM77.9176 153.591C81.4983 152.243 72.1148 152.238 77.9176 153.591V153.591ZM56.374 138.817C60.2569 141.795 72.0376 139.2 62.3206 137.04C57.9015 134.684 47.94 133.07 54.7301 138.46L56.374 138.817ZM83.379 155.298C84.998 152.544 76.5941 153.723 83.379 155.298V155.298ZM75.1738 148.778C84.6658 151.461 67.1896 142.77 72.8302 147.787L74.0818 148.355L75.1738 148.778ZM91.6247 158.286C100.616 158.373 83.5019 157.045 91.6247 158.286V158.286ZM52.9162 133.616C52.5631 131.94 50.6994 133.754 52.9162 133.616V133.616ZM106.833 166.817C107.073 163.793 103.9 169.07 106.833 166.817V166.817ZM68.262 143.011C67.7153 141.417 65.4528 142.944 68.262 143.011V143.011ZM53.7689 132.564C58.9295 132.253 46.6989 130.291 53.7689 132.564V132.564ZM36.5987 121.468C35.9552 118.991 30.9842 117.018 36.5987 121.468V121.468ZM81.6723 150.072C80.728 148.993 81.2276 150.306 81.6723 150.072V150.072ZM109.723 167.288C109.637 165.637 108.196 167.91 109.723 167.288V167.288ZM79.1901 147.507C79.6962 145.382 74.7867 146.863 79.1901 147.507V147.507ZM58.29 134.261C62.1323 133.851 52.1341 131.665 58.29 134.261V134.261ZM93.6426 156.228C99.6298 153.857 87.8085 155.073 93.6426 156.228V156.228ZM75.2562 143.747C82.1522 144.635 67.047 139.052 73.7391 143.246L75.2562 143.747ZM99.2257 158.485C105.668 154.639 103.543 167.502 110.154 159.573C116.672 154.813 104.524 165.458 112.555 160.422C118.368 156.534 126.95 162.266 132.371 164.131C136.268 163.941 140.059 167.502 144.059 165.335C151.752 163.261 129.01 162.261 134.971 158.587C127.931 160.636 122.731 156.145 119.267 151.635C111.369 149.81 102.24 145.774 98.2958 138.782C96.6872 136.161 100.616 139.154 96.9069 134.863C92.1504 130.633 89.7755 125.825 86.5818 120.682C82.7656 118.648 82.3157 112.656 81.9325 120.483C81.9639 115.542 77.3251 112.216 76.1912 113.596C76.1703 108.839 81.157 111.225 77.6678 107.705C76.9171 102.775 74.444 97.6366 73.7025 92.068C72.549 89.3857 73.539 83.6392 69.7594 89.7126C68.3849 96.134 69.3043 81.8252 71.4452 86.5399C74.2544 81.7285 70.433 82.2947 70.28 82.9591C72.1096 78.8984 71.44 73.1348 69.8 75.332C70.7756 71.0254 71.3432 59.4853 68.3444 61.5333C70.1623 57.0279 71.7931 40.9248 63.8939 47.0663C60.6963 47.1121 55.1538 48.2263 52.5382 49.5289C60.7473 54.0552 51.7104 51.1637 48.3637 50.4431C47.9295 54.632 44.6194 52.8233 40.4815 52.8638C47.0925 53.6812 37.263 59.6226 33.4782 57.3143C28.553 59.6644 37.7234 65.5391 33.575 67.357C34.0864 70.0903 26.0342 66.3669 26.6632 72.6915C21.8858 70.6775 26.0093 80.1905 28.4 76.972C36.528 79.1743 34.1217 84.1858 34.3257 88.9515C33.0022 91.7253 27.7866 82.4281 33.1657 82.8571C28.9205 75.965 28.4719 80.3644 24.9461 83.5672C24.1287 83.7974 33.9373 88.1236 27.7814 90.2593C33.197 91.0976 33.3553 95.8384 34.4591 98.8372C37.7129 102.228 37.0433 95.0917 40.9419 99.1694C38.4741 95.5363 27.8834 88.9358 36.4103 91.0518C36.3646 87.3991 34.8671 84.4513 37.4827 84.5219C40.0735 79.8374 34.7703 96.0777 40.6045 90.122C42.2183 89.4171 42.6224 85.4322 45.5244 90.4999C49.7382 94.6483 47.0467 97.651 41.1001 93.8505C42.1621 97.4627 49.0542 98.7496 47.7569 104.395C49.1301 109.361 51.0512 107.532 52.7265 107.245C54.0396 112.068 54.7863 108.523 54.8478 106.224C60.8598 107.512 59.45 111.067 61.3345 113.55C65.4777 115.419 55.4036 100.875 62.5155 109.177C69.9988 115.935 65.3247 118.755 58.6078 117.672C62.8581 117.33 64.2261 123.42 69.545 123.206C74.393 125.514 77.6782 134.373 69.32 130.684C66.4232 128.068 56.1595 124.844 64.5439 129.815C72.2783 133.401 78.4289 135.542 85.8926 140.044C91.231 143.855 93.5393 148.221 95.5625 149.086C91.0728 151.231 82.0358 147.374 88.7475 146.194C84.5586 145.433 79.8492 143.313 83.8589 148.529C87.271 151.38 95.9405 151.078 97.4994 151.399C96.1811 154.301 93.9186 154.532 97.5504 154.756C93.4988 156.917 98.853 157.254 99.2257 158.485ZM90.9394 135.083C88.4716 132.503 87.8334 127.676 90.5 131.874C91.8693 132.426 94.8785 139.768 90.9394 135.083ZM117.929 152.227C119.467 152.125 117.974 153.396 117.929 152.227V152.227ZM87.0474 128.759C86.9493 124.86 87.9354 131.767 87.0474 128.759V128.759ZM84.3651 125.152C81.259 119.159 88.2728 126.848 84.3651 125.152V125.152ZM51.8529 102.715C53.6773 102.228 52.7527 105.83 51.8529 102.715V102.715ZM77.7292 116.737C78.8474 112.533 79.0423 120.263 77.7292 116.737V116.737ZM59.45 104.027C58.1631 101.708 62.1428 106.204 59.45 104.027V104.027ZM75.1332 109.054C72.1959 102.474 77.2179 105.457 75.7871 110.131L75.1332 109.054ZM48.0838 91.0152C46.7708 88.8547 44.5998 82.5197 45.2995 80.5841C45.9273 83.7359 51.9968 94.1422 48.2722 84.896C44.1604 77.1459 53.1921 87.4083 54.122 89.3451C54.5562 91.2663 51.5822 88.8194 53.5949 93.33C49.9226 88.1956 51.4292 96.1654 48.0838 91.0152ZM39.7256 85.253C40.0683 80.231 41.6363 88.6965 39.7256 85.253V85.253ZM43.4856 86.5503C45.2786 82.7603 46.5249 91.8326 43.4856 86.5503V86.5503ZM34.4382 79.5523C31.3269 76.4554 29.0735 73.6057 34.5859 77.6311C36.7059 77.7122 29.8661 71.1483 35.0973 75.5464C40.594 76.5482 37.8097 84.5638 34.4382 79.5523ZM39.1894 79.4293C40.9981 77.6363 40.1494 81.1923 39.1894 79.4293V79.4293ZM42.1163 80.3644C39.3725 75.23 45.4421 82.5197 42.1163 80.3644V80.3644ZM36.3031 74.8115C27.2557 66.7541 47.6693 79.02 37.7796 76.3024L36.3031 74.8115ZM62.2291 89.8709C58.3109 87.526 61.1868 73.3454 62.526 83.0415C66.3317 81.8095 62.3154 88.053 65.1507 87.9916C64.7074 91.9294 63.4349 93.3457 62.2291 89.8709ZM71.8179 95.5415C72.2011 91.2663 72.6249 98.4645 71.8179 95.5415V95.5415ZM70.1531 93.8911C70.5821 92.068 70.1936 96.0424 70.1531 93.8911V93.8911ZM38.0752 72.1645C32.262 64.1437 54.9694 80.2768 41.7998 74.1981C40.4253 73.8358 38.7657 73.7077 38.0752 72.1645ZM56.5427 81.9534C55.9921 75.1999 57.7695 83.0716 56.5427 81.9534V81.9534ZM70.5611 90.9485C71.644 87.1022 70.6435 93.4935 70.5611 90.9485V90.9485ZM38.9697 69.1042C42.4236 68.364 53.2837 75.1685 43.3116 71.0463C42.2039 69.8196 39.8381 70.3767 38.9697 69.1042ZM68.6347 83.889C69.0035 76.9824 70.6998 79.7667 68.6504 84.8803L68.6347 83.889ZM41.5396 66.6991C42.9494 64.6341 37.7992 57.3653 42.2798 64.0927C44.2166 65.6306 47.8837 66.6677 44.6456 67.3164C49.7382 71.8074 43.4045 68.5327 41.5396 66.6991ZM67.1687 81.7337C68.1404 73.8659 68.0279 86.3411 67.1687 81.7337V81.7337ZM38.597 59.4343C39.6746 58.9739 39.1685 60.8689 38.597 59.4343V59.4343ZM45.2838 63.4139C47.0049 59.8017 48.4566 67.4393 45.2838 63.4139V63.4139ZM64.1398 73.9012C64.1241 72.5176 64.4968 75.9192 64.1398 73.9012V73.9012ZM63.0465 71.4857C60.4309 65.0277 65.4829 74.903 63.0465 71.4857V71.4857ZM61.4418 67.2497C61.0037 64.5831 62.934 70.6016 61.4418 67.2497V67.2497ZM64.0574 62.9993C62.2592 59.8371 66.3265 49.0529 66.7816 55.741C64.8852 60.9513 66.2349 63.8638 67.5519 56.8749C69.9948 51.3782 67.0261 67.731 64.0574 62.9993ZM66.7449 46.9643C67.527 46.0031 66.9189 48.123 66.7449 46.9643V46.9643ZM62.2552 135.41C61.192 134.48 62.3926 135.997 62.2552 135.41V135.41ZM71.5014 140.084C76.6451 141.408 76.6202 139.286 71.971 138.653C69.473 136.329 61.5804 133.862 68.6452 138.367C69.1108 139.553 70.5873 139.522 71.5014 140.084ZM53.2431 127.956C56.0732 130.072 63.9149 133.943 57.279 128.764C59.5167 126.163 52.9973 124.779 55.1591 123.037C49.6571 119.669 50.8158 119.971 54.6739 120.079C48.0629 117.12 55.6286 117.345 55.2715 115.828C52.7226 115.327 42.6067 111.332 48.5586 116.155C42.5099 113.074 47.1174 117.305 45.289 116.86C39.1018 115.174 50.7962 121.571 44.3082 119.982C47.8537 122.791 53.8565 127.185 45.8043 122.955C44.7476 124.482 51.5678 126.797 53.2431 127.956ZM62.9131 133.514C74.669 137.3 57.1456 128.88 62.9131 133.514V133.514ZM112.416 163.502C112.569 161.167 110.812 165.494 112.416 163.502V163.502ZM117.505 165.643C120.217 163.017 117.617 169.832 122 164.999C122.046 161.54 121.868 159.497 116.963 163.701C115.609 164.453 115.007 167.634 117.505 165.643ZM36.7373 114.919C35.9042 111.645 30.8979 111.659 36.7373 114.919V114.919ZM42.1673 118.479C40.1494 115.134 34.9691 115.45 42.1673 118.479V118.479ZM73.08 137.121C76.0997 139.803 86.9401 139.088 76.7431 137.453C75.2352 135.22 67.1595 135.757 73.08 137.121ZM115.568 163.364C120.212 159.466 111.068 165.101 115.568 163.364V163.364ZM125.229 170C125.259 168.749 123.227 170.547 125.229 170V170ZM125.245 168.248C130.388 162.802 120.263 168.57 125.245 168.248V168.248ZM23.3728 103.731C18.9903 97.4784 20.6499 94.6679 16.4205 89.5596C15.6175 85.6519 9.16607 76.7928 13.0843 86.1776C16.6703 91.6691 17.7335 100.17 23.3728 103.731ZM123.629 166.516C133.097 160.401 119.748 163.855 123.629 166.516V166.516ZM130.854 169.346C135.595 165.279 127.855 168.498 130.854 169.346V169.346ZM35.1274 108.006C36.4823 105.988 31.6238 107.746 35.1274 108.006V108.006ZM129.346 167.415C133.934 164.458 128.289 164.912 128.514 167.685L129.346 167.415ZM67.0824 128.17C66.9241 126.168 64.6564 128.339 67.0824 128.17V128.17ZM70.9286 130.383C69.7032 127.91 69.0493 130.771 70.9286 130.383V130.383ZM136.707 169.413C142.587 165.172 133.148 168.6 135.477 170.22L136.707 169.413ZM134.455 168.325C139.247 164.314 129.402 170.102 134.455 168.325V168.325ZM145.959 175.982C149.173 173.831 142.051 175.288 145.959 175.982V175.982ZM38.0752 106.551C42.3818 107.516 55.2964 117.161 47.6797 107.22C43.7772 106.065 46.1169 96.5276 42.1372 98.2134C44.8091 102.678 44.333 104.573 38.7238 101.764C31.68 98.3206 34.7651 103.466 36.1448 104.886C34.2642 105.315 38.6271 106.515 38.0752 106.551ZM18.4437 91.0466C19.214 87.8529 11.337 73.4932 14.7243 83.8484C15.9444 86.0194 15.8176 90.1311 18.4437 91.0466ZM54.479 113.264C52.257 111.409 54.3718 112.998 54.479 113.264V113.264ZM59.9404 114.536C59.9404 111.154 53.9023 113.162 59.9404 114.536V114.536ZM107.297 144.386C106.394 142.076 103.727 144.335 107.297 144.386V144.386ZM109.57 146.045C109.233 144.753 108.257 146.296 109.57 146.045V146.045ZM128.34 157.872C130.144 156.539 126.087 157.699 128.34 157.872V157.872ZM28.247 93.5497C33.4115 91.5514 22.7137 92.1242 28.247 93.5497V93.5497ZM103.128 140.722C103.068 137.381 99.8338 141.555 103.128 140.722V140.722ZM26.2081 88.7932C29.5234 87.6751 23.1374 88.0583 26.2081 88.7932V88.7932ZM35.8323 93.4569C35.776 92.3596 34.8161 93.8767 35.8323 93.4569V93.4569ZM153.255 165.464C157.52 164.6 167.242 167.634 168.81 164.335C163.63 164.207 150.895 160.677 150.292 165.172L151.426 165.351L153.255 165.464ZM38.8926 94.2285C38.9697 90.8413 36.2521 94.1016 38.8926 94.2285V94.2285ZM13.5852 76.6712C12.4356 70.2184 9.21184 75.6942 13.5852 76.6712V76.6712ZM19.6181 78.1882C19.6952 76.114 14.0952 76.3233 19.6181 78.1882V78.1882ZM23.0668 79.8845C22.0702 79.0762 22.2899 80.9006 23.0668 79.8845V79.8845ZM44.7725 93.8048C45.7952 92.8645 42.3517 93.1103 44.7725 93.8048V93.8048ZM20.7729 76.063C20.1857 71.1888 13.7787 75.332 20.7729 76.063V76.063ZM8.39446 68.0318C8.22052 65.7837 7.18866 68.8792 8.39446 68.0318V68.0318ZM10.2385 66.6429C9.93767 63.975 8.65471 66.979 10.2385 66.6429V66.6429ZM20.4054 72.7111C24.7068 71.0254 12.5729 69.2167 19.5265 72.3946L20.4054 72.7111ZM156.519 156.789C159.272 154.266 153.025 156.008 156.519 156.789V156.789ZM172.964 165.311C174.068 162.051 170.185 165.739 172.964 165.311V165.311ZM21.4464 67.3831C21.9015 64.2261 18.0343 68.0109 21.4464 67.3831V67.3831ZM6.97418 57.687C6.19734 53.2326 6.30458 45.4106 13.7382 48.0524C3.81713 50.0246 20.6094 60.389 18.4894 52.2047C22.6626 52.41 26.6528 49.7382 24.4609 53.7884C32.6857 52.8847 38.3825 45.7533 46.3261 46.755C52.5121 45.9324 59.2761 45.3138 65.9433 42.8212C71.4243 42.4275 76.7013 36.5267 73.6986 33.027C66.2244 32.394 58.3972 33.3291 50.1371 34.9743C40.9824 36.8746 32.6661 40.4906 23.429 42.0443C14.4221 43.2554 25.2377 45.3753 22.6574 45.85C17.9624 47.4796 28.2614 48.5781 22.0493 50.2992C18.2135 49.5695 14.2181 48.2512 15.8581 44.2048C7.23443 45.3295 -0.346933 48.9051 6.46806 57.6818L6.97418 57.687ZM27.7618 47.1016C29.7797 39.6536 38.5918 53.2326 31.0719 48.0929C30.1773 47.4181 28.6956 46.8714 27.7618 47.1016ZM28.1541 43.4895C31.0719 41.3185 29.7026 44.7109 28.1541 43.4895V43.4895ZM31.8579 43.5509C32.1246 40.1232 40.3442 45.3648 33.2127 44.7829L31.8579 43.5509ZM36.9256 41.5134C38.7801 39.3463 37.4631 43.4332 36.9256 41.5134V41.5134ZM38.2243 40.645C41.3094 36.9413 55.6796 38.2791 45.1609 40.2814C42.3412 38.1562 40.1807 41.533 38.2243 40.645ZM56.9822 37.7534C56.5179 27.6323 66.3055 41.3446 56.9822 37.7534V37.7534ZM62.3062 37.722C64.2523 32.6242 69.8615 35.674 63.2099 36.6954C63.3525 37.242 63.0112 39.3319 62.3062 37.722ZM19.3474 64.7675C25.1606 61.2063 13.1758 61.6771 19.3474 64.7675V64.7675ZM23.6487 65.9576C25.6876 63.7919 19.214 65.0788 23.6487 65.9576V65.9576ZM10.98 56.9716C14.3005 54.4175 7.04611 56.0013 10.98 56.9716V56.9716ZM182.67 164.381C182.767 161.417 180.131 165.713 182.67 164.381V164.381ZM165.224 152.472C165.72 149.065 162.981 152.769 165.224 152.472V152.472ZM187.467 165.53C192.111 165.546 201.541 164.084 191.437 164.089C189.848 164.335 182.196 164.284 187.467 165.53ZM27.4296 63.8677C31.1896 63.6127 33.3095 59.7246 26.6985 59.9443C16.4558 58.8876 35.7355 63.4545 25.3855 62.1466C23.9966 63.066 27.3472 64.1241 27.4296 63.8677ZM30.7397 65.5443C30.346 63.1327 29.5744 66.826 30.7397 65.5443V65.5443ZM34.6683 55.0714C36.2979 53.0482 32.4097 54.53 34.6683 55.0714V55.0714ZM22.1618 34.1713C28.8747 31.8931 38.0503 29.3285 41.2178 35.296C37.9941 31.4184 39.9153 27.597 42.9598 33.2729C47.2664 39.0102 49.4217 30.6625 46.6217 28.7361C49.8154 32.7 53.4419 34.5754 48.7574 28.9872C53.8513 22.8614 38.5656 29.7889 35.0921 29.7169C33.422 30.4676 17.8355 33.6914 22.1618 34.1713ZM26.0956 26.6423C29.9223 23.7559 39.332 28.3633 33.2938 23.7703C32.7014 23.2498 20.0732 27.2543 26.0956 26.6423ZM40.0473 27.219C44.5227 27.3315 38.117 21.2005 43.4503 23.9796C42.5766 21.1194 37.2382 20.5832 34.6278 19.4389C33.1513 22.0545 37.6305 27.2543 40.0473 27.219ZM28.5426 14.5542C30.091 12.4552 25.8249 15.6227 28.5426 14.5542V14.5542ZM34.2446 15.9182C41.4624 14.9635 32.4045 12.8122 32.7877 15.8424L34.2446 15.9182ZM23.5977 7.59142C18.5143 0.955597 33.1565 8.70567 27.9907 1.75728C23.6435 -1.70056 19.4703 5.65586 23.5977 7.59142ZM88.809 42.7139C91.1395 38.5852 79.1901 37.1453 87.2409 41.2518C87.9811 41.4977 87.8137 42.999 88.809 42.7139Z" fill="#569B51"/>
<path d="M59.7665 158.868C52.1498 152.876 44.0218 147.133 38.4688 139.042C26.7809 124.774 17.7845 108.257 11.6339 90.8975C7.91449 79.6085 6.642 67.506 1.84495 56.6552C-3.16657 48.7717 2.70811 40.1598 11.3423 37.6553C15.1833 36.9151 21.942 33.2885 13.7839 35.8832C6.46806 41.2479 5.76315 31.009 13.2634 30.3604C18.3822 29.6816 20.2667 25.4927 18.5143 21.7223C13.0176 18.1363 31.8382 14.2024 22.3671 8.85345C12.5075 -1.78819 36.1645 -3.83621 30.3264 8.25055C28.931 17.5438 46.8623 6.54386 42.6983 17.277C46.929 22.4324 58.5358 18.4528 58.2442 25.681C64.4053 26.1048 66.52 31.285 72.2979 31.6839C78.2955 34.391 89.1569 36.5214 91.1944 43.275C85.2491 47.9805 71.4858 33.554 70.8214 46.5811C72.6196 65.8294 72.1606 85.6571 79.2005 103.986C82.5302 115.083 90.6072 123.818 97.8969 132.462C104.875 140.926 114.327 146.889 123.962 151.905C132.411 155.89 141.52 158.531 150.731 160.192C154.465 157.335 161.06 146.715 166.884 151.19C167.165 156.228 155.324 161.714 166.328 161.157C172.795 159.206 177.276 166.153 182.598 159.884C187.503 165.694 202.982 156.175 199.493 168.049C194.773 171.094 187.891 169.254 183.166 173.444C175.375 169.55 169.173 176.923 160.545 175.993C150.967 177.709 141.218 178.399 131.508 178.413C115.573 177.157 99.3028 176.626 84.1453 171.078C75.604 168.596 67.272 163.732 59.7665 158.868ZM73.2225 164.702C81.5598 168.304 89.714 172.105 98.853 173.254C113.351 175.267 128.324 178.373 142.874 175.543C136.289 172.57 129.479 176.698 122.919 173.418C115.053 175.109 106.608 172.983 98.6071 171.936C89.5139 167.886 79.6962 165.101 71.1797 159.839C60.5329 155.952 76.6817 164.825 79.5575 165.546C86.2091 169.32 72.2417 163.609 70.2695 162.041C64.6969 158.914 63.9868 159.568 69.7189 162.741C70.8724 163.415 72.0128 164.126 73.2225 164.702ZM57.3549 153.489C65.4371 156.483 57.3196 147.808 53.6211 148.309C51.9811 145.463 47.3528 143.665 50.6171 142.137C44.7476 144.176 44.4664 134.387 41.7083 135.788C35.4962 133.826 39.2914 126.878 31.8892 122.608C31.2144 118.112 24.538 114.214 22.4129 107.435C21.4725 103.961 14.8668 93.9944 18.9236 103.271C22.3762 112.2 28.451 119.854 33.5083 127.491C37.4317 134.765 42.0705 142.373 49.2177 146.91C51.6293 149.223 53.9533 152.763 57.3549 153.489ZM34.0811 127.931C34.361 126.709 35.5576 130.571 34.0811 127.931V127.931ZM67.0366 157.075C68.8244 156.274 64.4615 156.064 67.0366 157.075V157.075ZM71.4191 158.675C70.9652 156.467 69.4168 159.911 71.4191 158.675V158.675ZM76.9118 160.963C79.5222 158.475 72.8812 159.394 76.9118 160.963V160.963ZM86.3215 166.209C87.9105 163.864 81.2381 165.326 86.3215 166.209V166.209ZM68.2528 153.612C72.3084 150.986 63.0059 153.576 68.2528 153.612V153.612ZM72.3698 155.665C72.2521 154.28 70.9038 156.288 72.3698 155.665V155.665ZM92.9521 168.513C96.2622 170.603 112.279 173.091 102.251 169.371C100.569 169.724 83.6549 164.585 92.9521 168.513ZM60.2778 143.062C59.9561 141.673 55.1382 141.524 60.2778 143.062V143.062ZM69.8562 148.652C72.3541 146.91 64.6812 147.307 69.8562 148.652V148.652ZM77.9176 153.591C81.4983 152.243 72.1148 152.238 77.9176 153.591V153.591ZM56.374 138.817C60.2569 141.795 72.0376 139.2 62.3206 137.04C57.9015 134.684 47.94 133.07 54.7301 138.46L56.374 138.817ZM83.379 155.298C84.998 152.544 76.5941 153.723 83.379 155.298V155.298ZM75.1738 148.778C84.6658 151.461 67.1896 142.77 72.8302 147.787L74.0818 148.355L75.1738 148.778ZM91.6247 158.286C100.616 158.373 83.5019 157.045 91.6247 158.286V158.286ZM52.9162 133.616C52.5631 131.94 50.6994 133.754 52.9162 133.616V133.616ZM106.833 166.817C107.073 163.793 103.9 169.07 106.833 166.817V166.817ZM68.262 143.011C67.7153 141.417 65.4528 142.944 68.262 143.011V143.011ZM53.7689 132.564C58.9295 132.253 46.6989 130.291 53.7689 132.564V132.564ZM36.5987 121.468C35.9552 118.991 30.9842 117.018 36.5987 121.468V121.468ZM81.6723 150.072C80.728 148.993 81.2276 150.306 81.6723 150.072V150.072ZM109.723 167.288C109.637 165.637 108.196 167.91 109.723 167.288V167.288ZM79.1901 147.507C79.6962 145.382 74.7867 146.863 79.1901 147.507V147.507ZM58.29 134.261C62.1323 133.851 52.1341 131.665 58.29 134.261V134.261ZM93.6426 156.228C99.6298 153.857 87.8085 155.073 93.6426 156.228V156.228ZM75.2562 143.747C82.1522 144.635 67.047 139.052 73.7391 143.246L75.2562 143.747ZM99.2257 158.485C105.668 154.639 103.543 167.502 110.154 159.573C116.672 154.813 104.524 165.458 112.555 160.422C118.368 156.534 126.95 162.266 132.371 164.131C136.268 163.941 140.059 167.502 144.059 165.335C151.752 163.261 129.01 162.261 134.971 158.587C127.931 160.636 122.731 156.145 119.267 151.635C111.369 149.81 102.24 145.774 98.2958 138.782C96.6872 136.161 100.616 139.154 96.9069 134.863C92.1504 130.633 89.7755 125.825 86.5818 120.682C82.7656 118.648 82.3157 112.656 81.9325 120.483C81.9639 115.542 77.3251 112.216 76.1912 113.596C76.1703 108.839 81.157 111.225 77.6678 107.705C76.9171 102.775 74.444 97.6366 73.7025 92.068C72.549 89.3857 73.539 83.6392 69.7594 89.7126C68.3849 96.134 69.3043 81.8252 71.4452 86.5399C74.2544 81.7285 70.433 82.2947 70.28 82.9591C72.1096 78.8984 71.44 73.1348 69.8 75.332C70.7756 71.0254 71.3432 59.4853 68.3444 61.5333C70.1623 57.0279 71.7931 40.9248 63.8939 47.0663C60.6963 47.1121 55.1538 48.2263 52.5382 49.5289C60.7473 54.0552 51.7104 51.1637 48.3637 50.4431C47.9295 54.632 44.6194 52.8233 40.4815 52.8638C47.0925 53.6812 37.263 59.6226 33.4782 57.3143C28.553 59.6644 37.7234 65.5391 33.575 67.357C34.0864 70.0903 26.0342 66.3669 26.6632 72.6915C21.8858 70.6775 26.0093 80.1905 28.4 76.972C36.528 79.1743 34.1217 84.1858 34.3257 88.9515C33.0022 91.7253 27.7866 82.4281 33.1657 82.8571C28.9205 75.965 28.4719 80.3644 24.9461 83.5672C24.1287 83.7974 33.9373 88.1236 27.7814 90.2593C33.197 91.0976 33.3553 95.8384 34.4591 98.8372C37.7129 102.228 37.0433 95.0917 40.9419 99.1694C38.4741 95.5363 27.8834 88.9358 36.4103 91.0518C36.3646 87.3991 34.8671 84.4513 37.4827 84.5219C40.0735 79.8374 34.7703 96.0777 40.6045 90.122C42.2183 89.4171 42.6224 85.4322 45.5244 90.4999C49.7382 94.6483 47.0467 97.651 41.1001 93.8505C42.1621 97.4627 49.0542 98.7496 47.7569 104.395C49.1301 109.361 51.0512 107.532 52.7265 107.245C54.0396 112.068 54.7863 108.523 54.8478 106.224C60.8598 107.512 59.45 111.067 61.3345 113.55C65.4777 115.419 55.4036 100.875 62.5155 109.177C69.9988 115.935 65.3247 118.755 58.6078 117.672C62.8581 117.33 64.2261 123.42 69.545 123.206C74.393 125.514 77.6782 134.373 69.32 130.684C66.4232 128.068 56.1595 124.844 64.5439 129.815C72.2783 133.401 78.4289 135.542 85.8926 140.044C91.231 143.855 93.5393 148.221 95.5625 149.086C91.0728 151.231 82.0358 147.374 88.7475 146.194C84.5586 145.433 79.8492 143.313 83.8589 148.529C87.271 151.38 95.9405 151.078 97.4994 151.399C96.1811 154.301 93.9186 154.532 97.5504 154.756C93.4988 156.917 98.853 157.254 99.2257 158.485ZM90.9394 135.083C88.4716 132.503 87.8334 127.676 90.5 131.874C91.8693 132.426 94.8785 139.768 90.9394 135.083ZM117.929 152.227C119.467 152.125 117.974 153.396 117.929 152.227V152.227ZM87.0474 128.759C86.9493 124.86 87.9354 131.767 87.0474 128.759V128.759ZM84.3651 125.152C81.259 119.159 88.2728 126.848 84.3651 125.152V125.152ZM51.8529 102.715C53.6773 102.228 52.7527 105.83 51.8529 102.715V102.715ZM77.7292 116.737C78.8474 112.533 79.0423 120.263 77.7292 116.737V116.737ZM59.45 104.027C58.1631 101.708 62.1428 106.204 59.45 104.027V104.027ZM75.1332 109.054C72.1959 102.474 77.2179 105.457 75.7871 110.131L75.1332 109.054ZM48.0838 91.0152C46.7708 88.8547 44.5998 82.5197 45.2995 80.5841C45.9273 83.7359 51.9968 94.1422 48.2722 84.896C44.1604 77.1459 53.1921 87.4083 54.122 89.3451C54.5562 91.2663 51.5822 88.8194 53.5949 93.33C49.9226 88.1956 51.4292 96.1654 48.0838 91.0152ZM39.7256 85.253C40.0683 80.231 41.6363 88.6965 39.7256 85.253V85.253ZM43.4856 86.5503C45.2786 82.7603 46.5249 91.8326 43.4856 86.5503V86.5503ZM34.4382 79.5523C31.3269 76.4554 29.0735 73.6057 34.5859 77.6311C36.7059 77.7122 29.8661 71.1483 35.0973 75.5464C40.594 76.5482 37.8097 84.5638 34.4382 79.5523ZM39.1894 79.4293C40.9981 77.6363 40.1494 81.1923 39.1894 79.4293V79.4293ZM42.1163 80.3644C39.3725 75.23 45.4421 82.5197 42.1163 80.3644V80.3644ZM36.3031 74.8115C27.2557 66.7541 47.6693 79.02 37.7796 76.3024L36.3031 74.8115ZM62.2291 89.8709C58.3109 87.526 61.1868 73.3454 62.526 83.0415C66.3317 81.8095 62.3154 88.053 65.1507 87.9916C64.7074 91.9294 63.4349 93.3457 62.2291 89.8709ZM71.8179 95.5415C72.2011 91.2663 72.6249 98.4645 71.8179 95.5415V95.5415ZM70.1531 93.8911C70.5821 92.068 70.1936 96.0424 70.1531 93.8911V93.8911ZM38.0752 72.1645C32.262 64.1437 54.9694 80.2768 41.7998 74.1981C40.4253 73.8358 38.7657 73.7077 38.0752 72.1645ZM56.5427 81.9534C55.9921 75.1999 57.7695 83.0716 56.5427 81.9534V81.9534ZM70.5611 90.9485C71.644 87.1022 70.6435 93.4935 70.5611 90.9485V90.9485ZM38.9697 69.1042C42.4236 68.364 53.2837 75.1685 43.3116 71.0463C42.2039 69.8196 39.8381 70.3767 38.9697 69.1042ZM68.6347 83.889C69.0035 76.9824 70.6998 79.7667 68.6504 84.8803L68.6347 83.889ZM41.5396 66.6991C42.9494 64.6341 37.7992 57.3653 42.2798 64.0927C44.2166 65.6306 47.8837 66.6677 44.6456 67.3164C49.7382 71.8074 43.4045 68.5327 41.5396 66.6991ZM67.1687 81.7337C68.1404 73.8659 68.0279 86.3411 67.1687 81.7337V81.7337ZM38.597 59.4343C39.6746 58.9739 39.1685 60.8689 38.597 59.4343V59.4343ZM45.2838 63.4139C47.0049 59.8017 48.4566 67.4393 45.2838 63.4139V63.4139ZM64.1398 73.9012C64.1241 72.5176 64.4968 75.9192 64.1398 73.9012V73.9012ZM63.0465 71.4857C60.4309 65.0277 65.4829 74.903 63.0465 71.4857V71.4857ZM61.4418 67.2497C61.0037 64.5831 62.934 70.6016 61.4418 67.2497V67.2497ZM64.0574 62.9993C62.2592 59.8371 66.3265 49.0529 66.7816 55.741C64.8852 60.9513 66.2349 63.8638 67.5519 56.8749C69.9948 51.3782 67.0261 67.731 64.0574 62.9993ZM66.7449 46.9643C67.527 46.0031 66.9189 48.123 66.7449 46.9643V46.9643ZM62.2552 135.41C61.192 134.48 62.3926 135.997 62.2552 135.41V135.41ZM71.5014 140.084C76.6451 141.408 76.6202 139.286 71.971 138.653C69.473 136.329 61.5804 133.862 68.6452 138.367C69.1108 139.553 70.5873 139.522 71.5014 140.084ZM53.2431 127.956C56.0732 130.072 63.9149 133.943 57.279 128.764C59.5167 126.163 52.9973 124.779 55.1591 123.037C49.6571 119.669 50.8158 119.971 54.6739 120.079C48.0629 117.12 55.6286 117.345 55.2715 115.828C52.7226 115.327 42.6067 111.332 48.5586 116.155C42.5099 113.074 47.1174 117.305 45.289 116.86C39.1018 115.174 50.7962 121.571 44.3082 119.982C47.8537 122.791 53.8565 127.185 45.8043 122.955C44.7476 124.482 51.5678 126.797 53.2431 127.956ZM62.9131 133.514C74.669 137.3 57.1456 128.88 62.9131 133.514V133.514ZM112.416 163.502C112.569 161.167 110.812 165.494 112.416 163.502V163.502ZM117.505 165.643C120.217 163.017 117.617 169.832 122 164.999C122.046 161.54 121.868 159.497 116.963 163.701C115.609 164.453 115.007 167.634 117.505 165.643ZM36.7373 114.919C35.9042 111.645 30.8979 111.659 36.7373 114.919V114.919ZM42.1673 118.479C40.1494 115.134 34.9691 115.45 42.1673 118.479V118.479ZM73.08 137.121C76.0997 139.803 86.9401 139.088 76.7431 137.453C75.2352 135.22 67.1595 135.757 73.08 137.121ZM115.568 163.364C120.212 159.466 111.068 165.101 115.568 163.364V163.364ZM125.229 170C125.259 168.749 123.227 170.547 125.229 170V170ZM125.245 168.248C130.388 162.802 120.263 168.57 125.245 168.248V168.248ZM23.3728 103.731C18.9903 97.4784 20.6499 94.6679 16.4205 89.5596C15.6175 85.6519 9.16607 76.7928 13.0843 86.1776C16.6703 91.6691 17.7335 100.17 23.3728 103.731ZM123.629 166.516C133.097 160.401 119.748 163.855 123.629 166.516V166.516ZM130.854 169.346C135.595 165.279 127.855 168.498 130.854 169.346V169.346ZM35.1274 108.006C36.4823 105.988 31.6238 107.746 35.1274 108.006V108.006ZM129.346 167.415C133.934 164.458 128.289 164.912 128.514 167.685L129.346 167.415ZM67.0824 128.17C66.9241 126.168 64.6564 128.339 67.0824 128.17V128.17ZM70.9286 130.383C69.7032 127.91 69.0493 130.771 70.9286 130.383V130.383ZM136.707 169.413C142.587 165.172 133.148 168.6 135.477 170.22L136.707 169.413ZM134.455 168.325C139.247 164.314 129.402 170.102 134.455 168.325V168.325ZM145.959 175.982C149.173 173.831 142.051 175.288 145.959 175.982V175.982ZM38.0752 106.551C42.3818 107.516 55.2964 117.161 47.6797 107.22C43.7772 106.065 46.1169 96.5276 42.1372 98.2134C44.8091 102.678 44.333 104.573 38.7238 101.764C31.68 98.3206 34.7651 103.466 36.1448 104.886C34.2642 105.315 38.6271 106.515 38.0752 106.551ZM18.4437 91.0466C19.214 87.8529 11.337 73.4932 14.7243 83.8484C15.9444 86.0194 15.8176 90.1311 18.4437 91.0466ZM54.479 113.264C52.257 111.409 54.3718 112.998 54.479 113.264V113.264ZM59.9404 114.536C59.9404 111.154 53.9023 113.162 59.9404 114.536V114.536ZM107.297 144.386C106.394 142.076 103.727 144.335 107.297 144.386V144.386ZM109.57 146.045C109.233 144.753 108.257 146.296 109.57 146.045V146.045ZM128.34 157.872C130.144 156.539 126.087 157.699 128.34 157.872V157.872ZM28.247 93.5497C33.4115 91.5514 22.7137 92.1242 28.247 93.5497V93.5497ZM103.128 140.722C103.068 137.381 99.8338 141.555 103.128 140.722V140.722ZM26.2081 88.7932C29.5234 87.6751 23.1374 88.0583 26.2081 88.7932V88.7932ZM35.8323 93.4569C35.776 92.3596 34.8161 93.8767 35.8323 93.4569V93.4569ZM153.255 165.464C157.52 164.6 167.242 167.634 168.81 164.335C163.63 164.207 150.895 160.677 150.292 165.172L151.426 165.351L153.255 165.464ZM38.8926 94.2285C38.9697 90.8413 36.2521 94.1016 38.8926 94.2285V94.2285ZM13.5852 76.6712C12.4356 70.2184 9.21184 75.6942 13.5852 76.6712V76.6712ZM19.6181 78.1882C19.6952 76.114 14.0952 76.3233 19.6181 78.1882V78.1882ZM23.0668 79.8845C22.0702 79.0762 22.2899 80.9006 23.0668 79.8845V79.8845ZM44.7725 93.8048C45.7952 92.8645 42.3517 93.1103 44.7725 93.8048V93.8048ZM20.7729 76.063C20.1857 71.1888 13.7787 75.332 20.7729 76.063V76.063ZM8.39446 68.0318C8.22052 65.7837 7.18866 68.8792 8.39446 68.0318V68.0318ZM10.2385 66.6429C9.93767 63.975 8.65471 66.979 10.2385 66.6429V66.6429ZM20.4054 72.7111C24.7068 71.0254 12.5729 69.2167 19.5265 72.3946L20.4054 72.7111ZM156.519 156.789C159.272 154.266 153.025 156.008 156.519 156.789V156.789ZM172.964 165.311C174.068 162.051 170.185 165.739 172.964 165.311V165.311ZM21.4464 67.3831C21.9015 64.2261 18.0343 68.0109 21.4464 67.3831V67.3831ZM6.97418 57.687C6.19734 53.2326 6.30458 45.4106 13.7382 48.0524C3.81713 50.0246 20.6094 60.389 18.4894 52.2047C22.6626 52.41 26.6528 49.7382 24.4609 53.7884C32.6857 52.8847 38.3825 45.7533 46.3261 46.755C52.5121 45.9324 59.2761 45.3138 65.9433 42.8212C71.4243 42.4275 76.7013 36.5267 73.6986 33.027C66.2244 32.394 58.3972 33.3291 50.1371 34.9743C40.9824 36.8746 32.6661 40.4906 23.429 42.0443C14.4221 43.2554 25.2377 45.3753 22.6574 45.85C17.9624 47.4796 28.2614 48.5781 22.0493 50.2992C18.2135 49.5695 14.2181 48.2512 15.8581 44.2048C7.23443 45.3295 -0.346933 48.9051 6.46806 57.6818L6.97418 57.687ZM27.7618 47.1016C29.7797 39.6536 38.5918 53.2326 31.0719 48.0929C30.1773 47.4181 28.6956 46.8714 27.7618 47.1016ZM28.1541 43.4895C31.0719 41.3185 29.7026 44.7109 28.1541 43.4895V43.4895ZM31.8579 43.5509C32.1246 40.1232 40.3442 45.3648 33.2127 44.7829L31.8579 43.5509ZM36.9256 41.5134C38.7801 39.3463 37.4631 43.4332 36.9256 41.5134V41.5134ZM38.2243 40.645C41.3094 36.9413 55.6796 38.2791 45.1609 40.2814C42.3412 38.1562 40.1807 41.533 38.2243 40.645ZM56.9822 37.7534C56.5179 27.6323 66.3055 41.3446 56.9822 37.7534V37.7534ZM62.3062 37.722C64.2523 32.6242 69.8615 35.674 63.2099 36.6954C63.3525 37.242 63.0112 39.3319 62.3062 37.722ZM19.3474 64.7675C25.1606 61.2063 13.1758 61.6771 19.3474 64.7675V64.7675ZM23.6487 65.9576C25.6876 63.7919 19.214 65.0788 23.6487 65.9576V65.9576ZM10.98 56.9716C14.3005 54.4175 7.04611 56.0013 10.98 56.9716V56.9716ZM182.67 164.381C182.767 161.417 180.131 165.713 182.67 164.381V164.381ZM165.224 152.472C165.72 149.065 162.981 152.769 165.224 152.472V152.472ZM187.467 165.53C192.111 165.546 201.541 164.084 191.437 164.089C189.848 164.335 182.196 164.284 187.467 165.53ZM27.4296 63.8677C31.1896 63.6127 33.3095 59.7246 26.6985 59.9443C16.4558 58.8876 35.7355 63.4545 25.3855 62.1466C23.9966 63.066 27.3472 64.1241 27.4296 63.8677ZM30.7397 65.5443C30.346 63.1327 29.5744 66.826 30.7397 65.5443V65.5443ZM34.6683 55.0714C36.2979 53.0482 32.4097 54.53 34.6683 55.0714V55.0714ZM22.1618 34.1713C28.8747 31.8931 38.0503 29.3285 41.2178 35.296C37.9941 31.4184 39.9153 27.597 42.9598 33.2729C47.2664 39.0102 49.4217 30.6625 46.6217 28.7361C49.8154 32.7 53.4419 34.5754 48.7574 28.9872C53.8513 22.8614 38.5656 29.7889 35.0921 29.7169C33.422 30.4676 17.8355 33.6914 22.1618 34.1713ZM26.0956 26.6423C29.9223 23.7559 39.332 28.3633 33.2938 23.7703C32.7014 23.2498 20.0732 27.2543 26.0956 26.6423ZM40.0473 27.219C44.5227 27.3315 38.117 21.2005 43.4503 23.9796C42.5766 21.1194 37.2382 20.5832 34.6278 19.4389C33.1513 22.0545 37.6305 27.2543 40.0473 27.219ZM28.5426 14.5542C30.091 12.4552 25.8249 15.6227 28.5426 14.5542V14.5542ZM34.2446 15.9182C41.4624 14.9635 32.4045 12.8122 32.7877 15.8424L34.2446 15.9182ZM23.5977 7.59142C18.5143 0.955597 33.1565 8.70567 27.9907 1.75728C23.6435 -1.70056 19.4703 5.65586 23.5977 7.59142ZM88.809 42.7139C91.1395 38.5852 79.1901 37.1453 87.2409 41.2518C87.9811 41.4977 87.8137 42.999 88.809 42.7139Z" fill="#569B51"/>
<path d="M41.4903 196.48C40.9753 198.517 40.6555 201.933 40.5357 206.728C40.5357 207.671 40.1114 208.142 39.2612 208.142C38.4102 208.142 37.8183 207.73 37.483 206.911C36.5721 204.694 35.709 203.147 34.8863 202.265C33.9154 201.234 32.6247 200.611 31.015 200.398C29.2847 200.124 24.9737 199.988 18.0814 199.988C16.5033 199.988 15.4693 200.156 14.9851 200.491C14.6814 200.702 14.53 201.158 14.53 201.857V222.489C14.53 223.188 14.9697 223.52 15.8482 223.492C18.5527 223.46 22.4685 223.276 27.5988 222.944C28.6013 222.821 29.2782 222.496 29.6264 221.964C29.9778 221.432 30.3195 220.06 30.6515 217.842C30.8628 216.628 31.5778 216.156 32.7924 216.432C33.8239 216.644 34.2668 217.115 34.1146 217.842C33.2636 221.973 32.9883 227.347 33.2919 233.967C33.3243 234.755 32.8239 235.181 31.7899 235.242C30.9389 235.334 30.4077 234.878 30.1956 233.875C29.4085 230.08 27.9405 228.053 25.8021 227.793C23.6612 227.537 20.1753 227.407 15.3486 227.407C14.8021 227.407 14.53 227.603 14.53 227.998V248.495C14.53 250.013 15.0895 251.047 16.2126 251.591C17.0952 252.047 18.9924 252.458 21.9057 252.822C23.3956 252.973 24.0466 253.628 23.8668 254.78C23.683 255.782 22.3486 256.177 19.8563 255.965C12.6604 255.387 6.72352 255.419 2.04903 256.058C0.742147 256.237 0.0911352 255.706 0.0911352 254.463C0.0911352 253.672 0.742147 253.217 2.04903 253.096C5.02474 252.761 6.51138 250.149 6.51138 245.262V206.272C6.51138 204.271 6.15429 202.73 5.44255 201.651C4.72757 200.573 3.39883 199.592 1.45713 198.713C0.242552 198.166 -0.212509 197.423 0.0911352 196.48C0.242552 195.905 0.486277 195.585 0.818261 195.525C1.1219 195.433 1.92838 195.493 3.23122 195.708C5.14539 196.011 9.65551 196.164 16.7592 196.164C25.1413 196.164 32.381 195.98 38.4863 195.616C40.5195 195.493 41.5381 195.661 41.5381 196.116C41.5381 196.24 41.5227 196.36 41.4903 196.48Z" fill="#569B51"/>
<path d="M41.4903 196.48C40.9753 198.517 40.6555 201.933 40.5357 206.728C40.5357 207.671 40.1114 208.142 39.2612 208.142C38.4102 208.142 37.8183 207.73 37.483 206.911C36.5721 204.694 35.709 203.147 34.8863 202.265C33.9154 201.234 32.6247 200.611 31.015 200.398C29.2847 200.124 24.9737 199.988 18.0814 199.988C16.5033 199.988 15.4693 200.156 14.9851 200.491C14.6814 200.702 14.53 201.158 14.53 201.857V222.489C14.53 223.188 14.9697 223.52 15.8482 223.492C18.5527 223.46 22.4685 223.276 27.5988 222.944C28.6013 222.821 29.2782 222.496 29.6264 221.964C29.9778 221.432 30.3195 220.06 30.6515 217.842C30.8628 216.628 31.5778 216.156 32.7924 216.432C33.8239 216.644 34.2668 217.115 34.1146 217.842C33.2636 221.973 32.9883 227.347 33.2919 233.967C33.3243 234.755 32.8239 235.181 31.7899 235.242C30.9389 235.334 30.4077 234.878 30.1956 233.875C29.4085 230.08 27.9405 228.053 25.8021 227.793C23.6612 227.537 20.1753 227.407 15.3486 227.407C14.8021 227.407 14.53 227.603 14.53 227.998V248.495C14.53 250.013 15.0895 251.047 16.2126 251.591C17.0952 252.047 18.9924 252.458 21.9057 252.822C23.3956 252.973 24.0466 253.628 23.8668 254.78C23.683 255.782 22.3486 256.177 19.8563 255.965C12.6604 255.387 6.72352 255.419 2.04903 256.058C0.742147 256.237 0.0911352 255.706 0.0911352 254.463C0.0911352 253.672 0.742147 253.217 2.04903 253.096C5.02474 252.761 6.51138 250.149 6.51138 245.262V206.272C6.51138 204.271 6.15429 202.73 5.44255 201.651C4.72757 200.573 3.39883 199.592 1.45713 198.713C0.242552 198.166 -0.212509 197.423 0.0911352 196.48C0.242552 195.905 0.486277 195.585 0.818261 195.525C1.1219 195.433 1.92838 195.493 3.23122 195.708C5.14539 196.011 9.65551 196.164 16.7592 196.164C25.1413 196.164 32.381 195.98 38.4863 195.616C40.5195 195.493 41.5381 195.661 41.5381 196.116C41.5381 196.24 41.5227 196.36 41.4903 196.48Z" fill="#569B51"/>
<path d="M71.0275 254.299C71.0275 255.513 70.3441 256.044 68.9781 255.892C64.7903 255.497 59.5968 255.557 53.4032 256.073C52.1571 256.196 51.3919 256.164 51.1012 255.985C50.8129 255.801 50.6704 255.301 50.6704 254.478C50.6704 253.751 51.4963 253.138 53.1506 252.635C54.8081 252.135 55.6332 250.639 55.6332 248.15V206.93C55.6332 204.47 55.2761 202.663 54.5644 201.508C53.8494 200.355 52.5968 199.459 50.8065 198.823C49.864 198.488 49.3927 198.017 49.3927 197.41C49.3927 196.499 50.0761 195.815 51.4421 195.36C53.5077 194.692 55.6494 193.661 57.8664 192.263C59.6882 191.169 60.8429 190.625 61.3263 190.625C62.4494 190.625 63.0129 191.397 63.0129 192.946C63.0129 192.827 62.9522 194.345 62.8291 197.501C62.7409 200.506 62.7093 203.466 62.7409 206.383L62.9206 247.055C62.9206 248.908 63.3765 250.253 64.2874 251.088C65.1984 251.923 66.7635 252.477 68.9781 252.749C70.3441 252.9 71.0275 253.416 71.0275 254.299Z" fill="#569B51"/>
<path d="M71.0275 254.299C71.0275 255.513 70.3441 256.044 68.9781 255.892C64.7903 255.497 59.5968 255.557 53.4032 256.073C52.1571 256.196 51.3919 256.164 51.1012 255.985C50.8129 255.801 50.6704 255.301 50.6704 254.478C50.6704 253.751 51.4963 253.138 53.1506 252.635C54.8081 252.135 55.6332 250.639 55.6332 248.15V206.93C55.6332 204.47 55.2761 202.663 54.5644 201.508C53.8494 200.355 52.5968 199.459 50.8065 198.823C49.864 198.488 49.3927 198.017 49.3927 197.41C49.3927 196.499 50.0761 195.815 51.4421 195.36C53.5077 194.692 55.6494 193.661 57.8664 192.263C59.6882 191.169 60.8429 190.625 61.3263 190.625C62.4494 190.625 63.0129 191.397 63.0129 192.946C63.0129 192.827 62.9522 194.345 62.8291 197.501C62.7409 200.506 62.7093 203.466 62.7409 206.383L62.9206 247.055C62.9206 248.908 63.3765 250.253 64.2874 251.088C65.1984 251.923 66.7635 252.477 68.9781 252.749C70.3441 252.9 71.0275 253.416 71.0275 254.299Z" fill="#569B51"/>
<path d="M112.222 251.613C112.222 252.252 111.061 253.214 108.739 254.504C106.415 255.794 104.555 256.44 103.16 256.44C101.973 256.44 100.927 255.864 100.016 254.709C99.1053 253.555 98.4656 252.98 98.102 252.98C97.83 252.98 96.3879 253.602 93.7749 254.845C91.166 256.091 88.5377 256.715 85.8964 256.715C83.4073 256.715 81.3255 255.985 79.6559 254.53C77.834 252.919 76.9231 250.734 76.9231 247.969C76.9231 242.716 82.936 238.951 94.9612 236.674C97.0235 236.279 98.0737 235.444 98.102 234.169L98.1944 231.253C98.3773 226.274 96.1757 223.785 91.5895 223.785C90.2834 223.785 89.047 224.952 87.8761 227.29C86.7093 229.631 85.03 230.889 82.8437 231.073C80.3547 231.313 79.1085 230.266 79.1085 227.929C79.1085 226.47 80.962 224.772 84.6656 222.827C88.5531 220.794 92.2891 219.775 95.8721 219.775C102.034 219.775 105.086 222.707 105.026 228.568L104.842 247.33C104.814 249.304 105.649 250.291 107.347 250.291C107.683 250.291 108.321 250.215 109.261 250.063C110.204 249.912 110.751 249.836 110.903 249.836C111.782 249.836 112.222 250.43 112.222 251.613ZM98.1944 241.229C98.2259 240.47 98.0486 239.967 97.6688 239.726C97.2891 239.483 96.6915 239.436 95.8721 239.588C88.5531 240.894 84.8939 243.279 84.8939 246.739C84.8939 250.231 86.7911 251.977 90.5871 251.977C92.1053 251.977 93.6713 251.689 95.2778 251.113C97.1628 250.443 98.102 249.64 98.102 248.697L98.1944 241.229Z" fill="#569B51"/>
<path d="M112.222 251.613C112.222 252.252 111.061 253.214 108.739 254.504C106.415 255.794 104.555 256.44 103.16 256.44C101.973 256.44 100.927 255.864 100.016 254.709C99.1053 253.555 98.4656 252.98 98.102 252.98C97.83 252.98 96.3879 253.602 93.7749 254.845C91.166 256.091 88.5377 256.715 85.8964 256.715C83.4073 256.715 81.3255 255.985 79.6559 254.53C77.834 252.919 76.9231 250.734 76.9231 247.969C76.9231 242.716 82.936 238.951 94.9612 236.674C97.0235 236.279 98.0737 235.444 98.102 234.169L98.1944 231.253C98.3773 226.274 96.1757 223.785 91.5895 223.785C90.2834 223.785 89.047 224.952 87.8761 227.29C86.7093 229.631 85.03 230.889 82.8437 231.073C80.3547 231.313 79.1085 230.266 79.1085 227.929C79.1085 226.47 80.962 224.772 84.6656 222.827C88.5531 220.794 92.2891 219.775 95.8721 219.775C102.034 219.775 105.086 222.707 105.026 228.568L104.842 247.33C104.814 249.304 105.649 250.291 107.347 250.291C107.683 250.291 108.321 250.215 109.261 250.063C110.204 249.912 110.751 249.836 110.903 249.836C111.782 249.836 112.222 250.43 112.222 251.613ZM98.1944 241.229C98.2259 240.47 98.0486 239.967 97.6688 239.726C97.2891 239.483 96.6915 239.436 95.8721 239.588C88.5531 240.894 84.8939 243.279 84.8939 246.739C84.8939 250.231 86.7911 251.977 90.5871 251.977C92.1053 251.977 93.6713 251.689 95.2778 251.113C97.1628 250.443 98.102 249.64 98.102 248.697L98.1944 241.229Z" fill="#569B51"/>
<path d="M146.084 246.372C146.084 249.592 144.844 252.151 142.371 254.049C139.897 255.947 136.519 256.896 132.236 256.896C129.384 256.896 126.527 256.592 123.674 255.985C121.214 255.437 119.787 254.938 119.392 254.482C119.148 254.055 119.028 251.977 119.028 248.241C119.028 246.632 119.392 245.797 120.122 245.737C120.85 245.645 121.473 246.04 121.989 246.92C124.266 250.899 127.941 252.888 133.011 252.888C137.291 252.888 139.432 251.398 139.432 248.422C139.432 247.119 138.948 246.024 137.974 245.145C136.911 244.142 134.849 242.972 131.781 241.637C127.347 239.664 124.386 237.934 122.9 236.444C121.289 234.866 120.486 232.74 120.486 230.067C120.486 226.787 121.745 224.238 124.266 222.416C126.603 220.654 129.731 219.775 133.647 219.775C136.108 219.775 138.354 219.971 140.39 220.367C142.576 220.762 143.715 221.246 143.806 221.824C144.047 223.523 144.55 225.984 145.309 229.204C145.401 229.596 144.973 229.916 144.034 230.159C143.032 230.371 142.364 230.203 142.029 229.659C139.632 225.74 136.595 223.782 132.92 223.782C128.76 223.782 126.679 225.117 126.679 227.79C126.679 229.279 127.242 230.462 128.365 231.342C129.368 232.101 131.721 233.287 135.425 234.897C139.312 236.567 141.953 238.07 143.351 239.404C145.173 241.134 146.084 243.459 146.084 246.372Z" fill="#569B51"/>
<path d="M146.084 246.372C146.084 249.592 144.844 252.151 142.371 254.049C139.897 255.947 136.519 256.896 132.236 256.896C129.384 256.896 126.527 256.592 123.674 255.985C121.214 255.437 119.787 254.938 119.392 254.482C119.148 254.055 119.028 251.977 119.028 248.241C119.028 246.632 119.392 245.797 120.122 245.737C120.85 245.645 121.473 246.04 121.989 246.92C124.266 250.899 127.941 252.888 133.011 252.888C137.291 252.888 139.432 251.398 139.432 248.422C139.432 247.119 138.948 246.024 137.974 245.145C136.911 244.142 134.849 242.972 131.781 241.637C127.347 239.664 124.386 237.934 122.9 236.444C121.289 234.866 120.486 232.74 120.486 230.067C120.486 226.787 121.745 224.238 124.266 222.416C126.603 220.654 129.731 219.775 133.647 219.775C136.108 219.775 138.354 219.971 140.39 220.367C142.576 220.762 143.715 221.246 143.806 221.824C144.047 223.523 144.55 225.984 145.309 229.204C145.401 229.596 144.973 229.916 144.034 230.159C143.032 230.371 142.364 230.203 142.029 229.659C139.632 225.74 136.595 223.782 132.92 223.782C128.76 223.782 126.679 225.117 126.679 227.79C126.679 229.279 127.242 230.462 128.365 231.342C129.368 232.101 131.721 233.287 135.425 234.897C139.312 236.567 141.953 238.07 143.351 239.404C145.173 241.134 146.084 243.459 146.084 246.372Z" fill="#569B51"/>
<path d="M199.668 254.343C199.668 255.406 198.953 255.969 197.526 256.029C195.401 256.061 192.62 256.212 189.192 256.484C187.491 256.819 186.276 256.608 185.548 255.848C180.75 250.687 176.679 245.281 173.339 239.632C173.067 239.148 172.719 238.904 172.292 238.904C171.777 238.904 170.882 239.36 169.607 240.271C168.177 241.059 167.466 242.185 167.466 243.64C167.466 244.674 167.494 246.16 167.557 248.106C167.618 250.048 168.101 251.322 169.012 251.929C169.651 252.357 171.126 252.689 173.431 252.933C174.858 253.116 175.573 253.647 175.573 254.526C175.573 255.226 175.458 255.659 175.231 255.823C175.003 255.991 174.402 256.029 173.431 255.938C170.394 255.665 165.264 255.817 158.037 256.393C156.215 256.545 155.228 256.317 155.076 255.709C155.016 255.498 154.985 255.194 154.985 254.798C154.985 253.859 155.912 253.144 157.765 252.661C159.435 252.233 160.27 250.275 160.27 246.784V206.975C160.27 204.486 160.027 202.755 159.539 201.785C158.872 200.538 157.474 199.567 155.348 198.868C154.349 198.536 153.846 198.065 153.846 197.457C153.846 196.575 154.561 195.891 155.987 195.408C158.265 194.648 160.434 193.602 162.5 192.264C164.17 191.172 165.204 190.625 165.596 190.625C166.843 190.625 167.466 191.413 167.466 192.994C167.466 192.78 167.45 194.285 167.418 197.502C167.39 199.719 167.374 202.695 167.374 206.431L167.466 234.942C167.466 235.732 167.678 236.125 168.101 236.125C168.557 236.125 169.256 235.732 170.198 234.942C172.719 232.968 175.816 230.387 179.488 227.198C180.219 226.44 180.582 225.832 180.582 225.376C180.582 224.558 179.352 223.979 176.895 223.647C175.832 223.523 175.329 222.932 175.389 221.869C175.48 220.806 176.012 220.351 176.983 220.503C179.172 220.806 182.36 220.974 186.547 221.006C189.464 221.034 192.364 221.05 195.249 221.05C196.189 221.082 196.66 221.641 196.66 222.736C196.66 223.767 195.917 224.329 194.43 224.422C192.089 224.51 189.887 225.041 187.826 226.015C184.941 227.319 181.857 229.612 178.577 232.892C178.337 233.075 178.213 233.303 178.213 233.575C178.213 233.999 178.729 235.018 179.764 236.627C183.559 242.397 187.143 246.752 190.511 249.7C192.668 251.551 194.686 252.477 196.568 252.477C197.966 252.477 198.832 252.575 199.164 252.774C199.5 252.971 199.668 253.495 199.668 254.343Z" fill="#569B51"/>
<path d="M199.668 254.343C199.668 255.406 198.953 255.969 197.526 256.029C195.401 256.061 192.62 256.212 189.192 256.484C187.491 256.819 186.276 256.608 185.548 255.848C180.75 250.687 176.679 245.281 173.339 239.632C173.067 239.148 172.719 238.904 172.292 238.904C171.777 238.904 170.882 239.36 169.607 240.271C168.177 241.059 167.466 242.185 167.466 243.64C167.466 244.674 167.494 246.16 167.557 248.106C167.618 250.048 168.101 251.322 169.012 251.929C169.651 252.357 171.126 252.689 173.431 252.933C174.858 253.116 175.573 253.647 175.573 254.526C175.573 255.226 175.458 255.659 175.231 255.823C175.003 255.991 174.402 256.029 173.431 255.938C170.394 255.665 165.264 255.817 158.037 256.393C156.215 256.545 155.228 256.317 155.076 255.709C155.016 255.498 154.985 255.194 154.985 254.798C154.985 253.859 155.912 253.144 157.765 252.661C159.435 252.233 160.27 250.275 160.27 246.784V206.975C160.27 204.486 160.027 202.755 159.539 201.785C158.872 200.538 157.474 199.567 155.348 198.868C154.349 198.536 153.846 198.065 153.846 197.457C153.846 196.575 154.561 195.891 155.987 195.408C158.265 194.648 160.434 193.602 162.5 192.264C164.17 191.172 165.204 190.625 165.596 190.625C166.843 190.625 167.466 191.413 167.466 192.994C167.466 192.78 167.45 194.285 167.418 197.502C167.39 199.719 167.374 202.695 167.374 206.431L167.466 234.942C167.466 235.732 167.678 236.125 168.101 236.125C168.557 236.125 169.256 235.732 170.198 234.942C172.719 232.968 175.816 230.387 179.488 227.198C180.219 226.44 180.582 225.832 180.582 225.376C180.582 224.558 179.352 223.979 176.895 223.647C175.832 223.523 175.329 222.932 175.389 221.869C175.48 220.806 176.012 220.351 176.983 220.503C179.172 220.806 182.36 220.974 186.547 221.006C189.464 221.034 192.364 221.05 195.249 221.05C196.189 221.082 196.66 221.641 196.66 222.736C196.66 223.767 195.917 224.329 194.43 224.422C192.089 224.51 189.887 225.041 187.826 226.015C184.941 227.319 181.857 229.612 178.577 232.892C178.337 233.075 178.213 233.303 178.213 233.575C178.213 233.999 178.729 235.018 179.764 236.627C183.559 242.397 187.143 246.752 190.511 249.7C192.668 251.551 194.686 252.477 196.568 252.477C197.966 252.477 198.832 252.575 199.164 252.774C199.5 252.971 199.668 253.495 199.668 254.343Z" fill="#569B51"/>
</svg>
