<svg width="200" height="225" viewBox="0 0 200 225" fill="none" xmlns="http://www.w3.org/2000/svg">
<path fill-rule="evenodd" clip-rule="evenodd" d="M119.2 25.7527L165.408 52.4316C166.709 51.0534 168.229 49.8365 169.953 48.8351C179.536 43.3261 191.759 46.597 197.326 56.1804C202.835 65.7638 199.564 77.9869 189.98 83.5533C188.27 84.5368 186.473 85.2405 184.644 85.6784V139.057C186.453 139.496 188.23 140.195 189.923 141.168C199.564 146.735 202.835 158.958 197.268 168.541C191.759 178.125 179.479 181.396 169.896 175.887C167.988 174.79 166.33 173.425 164.942 171.866L119.016 198.382C119.672 200.366 120.028 202.488 120.028 204.694C120.028 215.712 111.075 224.722 100 224.722C88.9246 224.722 79.9725 215.769 79.9725 204.694C79.9725 202.725 80.2553 200.824 80.7827 199.028L34.5871 172.356C33.2999 173.707 31.8011 174.901 30.1045 175.887C20.4637 181.396 8.2406 178.125 2.73159 168.541C-2.77742 158.958 0.493553 146.735 10.0769 141.168C11.7714 140.194 13.5483 139.495 15.3564 139.056V85.6784C13.5274 85.2405 11.7305 84.5368 10.0195 83.5533C0.436168 78.0443 -2.8348 65.7638 2.6742 56.1804C8.18321 46.597 20.4637 43.3261 30.0471 48.8351C31.7618 49.8311 33.2745 51.0402 34.5709 52.4091L80.7912 25.723C80.2584 23.9183 79.9725 22.0068 79.9725 20.0275C79.9725 8.95214 88.9246 0 100 0C111.075 0 120.028 8.95214 120.028 20.0275C120.028 22.0177 119.738 23.9393 119.2 25.7527ZM114.386 33.9726L160.704 60.715C159.272 65.7435 159.797 71.3192 162.608 76.2079C165.427 81.1126 170.02 84.3639 175.118 85.631V139.076C174.858 139.14 174.599 139.209 174.342 139.283L113.848 34.5067C114.03 34.3321 114.21 34.154 114.386 33.9726ZM86.1648 34.5188L25.6713 139.293C25.4098 139.218 25.1468 139.147 24.8824 139.082V85.631C29.9799 84.3639 34.573 81.1126 37.3924 76.2079C40.2083 71.3095 40.7303 65.7215 39.2879 60.6852L85.5928 33.9503C85.7796 34.1436 85.9703 34.3332 86.1648 34.5188ZM105.596 39.2654L166.076 144.016C164.722 145.307 163.529 146.811 162.55 148.514C161.577 150.207 160.878 151.984 160.439 153.793H39.5622C39.1234 151.985 38.4239 150.208 37.4498 148.514C36.4669 146.822 35.2765 145.326 33.9297 144.041L94.4209 39.2703C96.1914 39.7813 98.0632 40.0551 100 40.0551C101.943 40.0551 103.821 39.7796 105.596 39.2654ZM114.811 191.202L160.828 164.633C160.69 164.199 160.567 163.761 160.458 163.319H39.5365C39.4724 163.579 39.4031 163.837 39.3287 164.094L85.5717 190.793C89.2127 187.015 94.3279 184.667 100 184.667C105.874 184.667 111.15 187.184 114.811 191.202Z" fill="#569B51"/>
</svg>
