<svg width="200" height="283" viewBox="0 0 200 283" fill="none" xmlns="http://www.w3.org/2000/svg">
<path d="M199.652 55.2856L181.495 258.692L99.878 281.319L18.4857 258.724L0.347778 55.2856H199.652Z" fill="#569B51"/>
<path d="M100 264.024L165.951 245.74L181.467 71.9199H100V264.024Z" fill="#569B51"/>
<path d="M64.7033 121.822H100V96.8711H37.4352L38.0324 103.565L44.1649 172.323H100V147.372H66.9835L64.7033 121.822Z" fill="#569B51"/>
<path d="M64.7033 121.822H100V96.8711H37.4352L38.0324 103.565L44.1649 172.323H100V147.372H66.9835L64.7033 121.822Z" fill="white"/>
<path d="M70.3264 184.798H45.2797L48.7753 223.975L99.8852 238.163L100 238.131V212.172L99.8907 212.201L72.1027 204.698L70.3264 184.798Z" fill="white"/>
<path d="M70.3264 184.798H45.2797L48.7753 223.975L99.8852 238.163L100 238.131V212.172L99.8907 212.201L72.1027 204.698L70.3264 184.798Z" fill="white"/>
<path d="M18.8912 0H31.5709V12.5275H43.1698V0H55.85V37.9363H43.1704V25.233H31.5715V37.9363H18.8918V0H18.8912Z" fill="#569B51"/>
<path d="M18.8912 0H31.5709V12.5275H43.1698V0H55.85V37.9363H43.1704V25.233H31.5715V37.9363H18.8918V0H18.8912Z" fill="#569B51"/>
<path d="M72.5241 12.5802H61.3615V0H96.3724V12.5802H85.2049V37.9363H72.5246V12.5802H72.5241Z" fill="#569B51"/>
<path d="M72.5241 12.5802H61.3615V0H96.3724V12.5802H85.2049V37.9363H72.5246V12.5802H72.5241Z" fill="#569B51"/>
<path d="M101.929 0H115.151L123.283 13.3297L131.408 0H144.635V37.9363H132.007V19.133L123.283 32.6214H123.065L114.336 19.133V37.9363H101.929V0Z" fill="#569B51"/>
<path d="M101.929 0H115.151L123.283 13.3297L131.408 0H144.635V37.9363H132.007V19.133L123.283 32.6214H123.065L114.336 19.133V37.9363H101.929V0Z" fill="#569B51"/>
<path d="M150.945 0H163.629V25.3967H181.46V37.9363H150.945V0Z" fill="#569B51"/>
<path d="M150.945 0H163.629V25.3967H181.46V37.9363H150.945V0Z" fill="#569B51"/>
<path d="M99.9137 172.323H130.638L127.742 204.682L99.9137 212.193V238.151L151.064 223.975L151.44 219.759L157.303 154.072L157.912 147.372H99.9137V172.323Z" fill="white"/>
<path d="M99.9137 121.761V121.822H160.182L160.682 116.214L161.819 103.565L162.416 96.8711H99.9137V121.761Z" fill="white"/>
</svg>
