<svg width="200" height="200" viewBox="0 0 200 200" fill="none" xmlns="http://www.w3.org/2000/svg">
<path d="M0 0H200V200H0V0Z" fill="#569B51"/>
<path d="M52.5873 167.135L67.8927 157.872C70.8454 163.107 73.5314 167.537 79.9743 167.537C86.1502 167.537 90.0438 165.121 90.0438 155.724V91.8193H108.839V155.99C108.839 175.456 97.4279 184.317 80.78 184.317C65.7448 184.317 57.0171 176.53 52.587 167.133" fill="#569B51"/>
<path d="M52.5873 167.135L67.8927 157.872C70.8454 163.107 73.5314 167.537 79.9743 167.537C86.1502 167.537 90.0438 165.121 90.0438 155.724V91.8193H108.839V155.99C108.839 175.456 97.4279 184.317 80.78 184.317C65.7448 184.317 57.0171 176.53 52.587 167.133" fill="white"/>
<path d="M119.048 165.12L134.351 156.26C138.38 162.839 143.616 167.672 152.878 167.672C160.666 167.672 165.632 163.778 165.632 158.408C165.632 151.964 160.531 149.681 151.938 145.923L147.241 143.908C133.681 138.136 124.685 130.887 124.685 115.582C124.685 101.485 135.425 90.7446 152.208 90.7446C164.156 90.7446 172.748 94.9069 178.923 105.781L164.29 115.179C161.067 109.406 157.578 107.124 152.208 107.124C146.703 107.124 143.213 110.615 143.213 115.179C143.213 120.817 146.703 123.1 154.758 126.591L159.456 128.605C175.432 135.452 184.428 142.432 184.428 158.139C184.428 175.056 171.137 184.319 153.282 184.319C135.829 184.319 124.551 175.995 119.048 165.12" fill="#569B51"/>
<path d="M119.048 165.12L134.351 156.26C138.38 162.839 143.616 167.672 152.878 167.672C160.666 167.672 165.632 163.778 165.632 158.408C165.632 151.964 160.531 149.681 151.938 145.923L147.241 143.908C133.681 138.136 124.685 130.887 124.685 115.582C124.685 101.485 135.425 90.7446 152.208 90.7446C164.156 90.7446 172.748 94.9069 178.923 105.781L164.29 115.179C161.067 109.406 157.578 107.124 152.208 107.124C146.703 107.124 143.213 110.615 143.213 115.179C143.213 120.817 146.703 123.1 154.758 126.591L159.456 128.605C175.432 135.452 184.428 142.432 184.428 158.139C184.428 175.056 171.137 184.319 153.282 184.319C135.829 184.319 124.551 175.995 119.048 165.12" fill="white"/>
</svg>
