<svg width="200" height="271" viewBox="0 0 200 271" fill="none" xmlns="http://www.w3.org/2000/svg">
<g clip-path="url(#clip0_80:215)">
<path d="M64.4953 208.963C64.4953 208.963 54.184 214.959 71.8335 216.988C93.2153 219.428 104.143 219.078 127.706 214.618C127.706 214.618 133.901 218.503 142.553 221.867C89.7309 244.505 23.0066 220.556 64.4953 208.963Z" fill="#569B51"/>
<path d="M64.4953 208.963C64.4953 208.963 54.184 214.959 71.8335 216.988C93.2153 219.428 104.143 219.078 127.706 214.618C127.706 214.618 133.901 218.503 142.553 221.867C89.7309 244.505 23.0066 220.556 64.4953 208.963Z" fill="#569B51"/>
<path d="M58.0407 179.421C58.0407 179.421 46.4756 187.982 64.1382 189.809C86.9789 192.165 105.017 192.358 136.229 186.347C136.229 186.347 140.546 190.724 147.334 193.118C83.4698 211.793 12.336 194.59 58.0407 179.421Z" fill="#569B51"/>
<path d="M58.0407 179.421C58.0407 179.421 46.4756 187.982 64.1382 189.809C86.9789 192.165 105.017 192.358 136.229 186.347C136.229 186.347 140.546 190.724 147.334 193.118C83.4698 211.793 12.336 194.59 58.0407 179.421Z" fill="#569B51"/>
<path d="M112.455 129.308C125.47 144.293 109.035 157.777 109.035 157.777C109.035 157.777 142.083 140.717 126.905 119.353C112.73 99.4305 101.86 89.5316 160.708 55.4014C160.708 55.4014 68.3352 78.4719 112.455 129.308Z" fill="#569B51"/>
<path d="M112.455 129.308C125.47 144.293 109.035 157.777 109.035 157.777C109.035 157.777 142.083 140.717 126.905 119.353C112.73 99.4305 101.86 89.5316 160.708 55.4014C160.708 55.4014 68.3352 78.4719 112.455 129.308Z" fill="#569B51"/>
<path d="M182.316 230.813C182.316 230.813 189.946 237.101 173.912 241.965C143.423 251.201 47.0116 253.99 20.2291 242.333C10.6014 238.144 28.656 232.332 34.3353 231.112C40.2582 229.828 43.6429 230.067 43.6429 230.067C32.936 222.525 -25.5622 244.877 13.9287 251.279C121.626 268.744 210.251 243.414 182.316 230.813Z" fill="#569B51"/>
<path d="M182.316 230.813C182.316 230.813 189.946 237.101 173.912 241.965C143.423 251.201 47.0116 253.99 20.2291 242.333C10.6014 238.144 28.656 232.332 34.3353 231.112C40.2582 229.828 43.6429 230.067 43.6429 230.067C32.936 222.525 -25.5622 244.877 13.9287 251.279C121.626 268.744 210.251 243.414 182.316 230.813Z" fill="#569B51"/>
<path d="M69.4538 148.812C69.4538 148.812 20.4131 160.46 52.0873 164.69C65.4611 166.481 92.1215 166.076 116.955 163.995C137.25 162.283 157.629 158.643 157.629 158.643C157.629 158.643 150.473 161.708 145.295 165.243C95.4953 178.34 -0.709087 172.247 26.9869 158.85C50.4095 147.528 69.4538 148.812 69.4538 148.812Z" fill="#569B51"/>
<path d="M69.4538 148.812C69.4538 148.812 20.4131 160.46 52.0873 164.69C65.4611 166.481 92.1215 166.076 116.955 163.995C137.25 162.283 157.629 158.643 157.629 158.643C157.629 158.643 150.473 161.708 145.295 165.243C95.4953 178.34 -0.709087 172.247 26.9869 158.85C50.4095 147.528 69.4538 148.812 69.4538 148.812Z" fill="#569B51"/>
<path d="M157.427 197.986C208.051 171.68 184.644 146.4 168.307 149.806C164.303 150.639 162.517 151.361 162.517 151.361C162.517 151.361 164.004 149.033 166.843 148.025C199.164 136.662 224.02 181.538 156.409 199.312C156.409 199.313 157.193 198.612 157.427 197.986Z" fill="#569B51"/>
<path d="M157.427 197.986C208.051 171.68 184.644 146.4 168.307 149.806C164.303 150.639 162.517 151.361 162.517 151.361C162.517 151.361 164.004 149.033 166.843 148.025C199.164 136.662 224.02 181.538 156.409 199.312C156.409 199.313 157.193 198.612 157.427 197.986Z" fill="#569B51"/>
<path d="M126.905 0.290039C126.905 0.290039 154.942 28.3359 100.314 71.4624C56.5083 106.057 90.3251 125.782 100.296 148.319C74.7258 125.249 55.9607 104.939 68.5498 86.0377C87.0276 58.2915 138.217 44.8391 126.905 0.290039Z" fill="#569B51"/>
<path d="M126.905 0.290039C126.905 0.290039 154.942 28.3359 100.314 71.4624C56.5083 106.057 90.3251 125.782 100.296 148.319C74.7258 125.249 55.9607 104.939 68.5498 86.0377C87.0276 58.2915 138.217 44.8391 126.905 0.290039Z" fill="#569B51"/>
<path d="M74.4284 269.27C123.021 272.38 197.641 267.544 199.408 244.551C199.408 244.551 196.011 253.268 159.249 260.19C117.774 267.995 66.6204 267.084 36.2807 262.081C36.2815 262.081 42.4916 267.222 74.4284 269.27Z" fill="#569B51"/>
<path d="M74.4284 269.27C123.021 272.38 197.641 267.544 199.408 244.551C199.408 244.551 196.011 253.268 159.249 260.19C117.774 267.995 66.6204 267.084 36.2807 262.081C36.2815 262.081 42.4916 267.222 74.4284 269.27Z" fill="#569B51"/>
</g>
<defs>
<clipPath id="clip0_80:215">
<rect width="200" height="270.312" fill="white"/>
</clipPath>
</defs>
</svg>
