<svg width="200" height="200" viewBox="0 0 200 200" fill="none" xmlns="http://www.w3.org/2000/svg">
<path d="M93.4506 0.0538207C93.0205 0.0929157 91.652 0.229748 90.4203 0.327485C62.0137 2.8882 35.4057 18.2134 18.5533 41.7681C9.16911 54.8649 3.16716 69.721 0.899316 85.4567C0.0977517 90.9496 0 92.572 0 100.02C0 107.467 0.0977517 109.09 0.899316 114.582C6.33431 152.133 33.0596 183.683 69.306 195.372C75.7967 197.464 82.6393 198.891 90.4203 199.751C93.4506 200.083 106.549 200.083 109.58 199.751C123.011 198.265 134.389 194.942 145.611 189.215C147.331 188.335 147.664 188.1 147.429 187.905C147.273 187.788 139.941 177.955 131.144 166.07L115.152 144.471L95.1124 114.817C84.086 98.5144 75.0147 85.183 74.9365 85.183C74.8583 85.1635 74.7801 98.3385 74.741 114.426C74.6823 142.594 74.6628 143.728 74.3109 144.392C73.8025 145.35 73.4115 145.741 72.5904 146.171C71.9648 146.484 71.4174 146.543 68.4653 146.543H65.0831L64.1838 145.976C63.5973 145.604 63.1672 145.116 62.8739 144.549L62.4633 143.669L62.5024 104.476L62.5611 65.2642L63.1672 64.5018C63.48 64.0913 64.1447 63.5635 64.6139 63.3094C65.4154 62.9185 65.7282 62.8794 69.1105 62.8794C73.0987 62.8794 73.7634 63.0358 74.7996 64.1695C75.0929 64.4823 85.9433 80.824 98.9247 100.508C111.906 120.193 129.658 147.07 138.377 160.265L154.213 184.25L155.015 183.722C162.111 179.109 169.619 172.541 175.562 165.699C188.211 151.175 196.364 133.465 199.101 114.582C199.902 109.09 200 107.467 200 100.02C200 92.572 199.902 90.9496 199.101 85.4567C193.666 47.906 166.94 16.3564 130.694 4.66702C124.301 2.59499 117.498 1.16803 109.873 0.307938C107.996 0.112463 95.0733 -0.102559 93.4506 0.0538207ZM134.389 60.5337C135.327 61.0028 136.09 61.902 136.364 62.8403C136.52 63.3485 136.559 74.2169 136.52 98.7099L136.461 133.856L130.264 124.356L124.047 114.856V89.3076C124.047 72.79 124.125 63.5049 124.242 63.0553C124.555 61.9607 125.239 61.1006 126.178 60.5923C126.979 60.1818 127.273 60.1427 130.342 60.1427C133.236 60.1427 133.744 60.1818 134.389 60.5337Z" fill="#569B51"/>
<path d="M93.4506 0.0538207C93.0205 0.0929157 91.652 0.229748 90.4203 0.327485C62.0137 2.8882 35.4057 18.2134 18.5533 41.7681C9.16911 54.8649 3.16716 69.721 0.899316 85.4567C0.0977517 90.9496 0 92.572 0 100.02C0 107.467 0.0977517 109.09 0.899316 114.582C6.33431 152.133 33.0596 183.683 69.306 195.372C75.7967 197.464 82.6393 198.891 90.4203 199.751C93.4506 200.083 106.549 200.083 109.58 199.751C123.011 198.265 134.389 194.942 145.611 189.215C147.331 188.335 147.664 188.1 147.429 187.905C147.273 187.788 139.941 177.955 131.144 166.07L115.152 144.471L95.1124 114.817C84.086 98.5144 75.0147 85.183 74.9365 85.183C74.8583 85.1635 74.7801 98.3385 74.741 114.426C74.6823 142.594 74.6628 143.728 74.3109 144.392C73.8025 145.35 73.4115 145.741 72.5904 146.171C71.9648 146.484 71.4174 146.543 68.4653 146.543H65.0831L64.1838 145.976C63.5973 145.604 63.1672 145.116 62.8739 144.549L62.4633 143.669L62.5024 104.476L62.5611 65.2642L63.1672 64.5018C63.48 64.0913 64.1447 63.5635 64.6139 63.3094C65.4154 62.9185 65.7282 62.8794 69.1105 62.8794C73.0987 62.8794 73.7634 63.0358 74.7996 64.1695C75.0929 64.4823 85.9433 80.824 98.9247 100.508C111.906 120.193 129.658 147.07 138.377 160.265L154.213 184.25L155.015 183.722C162.111 179.109 169.619 172.541 175.562 165.699C188.211 151.175 196.364 133.465 199.101 114.582C199.902 109.09 200 107.467 200 100.02C200 92.572 199.902 90.9496 199.101 85.4567C193.666 47.906 166.94 16.3564 130.694 4.66702C124.301 2.59499 117.498 1.16803 109.873 0.307938C107.996 0.112463 95.0733 -0.102559 93.4506 0.0538207ZM134.389 60.5337C135.327 61.0028 136.09 61.902 136.364 62.8403C136.52 63.3485 136.559 74.2169 136.52 98.7099L136.461 133.856L130.264 124.356L124.047 114.856V89.3076C124.047 72.79 124.125 63.5049 124.242 63.0553C124.555 61.9607 125.239 61.1006 126.178 60.5923C126.979 60.1818 127.273 60.1427 130.342 60.1427C133.236 60.1427 133.744 60.1818 134.389 60.5337Z" fill="#569B51"/>
</svg>
