<svg width="200" height="201" viewBox="0 0 200 201" fill="none" xmlns="http://www.w3.org/2000/svg">
<g clip-path="url(#clip0)">
<path d="M93.4506 0.628528C93.0205 0.667623 91.652 0.804455 90.4203 0.902192C62.0137 3.46291 35.4057 18.7881 18.5533 42.3428C9.16911 55.4396 3.16716 70.2957 0.899316 86.0314C0.0977517 91.5243 0 93.1467 0 100.594C0 108.042 0.0977517 109.664 0.899316 115.157C6.33431 152.708 33.0596 184.257 69.306 195.947C75.7967 198.038 82.6393 199.465 90.4203 200.325C93.4506 200.658 106.549 200.658 109.58 200.325C123.011 198.84 134.389 195.517 145.611 189.789C147.331 188.91 147.664 188.675 147.429 188.48C147.273 188.362 139.941 178.53 131.144 166.645L115.152 145.045L95.1124 115.392C84.086 99.0891 75.0147 85.7578 74.9365 85.7578C74.8583 85.7382 74.7801 98.9132 74.741 115.001C74.6823 143.169 74.6628 144.302 74.3109 144.967C73.8025 145.925 73.4115 146.316 72.5904 146.746C71.9648 147.059 71.4174 147.117 68.4653 147.117H65.0831L64.1838 146.55C63.5973 146.179 63.1672 145.69 62.8739 145.123L62.4633 144.244L62.5024 105.051L62.5611 65.8389L63.1672 65.0765C63.48 64.666 64.1447 64.1383 64.6139 63.8841C65.4154 63.4932 65.7282 63.4541 69.1105 63.4541C73.0987 63.4541 73.7634 63.6105 74.7996 64.7442C75.0929 65.057 85.9433 81.3987 98.9247 101.083C111.906 120.767 129.658 147.645 138.377 160.84L154.213 184.824L155.015 184.297C162.111 179.683 169.619 173.115 175.562 166.274C188.211 151.75 196.364 134.04 199.101 115.157C199.902 109.664 200 108.042 200 100.594C200 93.1467 199.902 91.5243 199.101 86.0314C193.666 48.4807 166.94 16.9311 130.694 5.24173C124.301 3.1697 117.498 1.74273 109.873 0.882645C107.996 0.68717 95.0733 0.472148 93.4506 0.628528ZM134.389 61.1084C135.327 61.5775 136.09 62.4767 136.364 63.415C136.52 63.9232 136.559 74.7916 136.52 99.2846L136.461 134.431L130.264 124.931L124.047 115.431V89.8823C124.047 73.3647 124.125 64.0796 124.242 63.63C124.555 62.5354 125.239 61.6753 126.178 61.167C126.979 60.7565 127.273 60.7174 130.342 60.7174C133.236 60.7174 133.744 60.7565 134.389 61.1084Z" fill="#569B51"/>
<path d="M93.4506 0.628528C93.0205 0.667623 91.652 0.804455 90.4203 0.902192C62.0137 3.46291 35.4057 18.7881 18.5533 42.3428C9.16911 55.4396 3.16716 70.2957 0.899316 86.0314C0.0977517 91.5243 0 93.1467 0 100.594C0 108.042 0.0977517 109.664 0.899316 115.157C6.33431 152.708 33.0596 184.257 69.306 195.947C75.7967 198.038 82.6393 199.465 90.4203 200.325C93.4506 200.658 106.549 200.658 109.58 200.325C123.011 198.84 134.389 195.517 145.611 189.789C147.331 188.91 147.664 188.675 147.429 188.48C147.273 188.362 139.941 178.53 131.144 166.645L115.152 145.045L95.1124 115.392C84.086 99.0891 75.0147 85.7578 74.9365 85.7578C74.8583 85.7382 74.7801 98.9132 74.741 115.001C74.6823 143.169 74.6628 144.302 74.3109 144.967C73.8025 145.925 73.4115 146.316 72.5904 146.746C71.9648 147.059 71.4174 147.117 68.4653 147.117H65.0831L64.1838 146.55C63.5973 146.179 63.1672 145.69 62.8739 145.123L62.4633 144.244L62.5024 105.051L62.5611 65.8389L63.1672 65.0765C63.48 64.666 64.1447 64.1383 64.6139 63.8841C65.4154 63.4932 65.7282 63.4541 69.1105 63.4541C73.0987 63.4541 73.7634 63.6105 74.7996 64.7442C75.0929 65.057 85.9433 81.3987 98.9247 101.083C111.906 120.767 129.658 147.645 138.377 160.84L154.213 184.824L155.015 184.297C162.111 179.683 169.619 173.115 175.562 166.274C188.211 151.75 196.364 134.04 199.101 115.157C199.902 109.664 200 108.042 200 100.594C200 93.1467 199.902 91.5243 199.101 86.0314C193.666 48.4807 166.94 16.9311 130.694 5.24173C124.301 3.1697 117.498 1.74273 109.873 0.882645C107.996 0.68717 95.0733 0.472148 93.4506 0.628528ZM134.389 61.1084C135.327 61.5775 136.09 62.4767 136.364 63.415C136.52 63.9232 136.559 74.7916 136.52 99.2846L136.461 134.431L130.264 124.931L124.047 115.431V89.8823C124.047 73.3647 124.125 64.0796 124.242 63.63C124.555 62.5354 125.239 61.6753 126.178 61.167C126.979 60.7565 127.273 60.7174 130.342 60.7174C133.236 60.7174 133.744 60.7565 134.389 61.1084Z" fill="#569B51"/>
</g>
<defs>
<clipPath id="clip0">
<rect width="200" height="200" fill="white" transform="translate(0 0.574707)"/>
</clipPath>
</defs>
</svg>
