<svg width="256" height="191" viewBox="0 0 256 191" fill="none" xmlns="http://www.w3.org/2000/svg">
<g clip-path="url(#clip0_202:126)">
<path fill-rule="evenodd" clip-rule="evenodd" d="M78.8913 183.615C78.7014 183.279 78.5322 182.932 78.3848 182.575C77.3623 180.21 77.0475 177.599 77.4785 175.058H16.9933L106.881 16.874L136.391 68.7489L144.948 53.6077L119.224 8.29039C118.504 6.98419 114.159 0 106.668 0C103.283 0 98.431 1.46615 94.4858 8.39702L3.42474 168.5C2.65168 169.886 -1.10699 177.164 2.62502 183.615C4.33108 186.547 7.95647 190.039 15.9536 190.039H92.2199C84.2761 190.039 80.5974 186.6 78.8913 183.615Z" fill="#569B51"/>
<path fill-rule="evenodd" clip-rule="evenodd" d="M254.242 168.5L179.416 36.6802C178.643 35.294 174.324 28.2832 166.807 28.2832C163.421 28.2832 158.57 29.7227 154.624 36.6536L144.948 53.6076L153.558 68.7488L166.887 45.1572L240.914 175.058H212.764C213.124 177.205 212.922 179.409 212.177 181.456C212.021 181.907 211.824 182.344 211.591 182.762L211.351 183.242C207.566 189.693 199.382 190.039 197.782 190.039H241.82C243.446 190.039 251.603 189.693 255.389 183.242C257.068 180.309 258.268 175.378 254.242 168.5Z" fill="#9DD9A3"/>
<path fill-rule="evenodd" clip-rule="evenodd" d="M211.351 183.241L211.591 182.762C211.824 182.344 212.021 181.907 212.177 181.455C212.922 179.409 213.124 177.205 212.764 175.058C212.349 172.742 211.518 170.52 210.311 168.5L153.611 68.7487L144.948 53.6074L136.338 68.7487L79.6644 168.5C78.564 170.544 77.8245 172.762 77.4785 175.058C77.0224 177.591 77.3094 180.202 78.3048 182.575C78.4523 182.932 78.6214 183.279 78.8113 183.615C80.5174 186.547 84.1428 190.039 92.1399 190.039H197.702C199.382 190.039 207.566 189.692 211.351 183.241ZM144.948 83.89L196.769 175.058H93.1529L144.948 83.89Z" fill="#396F35"/>
</g>
<defs>
<clipPath id="clip0_202:126">
<rect width="256" height="191" fill="white"/>
</clipPath>
</defs>
</svg>
