<svg width="200" height="101" viewBox="0 0 200 101" fill="none" xmlns="http://www.w3.org/2000/svg">
<g clip-path="url(#clip0_80:323)">
<path d="M45.4874 21.1389C54.1932 21.212 60.5016 23.722 64.4129 28.6648C68.3241 33.6076 69.6146 40.3588 68.2865 48.9184C67.7707 52.8296 66.6264 56.6656 64.8556 60.4286C63.1578 64.1915 60.7982 67.5848 57.7724 70.6107C54.0825 74.4467 50.1358 76.8815 45.9301 77.9152C41.7245 78.9489 37.3706 79.4647 32.8705 79.4647H19.5895L15.3838 100.493H0L15.8265 21.1389H45.4874ZM176.696 21.1389C185.402 21.212 191.71 23.722 195.621 28.6648C199.532 33.6076 200.823 40.3588 199.495 48.9184C198.979 52.8296 197.835 56.6656 196.064 60.4286C194.366 64.1915 192.007 67.5848 188.981 70.6107C185.291 74.4467 181.344 76.8815 177.138 77.9152C172.933 78.9489 168.579 79.4647 164.079 79.4647H150.798L146.592 100.493H131.208L147.035 21.1389H176.696ZM101.084 0L96.7675 21.1389H110.491C118.017 21.2872 123.624 22.8366 127.314 25.7873C131.077 28.7379 132.184 34.3468 130.634 42.6099L123.219 79.4647H107.724L114.808 44.27C115.545 40.5801 115.323 37.9615 114.144 36.4121C112.964 34.8626 110.418 34.0879 106.507 34.0879L94.222 33.9772L85.1467 79.4647H69.8735L85.8107 0H101.084ZM33.5345 33.7559C32.6491 33.829 31.8013 33.8666 30.989 33.8666L28.7531 33.8664L22.135 66.9584C22.5777 67.0315 23.0204 67.0691 23.4631 67.0691H25.0126C32.0958 67.1421 37.9991 66.4426 42.7206 64.9662C47.442 63.4168 50.6161 58.0313 52.2386 48.8077C53.5667 41.0604 52.2386 36.5958 48.2543 35.416C44.3431 34.2362 39.4379 33.6828 33.5345 33.7559ZM164.743 33.7559C163.857 33.829 163.01 33.8666 162.197 33.8666L159.961 33.8664L153.343 66.9584C153.786 67.0315 154.229 67.0691 154.671 67.0691H156.221C163.304 67.1421 169.207 66.4426 173.929 64.9662C178.65 63.4168 181.824 58.0313 183.447 48.8077C184.775 41.0604 183.447 36.5958 179.463 35.416C175.551 34.2362 170.646 33.6828 164.743 33.7559Z" fill="#569B51"/>
<path d="M45.4874 21.1389C54.1932 21.212 60.5016 23.722 64.4129 28.6648C68.3241 33.6076 69.6146 40.3588 68.2865 48.9184C67.7707 52.8296 66.6264 56.6656 64.8556 60.4286C63.1578 64.1915 60.7982 67.5848 57.7724 70.6107C54.0825 74.4467 50.1358 76.8815 45.9301 77.9152C41.7245 78.9489 37.3706 79.4647 32.8705 79.4647H19.5895L15.3838 100.493H0L15.8265 21.1389H45.4874ZM176.696 21.1389C185.402 21.212 191.71 23.722 195.621 28.6648C199.532 33.6076 200.823 40.3588 199.495 48.9184C198.979 52.8296 197.835 56.6656 196.064 60.4286C194.366 64.1915 192.007 67.5848 188.981 70.6107C185.291 74.4467 181.344 76.8815 177.138 77.9152C172.933 78.9489 168.579 79.4647 164.079 79.4647H150.798L146.592 100.493H131.208L147.035 21.1389H176.696ZM101.084 0L96.7675 21.1389H110.491C118.017 21.2872 123.624 22.8366 127.314 25.7873C131.077 28.7379 132.184 34.3468 130.634 42.6099L123.219 79.4647H107.724L114.808 44.27C115.545 40.5801 115.323 37.9615 114.144 36.4121C112.964 34.8626 110.418 34.0879 106.507 34.0879L94.222 33.9772L85.1467 79.4647H69.8735L85.8107 0H101.084ZM33.5345 33.7559C32.6491 33.829 31.8013 33.8666 30.989 33.8666L28.7531 33.8664L22.135 66.9584C22.5777 67.0315 23.0204 67.0691 23.4631 67.0691H25.0126C32.0958 67.1421 37.9991 66.4426 42.7206 64.9662C47.442 63.4168 50.6161 58.0313 52.2386 48.8077C53.5667 41.0604 52.2386 36.5958 48.2543 35.416C44.3431 34.2362 39.4379 33.6828 33.5345 33.7559ZM164.743 33.7559C163.857 33.829 163.01 33.8666 162.197 33.8666L159.961 33.8664L153.343 66.9584C153.786 67.0315 154.229 67.0691 154.671 67.0691H156.221C163.304 67.1421 169.207 66.4426 173.929 64.9662C178.65 63.4168 181.824 58.0313 183.447 48.8077C184.775 41.0604 183.447 36.5958 179.463 35.416C175.551 34.2362 170.646 33.6828 164.743 33.7559Z" fill="#569B51"/>
</g>
<defs>
<clipPath id="clip0_80:323">
<rect width="200" height="100.781" fill="white"/>
</clipPath>
</defs>
</svg>
