<svg width="200" height="200" viewBox="0 0 200 200" fill="none" xmlns="http://www.w3.org/2000/svg">
<path d="M99.153 0.0566406C48.5028 0.0566442 51.6657 22.0216 51.6657 22.0216L51.7222 44.7771H100.056V51.6094H32.524C32.524 51.6094 0.11293 47.9337 0.11293 99.0403C0.112927 150.147 28.402 148.334 28.402 148.334H45.2851V124.619C45.2851 124.619 44.3751 96.3299 73.1225 96.3299H121.062C121.062 96.3299 147.995 96.7653 147.995 70.2994V26.5389C147.995 26.5388 152.085 0.0566406 99.153 0.0566406ZM72.5014 15.3587C77.3103 15.3587 81.1971 19.2455 81.1971 24.0544C81.1971 28.8633 77.3103 32.75 72.5014 32.75C67.6925 32.75 63.8057 28.8633 63.8057 24.0544C63.8057 19.2455 67.6925 15.3587 72.5014 15.3587Z" fill="#4F934A"/>
<path d="M100.591 198.536C151.242 198.536 148.079 176.571 148.079 176.571L148.022 153.816H99.688V146.983H167.221C167.221 146.983 199.632 150.659 199.632 99.5526C199.632 48.4461 171.342 50.2584 171.342 50.2584H154.459V73.9738C154.459 73.9738 155.369 102.263 126.622 102.263H78.683C78.683 102.263 51.749 101.828 51.749 128.293V172.054C51.749 172.054 47.6597 198.536 100.591 198.536ZM127.243 183.234C122.434 183.234 118.547 179.347 118.547 174.539C118.547 169.73 122.434 165.843 127.243 165.843C132.052 165.843 135.939 169.73 135.939 174.539C135.939 179.347 132.052 183.234 127.243 183.234Z" fill="url(#paint0_linear_80:333)"/>
<defs>
<linearGradient id="paint0_linear_80:333" x1="79.9761" y1="80.7665" x2="186.156" y2="181.142" gradientUnits="userSpaceOnUse">
<stop stop-color="#569B51"/>
<stop offset="1" stop-color="#569B51"/>
</linearGradient>
</defs>
</svg>
