<svg width="200" height="179" viewBox="0 0 200 179" fill="none" xmlns="http://www.w3.org/2000/svg">
<path d="M164.44 57.6747C162.365 56.9606 160.216 56.2849 158.002 55.6459C158.366 54.161 158.7 52.6954 158.997 51.2547C163.87 27.5976 160.684 8.53925 149.803 2.26445C139.369 -3.75226 122.306 2.52112 105.073 17.5186C103.415 18.9607 101.754 20.4876 100.093 22.0878C98.9858 21.0291 97.8808 20.0059 96.7786 19.0273C78.7178 2.99104 60.6146 -3.76686 49.7442 2.52611C39.3206 8.56026 36.2338 26.4769 40.6207 48.8969C41.0444 51.0624 41.5395 53.2739 42.0995 55.5224C39.5374 56.2497 37.0639 57.025 34.6973 57.8499C13.5229 65.2322 0 76.8021 0 88.8031C0 101.198 14.5169 113.63 36.5716 121.168C38.3121 121.763 40.118 122.326 41.9792 122.86C41.3751 125.291 40.8496 127.674 40.4085 129.999C36.2256 152.03 39.4922 169.523 49.888 175.519C60.626 181.711 78.6473 175.346 96.1955 160.007C97.5824 158.795 98.9744 157.509 100.369 156.161C102.176 157.901 103.981 159.549 105.776 161.094C122.773 175.721 139.561 181.627 149.947 175.614C160.674 169.404 164.161 150.612 159.635 127.749C159.289 126.002 158.887 124.218 158.435 122.403C159.7 122.029 160.943 121.642 162.154 121.241C185.082 113.644 200 101.363 200 88.8031C200 76.7587 186.041 65.1108 164.44 57.6747ZM159.467 113.131C158.374 113.493 157.251 113.843 156.108 114.182C153.577 106.169 150.161 97.6482 145.98 88.8448C149.97 80.251 153.254 71.8391 155.714 63.878C157.76 64.47 159.746 65.0944 161.659 65.7534C180.167 72.1246 191.456 81.5447 191.456 88.8031C191.456 96.5347 179.264 106.571 159.467 113.131ZM151.253 129.408C153.254 139.518 153.54 148.658 152.214 155.804C151.023 162.225 148.628 166.506 145.666 168.22C139.363 171.868 125.884 167.126 111.348 154.617C109.681 153.183 108.003 151.652 106.319 150.031C111.954 143.868 117.587 136.703 123.084 128.745C132.752 127.887 141.887 126.485 150.17 124.57C150.578 126.216 150.941 127.83 151.253 129.408ZM68.1845 167.59C62.0265 169.764 57.1219 169.827 54.1572 168.117C47.8485 164.479 45.2259 150.433 48.8033 131.592C49.2131 129.435 49.7008 127.218 50.2629 124.952C58.4558 126.764 67.5234 128.068 77.2151 128.854C82.7491 136.64 88.544 143.798 94.3838 150.065C93.1079 151.296 91.837 152.469 90.5732 153.574C82.8135 160.357 75.0375 165.169 68.1845 167.59ZM39.3349 113.084C29.5827 109.75 21.5289 105.418 16.0085 100.691C11.048 96.4428 8.54358 92.2253 8.54358 88.8031C8.54358 81.5205 19.4011 72.2314 37.5097 65.9178C39.7069 65.1517 42.007 64.4298 44.3939 63.7516C46.8966 71.8925 50.1796 80.4041 54.1415 89.011C50.1283 97.7458 46.7987 106.393 44.2715 114.629C42.5698 114.14 40.9212 113.625 39.3349 113.084ZM49.0055 47.2561C45.2469 28.0472 47.7432 13.5567 54.0247 9.92052C60.7157 6.04692 75.5113 11.5699 91.1054 25.4164C92.1022 26.3014 93.1029 27.2277 94.1065 28.186C88.2955 34.4256 82.5536 41.5292 77.0688 49.27C67.6626 50.1418 58.6587 51.5423 50.3804 53.4177C49.8599 51.3241 49.3989 49.2671 49.0055 47.2561ZM135.276 68.5586C133.297 65.1403 131.266 61.8029 129.195 58.5565C135.576 59.3632 141.69 60.434 147.431 61.7445C145.708 67.2688 143.559 73.0449 141.03 78.9662C139.216 75.5219 137.297 72.0492 135.276 68.5586ZM100.095 34.2921C104.036 38.5616 107.983 43.3284 111.865 48.5003C107.953 48.3155 103.993 48.2194 100 48.2194C96.0449 48.2194 92.1139 48.3134 88.2265 48.495C92.1122 43.3711 96.0929 38.6107 100.095 34.2921ZM64.689 68.6177C62.7121 72.0456 60.8289 75.4995 59.0432 78.9598C56.5552 73.0591 54.4266 67.2567 52.688 61.6541C58.3942 60.3771 64.4793 59.3329 70.82 58.5416C68.7196 61.8178 66.6712 65.1798 64.689 68.617V68.6177ZM71.0026 119.674C64.4515 118.943 58.275 117.953 52.5701 116.711C54.3366 111.008 56.5121 105.082 59.0528 99.0544C60.8431 102.512 62.7338 105.968 64.7228 109.403H64.7232C66.7491 112.903 68.8481 116.331 71.0026 119.674ZM100.332 143.916C96.2823 139.547 92.2432 134.714 88.2984 129.516C92.1278 129.666 96.0321 129.743 100 129.743C104.077 129.743 108.106 129.651 112.073 129.474C108.178 134.767 104.246 139.607 100.332 143.916ZM141.112 98.7472C143.785 104.84 146.038 110.735 147.828 116.341C142.029 117.664 135.768 118.729 129.171 119.521C131.247 116.231 133.297 112.836 135.311 109.344C137.348 105.811 139.283 102.273 141.112 98.7472ZM127.91 105.076C124.783 110.497 121.574 115.671 118.315 120.556C112.381 120.98 106.249 121.199 100 121.199C93.7761 121.199 87.722 121.006 81.8922 120.627C78.5024 115.678 75.2229 110.488 72.1165 105.122H72.1172C69.019 99.771 66.1674 94.3745 63.5836 89.0082C66.1667 83.6294 69.0108 78.2268 72.0912 72.8851L72.0905 72.8861C75.1792 67.5301 78.4298 62.3653 81.7882 57.4476C87.7363 56.998 93.8355 56.7634 99.9996 56.7634H100C106.192 56.7634 112.299 56.9997 118.245 57.4533C121.552 62.3351 124.781 67.4831 127.882 72.8398C131.018 78.2567 133.898 83.6234 136.504 88.8868C133.906 94.2406 131.032 99.6614 127.91 105.076ZM145.535 9.66634C152.232 13.5286 154.837 29.1049 150.629 49.5302C150.36 50.8335 150.058 52.161 149.73 53.5063C141.432 51.5918 132.422 50.1671 122.989 49.2821C117.493 41.4562 111.798 34.3416 106.082 28.1821C107.619 26.7037 109.153 25.2939 110.682 23.9635C125.447 11.1138 139.247 6.04051 145.535 9.66634ZM100 70.9438C109.863 70.9438 117.859 78.9395 117.859 88.8031C117.859 98.6664 109.863 106.662 100 106.662C90.1367 106.662 82.1407 98.6664 82.1407 88.8031C82.1407 78.9395 90.1367 70.9438 100 70.9438Z" fill="#569B51"/>
</svg>
