<svg width="256" height="255" viewBox="0 0 256 255" fill="none" xmlns="http://www.w3.org/2000/svg">
<path d="M197.467 167.764L51.9463 254.173L240.369 241.388L254.881 51.3931L197.467 167.764Z" fill="url(#paint0_linear_203:610)"/>
<path d="M240.677 241.258L224.482 129.479L180.369 187.729L240.677 241.258Z" fill="#9DD9A3"/>
<path d="M240.896 241.258L122.25 231.944L52.5767 253.93L240.896 241.258Z" fill="#6AB972"/>
<path d="M52.7438 253.954L82.3832 156.854L17.1611 170.801L52.7438 253.954Z" fill="#396F35"/>
<path d="M180.358 188.05L153.085 81.2251L75.0376 154.384L180.358 188.05Z" fill="#4F934A"/>
<path d="M248.693 82.7306L174.916 22.4741L154.372 88.8926L248.693 82.7306Z" fill="#4F934A"/>
<path d="M214.191 0.990553L170.8 24.9696L143.424 0.668945L214.191 0.990553Z" fill="#9DD9A3"/>
<path d="M0 203.372L18.1773 170.221L3.47337 130.727L0 203.372Z" fill="#569B51"/>
<path d="M2.49561 129.479L17.2896 171.443L81.5726 157.021L154.964 88.814L175.675 23.0271L143.063 0L87.6175 20.7502C70.1491 36.9978 36.2516 69.1457 35.0295 69.7504C33.8202 70.3678 12.6456 110.389 2.49561 129.479Z" fill="white"/>
<path d="M54.4417 54.0947C92.3014 16.5566 141.109 -5.62147 159.839 13.2762C178.558 32.1739 158.707 78.0995 120.847 115.625C82.9876 153.15 34.785 176.55 16.0674 157.653C-2.663 138.768 16.582 91.6199 54.4417 54.0947Z" fill="#9DD9A3"/>
<path d="M52.7437 253.916L82.1515 156.507L179.817 187.883C144.505 220.996 105.23 248.989 52.7437 253.916Z" fill="#6AB972"/>
<path d="M155.092 88.6222L180.165 187.935C209.663 156.919 236.138 123.575 249.103 82.3315L155.092 88.6222Z" fill="url(#paint1_linear_203:610)"/>
<path d="M248.848 82.8334C258.882 52.5507 261.197 9.10792 213.881 1.04199L175.057 22.4868L248.848 82.8334Z" fill="#4F934A"/>
<path d="M0 202.935C1.38935 252.914 37.448 253.659 52.808 254.097L17.3282 171.237L0 202.935Z" fill="#4F934A"/>
<path d="M155.232 88.7765C177.899 102.709 223.582 130.688 224.508 131.203C225.948 132.013 244.203 100.419 248.346 82.563L155.232 88.7765Z" fill="#6AB972"/>
<path d="M82.1128 156.507L121.426 232.355C144.672 219.748 162.875 204.388 179.547 187.935L82.1128 156.507Z" fill="#569B51"/>
<path d="M17.1738 171.34L11.6035 237.668C22.1137 252.025 36.5732 253.273 51.7402 252.153C40.7669 224.843 18.8461 170.233 17.1738 171.34Z" fill="#9DD9A3"/>
<path d="M174.826 22.6542L252.925 33.6146C248.757 15.9519 235.957 4.55414 214.14 0.990723L174.826 22.6542Z" fill="url(#paint2_linear_203:610)"/>
<defs>
<linearGradient id="paint0_linear_203:610" x1="153.414" y1="51.3931" x2="61.3809" y2="258.035" gradientUnits="userSpaceOnUse">
<stop stop-color="#396F35"/>
<stop offset="0.3125" stop-color="#4F934A"/>
<stop offset="0.5" stop-color="#569B51"/>
<stop offset="0.75" stop-color="#6AB972"/>
<stop offset="1" stop-color="#9DD9A3"/>
</linearGradient>
<linearGradient id="paint1_linear_203:610" x1="202.098" y1="82.3315" x2="150.472" y2="185.444" gradientUnits="userSpaceOnUse">
<stop stop-color="#396F35"/>
<stop offset="0.3125" stop-color="#4F934A"/>
<stop offset="0.5" stop-color="#569B51"/>
<stop offset="0.75" stop-color="#6AB972"/>
<stop offset="1" stop-color="#9DD9A3"/>
</linearGradient>
<linearGradient id="paint2_linear_203:610" x1="213.876" y1="0.990723" x2="206.707" y2="39.4956" gradientUnits="userSpaceOnUse">
<stop stop-color="#396F35"/>
<stop offset="0.3125" stop-color="#4F934A"/>
<stop offset="0.5" stop-color="#569B51"/>
<stop offset="0.75" stop-color="#6AB972"/>
<stop offset="1" stop-color="#9DD9A3"/>
</linearGradient>
</defs>
</svg>
