<svg width="200" height="200" viewBox="0 0 200 200" fill="none" xmlns="http://www.w3.org/2000/svg">
<path d="M58.1645 88.6377C52.0623 88.8931 48.6147 95.1772 48.6147 102.765C48.5577 110.471 52.1189 116.44 58.1044 116.554C64.3114 116.675 68.0051 110.652 68.0051 102.365C68.0054 94.6362 64.4326 88.3773 58.1645 88.6377Z" fill="#569B51"/>
<path d="M58.1645 88.6377C52.0623 88.8931 48.6147 95.1772 48.6147 102.765C48.5577 110.471 52.1189 116.44 58.1044 116.554C64.3114 116.675 68.0051 110.652 68.0051 102.365C68.0054 94.6362 64.4326 88.3773 58.1645 88.6377Z" fill="#569B51"/>
<path d="M3.81494 15.7722V183.82L121.995 200V182.734C122.26 182.752 122.522 182.773 122.79 182.773H183.341C190.426 182.773 196.185 177.008 196.185 169.929V29.5611C196.185 22.4806 190.426 16.717 183.341 16.717H122.79C122.522 16.717 122.26 16.743 121.995 16.759V0L3.81494 15.7722ZM21.5509 122.644C17.708 122.507 13.9819 121.266 12.1427 120.042L13.6443 113.091C15.6401 114.288 18.7467 115.518 22.0049 115.579C25.5675 115.643 27.4773 114.014 27.4773 111.49C27.4773 109.078 25.8218 107.702 21.7048 106.06C16.132 103.903 12.5762 100.502 12.5762 95.0734C12.5762 88.7029 17.2636 83.5591 25.2589 83.0966C29.1905 82.8689 32.1353 83.6291 34.2639 84.5596L32.4551 91.7961C31.0297 91.0943 28.514 90.0983 25.1087 90.2382C21.7506 90.3765 20.1452 92.1344 20.1452 94.1077C20.1452 96.5323 22.0554 97.5597 26.4956 99.3426C32.7176 101.778 35.7119 105.362 35.7119 110.92C35.7119 117.529 31.0788 122.982 21.5509 122.644ZM75.5673 131.318C69.4955 129.25 64.5545 127.216 59.1135 124.647C58.2222 124.245 57.2716 124.027 56.3243 123.932C47.5299 123.02 39.6145 116.141 39.6145 103.159C39.6145 91.2377 46.7397 81.8582 58.4004 81.1827C71.0001 80.456 78.2076 90.0525 78.2076 101.86C78.2076 111.679 73.6534 118.508 68.0659 120.893V121.144C71.3152 122.185 74.9894 123.065 78.4022 123.88L75.5673 131.318ZM114.509 125.233L84.7703 124.222V80.3771L95.1745 79.7941V116.072L114.509 116.398V125.233ZM122.791 24.058H183.342C186.377 24.058 188.846 26.5279 188.846 29.5628V169.929C188.846 172.964 186.377 175.434 183.342 175.434H122.791C122.519 175.434 122.257 175.396 121.996 175.355V136.346H127.5V132.328H121.996V122.312H125.124V118.296H121.996V96.8852H127.403V92.8686H121.996V71.6858H138.7V67.6692H121.996V24.1406C122.255 24.1003 122.519 24.058 122.791 24.058Z" fill="#569B51"/>
<path d="M3.81494 15.7722V183.82L121.995 200V182.734C122.26 182.752 122.522 182.773 122.79 182.773H183.341C190.426 182.773 196.185 177.008 196.185 169.929V29.5611C196.185 22.4806 190.426 16.717 183.341 16.717H122.79C122.522 16.717 122.26 16.743 121.995 16.759V0L3.81494 15.7722ZM21.5509 122.644C17.708 122.507 13.9819 121.266 12.1427 120.042L13.6443 113.091C15.6401 114.288 18.7467 115.518 22.0049 115.579C25.5675 115.643 27.4773 114.014 27.4773 111.49C27.4773 109.078 25.8218 107.702 21.7048 106.06C16.132 103.903 12.5762 100.502 12.5762 95.0734C12.5762 88.7029 17.2636 83.5591 25.2589 83.0966C29.1905 82.8689 32.1353 83.6291 34.2639 84.5596L32.4551 91.7961C31.0297 91.0943 28.514 90.0983 25.1087 90.2382C21.7506 90.3765 20.1452 92.1344 20.1452 94.1077C20.1452 96.5323 22.0554 97.5597 26.4956 99.3426C32.7176 101.778 35.7119 105.362 35.7119 110.92C35.7119 117.529 31.0788 122.982 21.5509 122.644ZM75.5673 131.318C69.4955 129.25 64.5545 127.216 59.1135 124.647C58.2222 124.245 57.2716 124.027 56.3243 123.932C47.5299 123.02 39.6145 116.141 39.6145 103.159C39.6145 91.2377 46.7397 81.8582 58.4004 81.1827C71.0001 80.456 78.2076 90.0525 78.2076 101.86C78.2076 111.679 73.6534 118.508 68.0659 120.893V121.144C71.3152 122.185 74.9894 123.065 78.4022 123.88L75.5673 131.318ZM114.509 125.233L84.7703 124.222V80.3771L95.1745 79.7941V116.072L114.509 116.398V125.233ZM122.791 24.058H183.342C186.377 24.058 188.846 26.5279 188.846 29.5628V169.929C188.846 172.964 186.377 175.434 183.342 175.434H122.791C122.519 175.434 122.257 175.396 121.996 175.355V136.346H127.5V132.328H121.996V122.312H125.124V118.296H121.996V96.8852H127.403V92.8686H121.996V71.6858H138.7V67.6692H121.996V24.1406C122.255 24.1003 122.519 24.058 122.791 24.058Z" fill="#569B51"/>
<path d="M138.484 80.0781H125.461V84.0944H138.484V80.0781Z" fill="#569B51"/>
<path d="M138.484 80.0781H125.461V84.0944H138.484V80.0781Z" fill="#569B51"/>
<path d="M153.951 80.0781H140.926V84.0944H153.951V80.0781Z" fill="#569B51"/>
<path d="M153.951 80.0781H140.926V84.0944H153.951V80.0781Z" fill="#569B51"/>
<path d="M144.835 92.8691H129.917V96.8857H144.835V92.8691Z" fill="#569B51"/>
<path d="M144.835 92.8691H129.917V96.8857H144.835V92.8691Z" fill="#569B51"/>
<path d="M162.548 92.8691H147.633V96.8857H162.548V92.8691Z" fill="#569B51"/>
<path d="M162.548 92.8691H147.633V96.8857H162.548V92.8691Z" fill="#569B51"/>
<path d="M131.169 105.906H124.841V109.923H131.169V105.906Z" fill="#569B51"/>
<path d="M131.169 105.906H124.841V109.923H131.169V105.906Z" fill="#569B51"/>
<path d="M138.683 105.906H132.354V109.923H138.683V105.906Z" fill="#569B51"/>
<path d="M138.683 105.906H132.354V109.923H138.683V105.906Z" fill="#569B51"/>
<path d="M146.078 105.906H139.749V109.923H146.078V105.906Z" fill="#569B51"/>
<path d="M146.078 105.906H139.749V109.923H146.078V105.906Z" fill="#569B51"/>
<path d="M153.587 105.906H147.262V109.923H153.587V105.906Z" fill="#569B51"/>
<path d="M153.587 105.906H147.262V109.923H153.587V105.906Z" fill="#569B51"/>
<path d="M161.42 105.906H155.091V109.923H161.42V105.906Z" fill="#569B51"/>
<path d="M161.42 105.906H155.091V109.923H161.42V105.906Z" fill="#569B51"/>
<path d="M168.934 105.906H162.606V109.923H168.934V105.906Z" fill="#569B51"/>
<path d="M168.934 105.906H162.606V109.923H168.934V105.906Z" fill="#569B51"/>
<path d="M176.328 105.906H169.999V109.923H176.328V105.906Z" fill="#569B51"/>
<path d="M176.328 105.906H169.999V109.923H176.328V105.906Z" fill="#569B51"/>
<path d="M183.839 105.906H177.514V109.923H183.839V105.906Z" fill="#569B51"/>
<path d="M183.839 105.906H177.514V109.923H183.839V105.906Z" fill="#569B51"/>
<path d="M135.811 118.295H126.812V122.313H135.811V118.295Z" fill="#569B51"/>
<path d="M135.811 118.295H126.812V122.313H135.811V118.295Z" fill="#569B51"/>
<path d="M146.484 118.295H137.486V122.313H146.484V118.295Z" fill="#569B51"/>
<path d="M146.484 118.295H137.486V122.313H146.484V118.295Z" fill="#569B51"/>
<path d="M157.173 118.295H148.172V122.313H157.173V118.295Z" fill="#569B51"/>
<path d="M157.173 118.295H148.172V122.313H157.173V118.295Z" fill="#569B51"/>
<path d="M167.695 118.295H158.692V122.313H167.695V118.295Z" fill="#569B51"/>
<path d="M167.695 118.295H158.692V122.313H167.695V118.295Z" fill="#569B51"/>
<path d="M178.379 118.295H169.383V122.313H178.379V118.295Z" fill="#569B51"/>
<path d="M178.379 118.295H169.383V122.313H178.379V118.295Z" fill="#569B51"/>
<path d="M136.006 132.329H128.831V136.345H136.006V132.329Z" fill="#569B51"/>
<path d="M136.006 132.329H128.831V136.345H136.006V132.329Z" fill="#569B51"/>
<path d="M144.521 132.329H137.351V136.345H144.521V132.329Z" fill="#569B51"/>
<path d="M144.521 132.329H137.351V136.345H144.521V132.329Z" fill="#569B51"/>
<path d="M152.9 132.329H145.728V136.345H152.9V132.329Z" fill="#569B51"/>
<path d="M152.9 132.329H145.728V136.345H152.9V132.329Z" fill="#569B51"/>
<path d="M161.42 132.329H154.249V136.345H161.42V132.329Z" fill="#569B51"/>
<path d="M161.42 132.329H154.249V136.345H161.42V132.329Z" fill="#569B51"/>
</svg>
