<svg width="200" height="200" viewBox="0 0 200 200" fill="none" xmlns="http://www.w3.org/2000/svg">
<g clip-path="url(#clip0_80:392)">
<path d="M44.4531 0C45.625 0 153.281 0 155.234 0C160.625 0 165.859 0.859375 170.938 2.65625C178.281 5.3125 184.922 10 189.922 16.0938C195 22.1875 198.359 29.6875 199.531 37.5C200 40.3906 200.078 43.2812 200.078 46.1719C200.078 48.8281 200.078 142.422 200.078 146.641C200.078 149.141 200.078 151.719 200.078 154.219C200.078 157.656 199.922 161.172 199.219 164.531C197.656 172.266 193.984 179.531 188.672 185.391C183.438 191.25 176.563 195.625 169.141 197.969C164.609 199.375 159.922 200 155.156 200C153.047 200 44.1406 200 42.5 199.922C34.5313 199.531 26.6406 196.953 20 192.5C13.5156 188.125 8.20314 182.031 4.76564 175C1.79688 168.984 0.31251 162.266 0.31251 155.547C0.31251 153.984 0.31251 46.0156 0.31251 44.4531C0.15626 37.8125 1.56251 31.25 4.45314 25.3125C7.81251 18.2813 13.0469 12.1094 19.5313 7.73437C26.1719 3.20312 33.9844 0.546875 41.9531 0.15625C42.7344 0 43.5938 0 44.4531 0Z" fill="url(#paint0_linear_80:392)"/>
<path d="M113.047 29.6875C178.984 74.5313 157.656 123.984 157.656 123.984C157.656 123.984 176.406 145.156 168.828 163.672C168.828 163.672 161.094 150.703 148.125 150.703C135.625 150.703 128.281 163.672 103.125 163.672C47.1094 163.672 20.625 116.875 20.625 116.875C71.0937 150.078 105.547 126.562 105.547 126.562C82.8125 113.359 34.4531 50.2344 34.4531 50.2344C76.5625 86.0938 94.7656 95.5469 94.7656 95.5469C83.9062 86.5625 53.4375 42.6562 53.4375 42.6562C77.8125 67.3437 126.25 101.797 126.25 101.797C140 63.6719 113.047 29.6875 113.047 29.6875Z" fill="white"/>
</g>
<defs>
<linearGradient id="paint0_linear_80:392" x1="118.977" y1="-7.13656" x2="81.19" y2="207.161" gradientUnits="userSpaceOnUse">
<stop stop-color="#569B51"/>
<stop offset="1" stop-color="#569B51"/>
</linearGradient>
<clipPath id="clip0_80:392">
<rect width="200" height="200" fill="white"/>
</clipPath>
</defs>
</svg>
