<svg width="256" height="256" viewBox="0 0 256 256" fill="none" xmlns="http://www.w3.org/2000/svg">
<path d="M0 128V256H128H256V128V0H128H0V128Z" fill="#569B51"/>
<path d="M56.611 128.849L56.5297 139.333H73.19H89.8504L89.8504 186.673V234.012H101.634H113.419V186.673L113.419 139.333H130.079H146.739V129.052C146.739 123.363 146.617 118.609 146.455 118.487C146.333 118.325 126.056 118.243 101.472 118.284L56.7329 118.406L56.611 128.849Z" fill="white"/>
<path d="M206.567 118.108C213.068 119.734 218.026 122.619 222.577 127.332C224.934 129.852 228.428 134.443 228.713 135.541C228.794 135.866 217.66 143.342 210.915 147.528C210.671 147.69 209.696 146.634 208.599 145.008C205.307 140.214 201.853 138.141 196.571 137.775C188.809 137.247 183.811 141.311 183.852 148.097C183.852 150.088 184.136 151.266 184.949 152.892C186.656 156.427 189.825 158.54 199.781 162.847C218.107 170.73 225.95 175.932 230.826 183.327C236.271 191.576 237.49 204.742 233.792 214.535C229.729 225.181 219.651 232.414 205.47 234.812C201.081 235.584 190.679 235.462 185.965 234.608C175.684 232.78 165.932 227.701 159.918 221.036C157.561 218.436 152.969 211.65 153.254 211.162C153.376 211 154.432 210.349 155.611 209.659C156.748 209.008 161.056 206.53 165.119 204.173L172.474 199.906L174.018 202.182C176.172 205.473 180.886 209.984 183.73 211.487C191.898 215.795 203.113 215.185 208.639 210.228C210.996 208.074 211.971 205.839 211.971 202.548C211.971 199.581 211.606 198.281 210.061 196.046C208.07 193.202 204.007 190.804 192.467 185.806C179.26 180.117 173.571 176.582 168.37 170.974C165.363 167.723 162.519 162.522 161.34 158.174C160.365 154.558 160.121 145.496 160.893 141.839C163.616 129.08 173.246 120.181 187.143 117.539C191.654 116.686 202.138 117.011 206.567 118.108Z" fill="white"/>
</svg>
