<svg width="200" height="173" viewBox="0 0 200 173" fill="none" xmlns="http://www.w3.org/2000/svg">
<g clip-path="url(#clip0_80:406)">
<path d="M160 0H200L100 172.5L0 0H39.5H76.5L100 40L123 0H160Z" fill="#569B51"/>
<path d="M160 0H200L100 172.5L0 0H39.5H76.5L100 40L123 0H160Z" fill="#569B51"/>
<path d="M0 0L100 172.5L200 0H160L100 103.5L39.5 0H0Z" fill="#569B51"/>
<path d="M0 0L100 172.5L200 0H160L100 103.5L39.5 0H0Z" fill="#569B51"/>
<path d="M39.5 0L100 104L160 0H123L100 40L76.5 0H39.5Z" fill="#4F934A"/>
</g>
<defs>
<clipPath id="clip0_80:406">
<rect width="200" height="172.656" fill="white"/>
</clipPath>
</defs>
</svg>
